<?xml version="1.0"?>
<svg width="512.002" height="512.002" xmlns="http://www.w3.org/2000/svg" xmlns:svg="http://www.w3.org/2000/svg" version="1.1" xml:space="preserve">
 <g class="layer">
  <title>Layer 1</title>
  <g id="svg_1">
   <path d="m14.81,259.02c0.03,1.83 0.07,3.65 0.13,5.48l6.08,4.42l21.62,0l53.2,-38.65c6.44,-4.69 9.14,-12.99 6.68,-20.57l-20.26,-62.54c-2.47,-7.58 -9.54,-12.72 -17.51,-12.72l-17.11,0c-20.89,35.69 -32.85,77.24 -32.85,121.56c0,1.01 0,2.01 0.02,3.02z" fill="#4c4c4c" id="svg_2"/>
   <path d="m416.34,230.27l53.19,38.66c6.44,4.68 15.2,4.68 21.64,-0.01l5.88,-4.28c0.07,-1.83 0.11,-3.67 0.14,-5.52c0.02,-1.04 0.02,-2.08 0.02,-3.12c0,-44.32 -11.96,-85.87 -32.85,-121.57l-16.92,0c-7.97,0 -15.04,5.15 -17.51,12.73l-20.26,62.54c-2.48,7.58 0.23,15.88 6.67,20.57z" fill="#4c4c4c" id="svg_3"/>
   <path d="m180.74,485.23c4.43,-4.81 6.02,-11.74 3.94,-18.14l-20.34,-62.47c-2.47,-7.57 -9.52,-12.69 -17.5,-12.69l-65.73,0c-7.23,0 -13.71,4.21 -16.67,10.64c29.23,38.17 69.62,67.35 116.3,82.66z" fill="#4c4c4c" id="svg_4"/>
   <path d="m185.42,253.17l20.34,62.54c2.47,7.58 9.53,12.71 17.5,12.71l65.66,0c7.96,0 15.03,-5.13 17.5,-12.71l20.35,-62.54c2.47,-7.59 -0.24,-15.89 -6.7,-20.59l-53.16,-38.58c-6.46,-4.69 -15.19,-4.69 -21.63,0l-53.18,38.58c-6.45,4.7 -9.14,13.01 -6.68,20.59z" fill="#4c4c4c" id="svg_5"/>
   <path d="m185.43,41.37l5.79,-17.78l0.02,0c20.61,-5.74 42.33,-8.8 64.76,-8.8c22.54,0 44.34,3.09 65.04,8.87l0.01,0l5.74,17.73c0.17,0.5 0.3,1.02 0.42,1.54c1.66,7.14 -1.1,14.67 -7.13,19.03l-31.98,23.21c-0.01,0 -0.01,0 -0.01,0l-21.18,15.37c-6.46,4.68 -15.18,4.68 -21.63,0l-53.16,-38.57c-6.46,-4.69 -9.16,-13.01 -6.69,-20.6z" fill="#4c4c4c" id="svg_6"/>
   <path d="m327.51,467.07l20.33,-62.45c2.47,-7.57 9.53,-12.71 17.51,-12.71l65.74,0c4.98,0 9.62,2.01 12.99,5.37c0.89,0.9 1.69,1.88 2.38,2.95c0.1,0.15 0.21,0.28 0.29,0.42c0.04,0.07 0.09,0.14 0.12,0.22c0.3,0.49 0.57,1.01 0.82,1.54c-29.23,38.21 -69.6,67.42 -116.28,82.76c-4.41,-4.8 -5.98,-11.71 -3.9,-18.1z" fill="#4c4c4c" id="svg_7"/>
  </g>
  <g id="svg_8" transform="matrix(1 0 0 1 0 0)">
   <path d="m511.86,247.49c-1.32,-39.64 -11.8,-78.44 -30.58,-113.15c-1.35,-2.48 -2.73,-4.94 -4.16,-7.38c0,0 0,0 0,0c-7.16,-12.26 -15.41,-24.01 -24.53,-34.93c-28.37,-33.98 -65.15,-60.15 -106.37,-75.67c-6.86,-2.58 -13.98,-4.92 -21.16,-6.94c-0.12,-0.03 -0.25,-0.07 -0.37,-0.1c-1.43,-0.39 -2.87,-0.74 -4.31,-1.11c-1.34,-0.35 -2.68,-0.72 -4.04,-1.05c-1.35,-0.33 -2.71,-0.61 -4.07,-0.91c-1.46,-0.33 -2.93,-0.68 -4.4,-0.98c-1.29,-0.27 -2.58,-0.49 -3.88,-0.74c-1.55,-0.29 -3.09,-0.6 -4.65,-0.87c-1.27,-0.22 -2.55,-0.39 -3.83,-0.59c-1.58,-0.24 -3.17,-0.51 -4.76,-0.73c-1.35,-0.18 -2.71,-0.32 -4.07,-0.48c-1.52,-0.18 -3.04,-0.39 -4.56,-0.54c-1.47,-0.15 -2.94,-0.25 -4.4,-0.37c-1.43,-0.12 -2.85,-0.27 -4.28,-0.37c-1.69,-0.11 -3.39,-0.17 -5.09,-0.25c-1.2,-0.06 -2.41,-0.14 -3.62,-0.19c-2.9,-0.09 -5.81,-0.14 -8.73,-0.14c-2.9,0 -5.8,0.05 -8.69,0.15c-1.03,0.03 -2.05,0.1 -3.08,0.15c-1.86,0.08 -3.73,0.16 -5.59,0.28c-1.02,0.07 -2.03,0.18 -3.05,0.26c-1.86,0.15 -3.72,0.28 -5.58,0.47c-1.1,0.11 -2.2,0.26 -3.3,0.39c-1.76,0.2 -3.53,0.38 -5.29,0.62c-1.23,0.17 -2.44,0.38 -3.67,0.56c-1.62,0.24 -3.25,0.47 -4.87,0.74c-1.27,0.22 -2.52,0.48 -3.78,0.71c-1.57,0.29 -3.15,0.56 -4.71,0.88c-1.33,0.27 -2.65,0.59 -3.97,0.89c-1.49,0.32 -2.97,0.63 -4.45,0.99c-1.46,0.35 -2.9,0.74 -4.34,1.12c-1.33,0.34 -2.67,0.66 -3.99,1.03c-0.01,0 -0.01,0 -0.02,0c-0.01,0.01 -0.02,0.01 -0.03,0.01c-0.11,0.03 -0.22,0.06 -0.34,0.09c-7.27,2.03 -14.54,4.4 -21.61,7.07c-41.27,15.58 -78.06,41.79 -106.37,75.81c-9.12,10.93 -17.33,22.63 -24.39,34.75c-22.82,38.98 -34.88,83.6 -34.88,129.03c0,1.08 0,2.15 0.02,3.26c0.03,1.91 0.07,3.8 0.13,5.7c0,0 0,0 0,0c0,0.02 0,0.03 0,0.05c1.37,39.55 11.52,77.21 30.17,111.92c6.47,12.07 14.01,23.73 22.38,34.63c18.54,24.22 40.93,44.64 66.17,60.67c17.77,11.27 36.95,20.4 57.25,27.06c0.01,0 0.02,0 0.03,0c25.69,8.43 52.56,12.71 79.85,12.71c27.38,0 54.31,-4.3 80.03,-12.77c49.14,-16.16 91.81,-46.53 123.41,-87.83c0.38,-0.5 0.71,-1.01 1.01,-1.54c0.08,-0.14 0.16,-0.28 0.23,-0.42c0.24,-0.43 0.45,-0.87 0.63,-1.32c0.05,-0.11 0.11,-0.23 0.15,-0.35c0.23,-0.57 0.42,-1.16 0.57,-1.75c0.01,-0.03 0.01,-0.05 0.01,-0.08c0.14,-0.55 0.24,-1.11 0.31,-1.67c0.02,-0.15 0.03,-0.3 0.05,-0.45c0.04,-0.5 0.07,-0.99 0.06,-1.49c0,-0.11 0.01,-0.22 0.01,-0.33c-0.02,-0.59 -0.08,-1.17 -0.16,-1.75c-0.02,-0.15 -0.06,-0.3 -0.08,-0.45c-0.09,-0.46 -0.19,-0.92 -0.32,-1.37c-0.04,-0.15 -0.08,-0.3 -0.12,-0.45c-0.19,-0.58 -0.4,-1.15 -0.65,-1.71c0,-0.01 -0.01,-0.02 -0.01,-0.03c-0.05,-0.1 -0.11,-0.19 -0.16,-0.3c-0.16,-0.32 -0.31,-0.64 -0.49,-0.95c-0.23,-0.45 -0.45,-0.91 -0.7,-1.33c-0.13,-0.24 -0.25,-0.45 -0.35,-0.62c-0.25,-0.41 -0.51,-0.81 -0.77,-1.17c-1.2,-1.81 -2.59,-3.5 -4.13,-5.04c-6.26,-6.26 -14.58,-9.71 -23.44,-9.71l-65.75,0c-14.41,0 -27.09,9.21 -31.57,22.92l-20.33,62.45c-1.38,4.24 -1.87,8.65 -1.52,12.96c-18.18,4.62 -36.92,6.97 -55.93,6.97c-18.92,0 -37.61,-2.33 -55.74,-6.93c0.36,-4.31 -0.13,-8.73 -1.51,-12.98l-20.35,-62.48c-4.47,-13.7 -17.15,-22.9 -31.55,-22.9l-65.73,0c-5.04,0 -9.91,1.17 -14.3,3.27c-3.74,-5.68 -7.24,-11.51 -10.43,-17.47c-13.36,-24.86 -21.78,-51.45 -25.14,-79.23l11.4,0c3.12,0 6.17,-0.98 8.69,-2.82l53.21,-38.66c11.65,-8.48 16.49,-23.38 12.05,-37.08l-20.27,-62.56c-3.45,-10.6 -11.83,-18.49 -22.1,-21.54c2.5,-3.36 5.09,-6.67 7.77,-9.89c23.6,-28.34 53.83,-50.55 87.75,-64.55c-0.16,10.6 4.76,20.85 13.69,27.35l53.16,38.56c5.7,4.15 12.45,6.34 19.5,6.34c7.05,0 13.79,-2.19 19.51,-6.33l20.78,-15.09c0.14,-0.09 0.27,-0.19 0.41,-0.29l31.97,-23.2c8.87,-6.42 13.85,-16.62 13.71,-27.25c33.75,13.95 63.85,36.08 87.41,64.31c2.74,3.28 5.38,6.65 7.94,10.08c-10.21,3.08 -18.52,10.96 -21.96,21.52l-20.26,62.52c-4.46,13.7 0.37,28.61 12.04,37.12l53.2,38.66c5.7,4.14 12.44,6.33 19.5,6.33c0,0 0,0 0,0c7.07,0 13.83,-2.2 19.53,-6.35l5.88,-4.28c0.02,-0.01 0.03,-0.02 0.04,-0.03c1.32,-0.96 2.47,-2.14 3.4,-3.49c0.04,-0.06 0.08,-0.12 0.12,-0.18c0.26,-0.38 0.49,-0.77 0.71,-1.17c0.05,-0.09 0.1,-0.17 0.14,-0.27c0.2,-0.38 0.38,-0.77 0.55,-1.17c0.04,-0.1 0.09,-0.21 0.13,-0.31c0.15,-0.39 0.28,-0.79 0.4,-1.2c0.03,-0.12 0.07,-0.23 0.1,-0.35c0.11,-0.4 0.19,-0.82 0.27,-1.23c0.02,-0.12 0.05,-0.24 0.06,-0.36c0.08,-0.53 0.14,-1.06 0.16,-1.61c0,0 0,0 0,-0.01c0.08,-1.95 0.12,-3.9 0.15,-5.89c0.02,-1.11 0.02,-2.22 0.02,-3.33c0,-2.84 -0.05,-5.67 -0.14,-8.51zm-146.51,159.21l59.63,0c-1.7,1.91 -3.44,3.78 -5.2,5.63c-0.5,0.53 -1.01,1.05 -1.52,1.57c-1.35,1.39 -2.71,2.76 -4.09,4.11c-0.51,0.5 -1.01,1 -1.52,1.49c-1.84,1.76 -3.7,3.51 -5.59,5.21c-0.14,0.12 -0.28,0.24 -0.42,0.36c-1.77,1.58 -3.56,3.12 -5.37,4.63c-0.56,0.48 -1.13,0.94 -1.7,1.41c-1.5,1.24 -3.02,2.45 -4.55,3.65c-0.52,0.4 -1.04,0.82 -1.57,1.22c-2.01,1.54 -4.05,3.06 -6.11,4.53c-0.29,0.2 -0.57,0.39 -0.86,0.59c-1.8,1.27 -3.61,2.51 -5.45,3.73c-0.62,0.41 -1.24,0.82 -1.87,1.22c-1.65,1.08 -3.32,2.12 -5,3.15c-0.53,0.32 -1.05,0.65 -1.58,0.97c-2.17,1.31 -4.36,2.58 -6.58,3.81c-0.41,0.23 -0.83,0.44 -1.24,0.67c-1.83,1 -3.68,1.98 -5.54,2.94c-0.68,0.34 -1.36,0.68 -2.04,1.02c-1.8,0.9 -3.61,1.77 -5.44,2.62c-0.52,0.24 -1.03,0.49 -1.55,0.73c-2.1,0.96 -4.23,1.88 -6.37,2.78l18.08,-55.53c0.49,-1.5 1.87,-2.51 3.45,-2.51zm-215.07,2.5l18.11,55.64c-2.15,-0.9 -4.29,-1.83 -6.42,-2.8c-0.55,-0.25 -1.09,-0.51 -1.63,-0.76c-1.8,-0.84 -3.58,-1.7 -5.35,-2.58c-0.7,-0.34 -1.39,-0.69 -2.09,-1.05c-1.84,-0.94 -3.66,-1.9 -5.47,-2.89c-0.43,-0.24 -0.88,-0.47 -1.31,-0.71c-2.21,-1.22 -4.38,-2.48 -6.54,-3.78c-0.56,-0.33 -1.11,-0.68 -1.67,-1.02c-1.65,-1.01 -3.28,-2.03 -4.89,-3.08c-0.66,-0.42 -1.31,-0.85 -1.96,-1.28c-1.78,-1.18 -3.55,-2.38 -5.29,-3.61c-0.34,-0.24 -0.68,-0.46 -1.01,-0.7c-2.05,-1.46 -4.07,-2.96 -6.08,-4.5c-0.54,-0.41 -1.07,-0.83 -1.61,-1.25c-1.51,-1.18 -3.01,-2.38 -4.5,-3.6c-0.58,-0.48 -1.17,-0.96 -1.75,-1.44c-1.75,-1.48 -3.49,-2.97 -5.2,-4.5c-0.19,-0.17 -0.39,-0.33 -0.57,-0.5c-1.9,-1.7 -3.76,-3.44 -5.6,-5.21c-0.5,-0.47 -0.99,-0.96 -1.49,-1.45c-1.38,-1.35 -2.76,-2.73 -4.11,-4.13c-0.51,-0.52 -1.02,-1.04 -1.53,-1.57c-1.72,-1.8 -3.41,-3.63 -5.08,-5.49c-0.04,-0.06 -0.09,-0.11 -0.14,-0.16c-0.02,-0.02 -0.04,-0.04 -0.06,-0.07l59.81,0c1.56,0.01 2.94,1.01 3.43,2.49zm-61.83,-194.95c0.49,1.5 -0.05,3.13 -1.31,4.06l-49.3,35.81l-8.23,0c0.01,-1.13 0.03,-2.26 0.06,-3.39c0.02,-0.95 0.03,-1.89 0.07,-2.84c0.05,-1.63 0.14,-3.25 0.24,-4.88c0.04,-0.77 0.07,-1.54 0.12,-2.31c0.16,-2.4 0.36,-4.79 0.6,-7.17c0.01,-0.18 0.04,-0.37 0.06,-0.55c0.22,-2.2 0.48,-4.39 0.76,-6.58c0.11,-0.81 0.24,-1.61 0.35,-2.41c0.23,-1.57 0.45,-3.13 0.71,-4.7c0.15,-0.93 0.32,-1.85 0.49,-2.78c0.25,-1.43 0.5,-2.86 0.78,-4.28c0.19,-0.98 0.4,-1.95 0.61,-2.92c0.29,-1.37 0.58,-2.74 0.89,-4.11c0.23,-0.98 0.47,-1.96 0.71,-2.95c0.33,-1.34 0.66,-2.69 1.02,-4.03c0.25,-0.98 0.52,-1.96 0.79,-2.94c0.37,-1.34 0.76,-2.67 1.16,-4.01c0.28,-0.95 0.57,-1.91 0.87,-2.87c0.42,-1.35 0.86,-2.7 1.31,-4.04c0.31,-0.93 0.61,-1.85 0.93,-2.77c0.48,-1.39 0.99,-2.76 1.49,-4.14c0.32,-0.86 0.63,-1.73 0.96,-2.59c0.57,-1.47 1.17,-2.94 1.76,-4.41c0.31,-0.74 0.6,-1.49 0.91,-2.23c0.75,-1.78 1.53,-3.55 2.32,-5.31c0.19,-0.42 0.36,-0.84 0.55,-1.25c1.01,-2.2 2.05,-4.38 3.13,-6.54c0.17,-0.35 0.36,-0.69 0.54,-1.04c0.82,-1.63 1.66,-3.25 2.52,-4.86l8.43,0c1.57,0 2.95,1.01 3.44,2.5l20.26,62.53zm222.94,-164.26l-31.58,22.93c-0.14,0.09 -0.28,0.19 -0.41,0.28l-21.17,15.37c-0.8,0.57 -1.6,0.69 -2.14,0.69c-0.53,0 -1.33,-0.12 -2.12,-0.69l-53.15,-38.56c-1.28,-0.93 -1.81,-2.56 -1.33,-4.06l3.29,-10.07c2.31,-0.56 4.63,-1.08 6.95,-1.56c0.74,-0.15 1.47,-0.28 2.2,-0.43c1.63,-0.32 3.26,-0.63 4.9,-0.92c0.91,-0.16 1.83,-0.3 2.74,-0.45c1.48,-0.24 2.96,-0.47 4.44,-0.68c0.97,-0.13 1.93,-0.26 2.9,-0.39c1.45,-0.18 2.9,-0.35 4.35,-0.51c0.98,-0.11 1.95,-0.21 2.93,-0.3c1.48,-0.14 2.97,-0.27 4.46,-0.38c0.93,-0.07 1.87,-0.15 2.8,-0.21c1.63,-0.1 3.26,-0.17 4.89,-0.24c0.8,-0.04 1.59,-0.08 2.38,-0.11c2.42,-0.07 4.85,-0.12 7.28,-0.12c2.44,0 4.87,0.05 7.31,0.12c0.79,0.03 1.58,0.07 2.37,0.11c1.64,0.07 3.29,0.14 4.93,0.25c0.93,0.06 1.86,0.13 2.79,0.2c1.5,0.12 3.01,0.24 4.51,0.39c0.97,0.09 1.94,0.19 2.9,0.3c1.48,0.16 2.95,0.33 4.42,0.52c0.96,0.13 1.92,0.25 2.87,0.39c1.51,0.21 3.02,0.45 4.52,0.69c0.9,0.15 1.8,0.29 2.69,0.44c1.67,0.3 3.33,0.62 5,0.95c0.71,0.14 1.43,0.27 2.14,0.42c2.35,0.49 4.69,1.01 7.02,1.57l3.24,10.01c0.01,0.02 0.02,0.04 0.02,0.06l0.03,0.14c0.01,0.05 0.03,0.09 0.04,0.14c0.33,1.4 -0.22,2.85 -1.41,3.71zm166.84,206.97l-53.18,-38.64c-1.27,-0.93 -1.8,-2.55 -1.31,-4.06l20.26,-62.52c0.49,-1.5 1.87,-2.51 3.44,-2.51l8.24,0c0.72,1.34 1.41,2.7 2.11,4.05c0.33,0.65 0.67,1.29 1,1.94c1.07,2.16 2.1,4.32 3.1,6.5c0.19,0.42 0.37,0.85 0.56,1.27c0.8,1.77 1.58,3.54 2.33,5.33c0.35,0.81 0.66,1.64 0.99,2.45c0.58,1.41 1.15,2.82 1.69,4.24c0.36,0.92 0.69,1.86 1.03,2.79c0.49,1.32 0.97,2.65 1.44,3.98c0.34,0.98 0.66,1.98 0.99,2.97c0.42,1.29 0.85,2.58 1.25,3.87c0.32,1.03 0.62,2.05 0.93,3.08c0.37,1.28 0.75,2.56 1.1,3.84c0.29,1.05 0.57,2.1 0.84,3.14c0.33,1.29 0.66,2.57 0.97,3.86c0.26,1.05 0.5,2.11 0.75,3.18c0.29,1.29 0.57,2.58 0.84,3.88c0.22,1.06 0.44,2.12 0.65,3.19c0.25,1.31 0.49,2.62 0.72,3.93c0.18,1.06 0.37,2.12 0.54,3.18c0.22,1.34 0.41,2.68 0.6,4.02c0.15,1.04 0.31,2.09 0.44,3.14c0.18,1.38 0.33,2.75 0.48,4.13c0.11,1.02 0.23,2.04 0.33,3.07c0.14,1.44 0.25,2.89 0.36,4.34c0.07,0.96 0.16,1.92 0.22,2.88c0.11,1.61 0.17,3.23 0.24,4.85c0.04,0.8 0.09,1.6 0.11,2.4c0.08,2.42 0.12,4.84 0.12,7.27c0,0.34 0,0.66 0,1c-0.76,0.53 -1.55,0.65 -2.07,0.65c-0.53,0 -1.34,-0.12 -2.11,-0.69z" fill="#000000" id="svg_9"/>
   <path d="m275.59,182.02c-5.71,-4.14 -12.45,-6.32 -19.5,-6.32c-7.06,0 -13.8,2.19 -19.5,6.32l-53.18,38.6c-11.66,8.47 -16.51,23.39 -12.06,37.12l20.34,62.55c4.47,13.71 17.15,22.92 31.57,22.92l65.66,0c14.41,0 27.09,-9.21 31.56,-22.93l20.36,-62.53c4.46,-13.72 -0.39,-28.64 -12.08,-37.14l-53.17,-38.59zm37.12,66.57l-20.36,62.54c-0.48,1.49 -1.86,2.5 -3.43,2.5l-65.65,0c-1.58,0 -2.96,-1.01 -3.45,-2.5l-20.33,-62.52c-0.49,-1.5 0.04,-3.14 1.3,-4.06l53.18,-38.59c0.79,-0.56 1.59,-0.68 2.12,-0.68c0.54,0 1.35,0.12 2.13,0.69l53.15,38.58c1.28,0.93 1.82,2.55 1.34,4.04z" fill="#000000" id="svg_10"/>
  </g>
 </g>
</svg>