<?xml version="1.0" encoding="iso-8859-1"?>
<!-- Uploaded to: SVG Repo, www.svgrepo.com, Generator: SVG Repo Mixer Tools -->
<svg height="800px" width="800px" version="1.1" id="Layer_1" xmlns="http://www.w3.org/2000/svg" xmlns:xlink="http://www.w3.org/1999/xlink" 
	 viewBox="0 0 512.002 512.002" xml:space="preserve">
<g>
	<path style="fill:#F4B2B0;" d="M14.806,259.02c0.03,1.834,0.072,3.655,0.13,5.476l6.082,4.421h21.626l53.191-38.644
		c6.443-4.695,9.144-12.988,6.688-20.571l-20.266-62.538c-2.47-7.585-9.534-12.727-17.509-12.727H47.643
		c-20.889,35.696-32.852,77.243-32.852,121.566C14.791,257.011,14.791,258.008,14.806,259.02z"/>
	<path style="fill:#F4B2B0;" d="M416.339,230.271l53.191,38.659c6.443,4.681,15.198,4.681,21.64-0.015l5.879-4.276
		c0.072-1.834,0.115-3.67,0.145-5.518c0.015-1.04,0.015-2.08,0.015-3.121c0-44.321-11.961-85.868-32.85-121.566h-16.916
		c-7.974,0-15.039,5.143-17.509,12.727L409.665,209.7C407.195,217.284,409.896,225.576,416.339,230.271z"/>
	<path style="fill:#F4B2B0;" d="M180.736,485.233c4.434-4.81,6.024-11.745,3.943-18.144l-20.34-62.466
		c-2.47-7.57-9.521-12.698-17.495-12.698h-65.73c-7.237,0-13.71,4.218-16.671,10.646C93.669,440.739,134.059,469.92,180.736,485.233
		z"/>
	<path style="fill:#F4B2B0;" d="M185.416,253.168l20.34,62.538c2.47,7.585,9.534,12.713,17.509,12.713h65.658
		c7.96,0,15.025-5.128,17.495-12.713l20.355-62.538c2.47-7.585-0.246-15.891-6.703-20.586l-53.163-38.586
		c-6.458-4.681-15.183-4.681-21.626,0l-53.177,38.586C185.647,237.277,182.961,245.585,185.416,253.168z"/>
	<path style="fill:#F4B2B0;" d="M185.431,41.373l5.792-17.783h0.015c20.615-5.736,42.328-8.799,64.763-8.799
		c22.537,0,44.335,3.091,65.037,8.87h0.015l5.734,17.725c0.173,0.506,0.303,1.025,0.419,1.546
		c1.661,7.137-1.098,14.664-7.122,19.025L288.1,85.173c-0.015,0-0.015,0-0.015,0l-21.177,15.371c-6.458,4.681-15.183,4.681-21.626,0
		l-53.163-38.571C185.662,57.277,182.961,48.956,185.431,41.373z"/>
	<path style="fill:#F4B2B0;" d="M327.51,467.074l20.326-62.451c2.47-7.57,9.534-12.713,17.509-12.713h65.745
		c4.984,0,9.621,2.009,12.988,5.373c0.896,0.896,1.691,1.878,2.384,2.948c0.101,0.145,0.203,0.275,0.288,0.419
		c0.043,0.073,0.087,0.145,0.115,0.217c0.303,0.491,0.578,1.012,0.824,1.546c-29.225,38.211-69.603,67.421-116.278,82.762
		C327.004,480.366,325.429,473.46,327.51,467.074z"/>
</g>
<g>
	<path style="fill:#B3404A;" d="M511.859,247.493c-1.315-39.647-11.802-78.445-30.583-113.153c-1.342-2.48-2.726-4.939-4.152-7.376
		c-0.001-0.003-0.003-0.004-0.004-0.007c-7.157-12.256-15.412-24.007-24.534-34.923c-28.364-33.988-65.148-60.154-106.368-75.671
		c-6.856-2.584-13.974-4.919-21.16-6.941c-0.121-0.034-0.243-0.067-0.365-0.098c-1.43-0.398-2.874-0.745-4.31-1.118
		c-1.346-0.349-2.686-0.72-4.038-1.047c-1.352-0.327-2.716-0.606-4.073-0.911c-1.466-0.328-2.927-0.68-4.399-0.982
		c-1.288-0.265-2.585-0.485-3.878-0.731c-1.552-0.294-3.099-0.609-4.656-0.876c-1.272-0.217-2.551-0.389-3.826-0.587
		c-1.586-0.246-3.168-0.512-4.76-0.728c-1.353-0.183-2.714-0.321-4.07-0.484c-1.522-0.182-3.039-0.386-4.564-0.541
		c-1.464-0.149-2.934-0.248-4.402-0.373c-1.424-0.12-2.846-0.265-4.273-0.361c-1.694-0.114-3.393-0.176-5.091-0.257
		c-1.207-0.058-2.409-0.142-3.618-0.183C261.827,0.049,258.916,0,256.001,0c-2.9,0-5.799,0.049-8.693,0.145
		c-1.026,0.034-2.049,0.108-3.074,0.155c-1.865,0.084-3.733,0.157-5.594,0.281c-1.018,0.068-2.029,0.176-3.045,0.256
		c-1.864,0.148-3.729,0.283-5.586,0.47c-1.102,0.111-2.196,0.263-3.297,0.389c-1.766,0.201-3.534,0.388-5.294,0.626
		c-1.225,0.166-2.442,0.376-3.665,0.558c-1.626,0.244-3.255,0.469-4.877,0.744c-1.263,0.214-2.519,0.473-3.779,0.707
		c-1.569,0.291-3.145,0.561-4.708,0.882c-1.328,0.272-2.646,0.59-3.97,0.883c-1.484,0.328-2.973,0.636-4.451,0.991
		c-1.454,0.349-2.895,0.747-4.341,1.121c-1.33,0.345-2.665,0.664-3.991,1.031c-0.004,0.001-0.007,0.003-0.012,0.004
		c-0.01,0.003-0.022,0.006-0.033,0.009c-0.112,0.03-0.225,0.059-0.336,0.09c-7.273,2.025-14.544,4.403-21.611,7.071
		C124.371,31.987,87.584,58.202,59.265,92.215c-9.116,10.936-17.326,22.634-24.389,34.75C12.06,165.954,0,210.574,0,256.001
		c0,1.081,0,2.148,0.016,3.258c0.031,1.909,0.075,3.804,0.135,5.699c0,0.001,0,0.003,0,0.004c0,0.015,0,0.03,0.001,0.044
		c1.368,39.558,11.518,77.218,30.166,111.925c6.475,12.069,14.01,23.727,22.38,34.634c18.545,24.218,40.929,44.636,66.176,60.66
		c17.77,11.279,36.946,20.401,57.249,27.063c0.007,0.003,0.015,0.004,0.024,0.006c25.693,8.431,52.559,12.707,79.853,12.707
		c27.378,0,54.306-4.298,80.029-12.773c49.141-16.153,91.814-46.523,123.407-87.828c0.38-0.497,0.71-1.013,1.018-1.538
		c0.08-0.138,0.152-0.277,0.228-0.417c0.235-0.433,0.447-0.873,0.633-1.321c0.049-0.118,0.104-0.234,0.149-0.352
		c0.223-0.575,0.417-1.16,0.565-1.751c0.007-0.027,0.01-0.055,0.016-0.081c0.135-0.553,0.231-1.111,0.302-1.671
		c0.019-0.151,0.034-0.302,0.049-0.453c0.046-0.494,0.07-0.988,0.067-1.484c0-0.112,0.007-0.223,0.003-0.336
		c-0.016-0.584-0.071-1.165-0.157-1.744c-0.022-0.151-0.055-0.3-0.083-0.453c-0.083-0.461-0.186-0.917-0.314-1.37
		c-0.041-0.149-0.08-0.299-0.126-0.447c-0.182-0.58-0.393-1.152-0.646-1.708c-0.004-0.01-0.007-0.021-0.012-0.031
		c-0.047-0.105-0.108-0.198-0.157-0.302c-0.157-0.321-0.315-0.64-0.494-0.951c-0.231-0.445-0.444-0.907-0.692-1.331
		c-0.132-0.24-0.251-0.445-0.354-0.615c-0.248-0.414-0.51-0.809-0.769-1.171c-1.204-1.812-2.593-3.507-4.13-5.047
		c-6.258-6.259-14.585-9.707-23.446-9.707H365.34c-14.408,0-27.095,9.209-31.574,22.926l-20.326,62.447
		c-1.381,4.242-1.868,8.644-1.519,12.954c-18.176,4.624-36.922,6.971-55.926,6.971c-18.928,0-37.613-2.331-55.744-6.922
		c0.355-4.319-0.13-8.732-1.513-12.988l-20.343-62.475c-4.47-13.698-17.151-22.901-31.555-22.901h-65.73
		c-5.041,0-9.907,1.167-14.298,3.269c-3.745-5.677-7.24-11.51-10.435-17.465c-13.359-24.866-21.781-51.45-25.137-79.231h11.401
		c3.124,0,6.166-0.988,8.693-2.825l53.21-38.657c11.642-8.483,16.483-23.386,12.047-37.085l-20.272-62.555
		c-3.452-10.604-11.825-18.496-22.103-21.544c2.501-3.36,5.09-6.663,7.777-9.889c23.596-28.341,53.827-50.549,87.751-64.547
		c-0.164,10.596,4.755,20.846,13.689,27.344l53.155,38.566c5.705,4.144,12.448,6.335,19.502,6.335c7.048,0,13.791-2.188,19.506-6.33
		l20.781-15.084c0.139-0.093,0.277-0.189,0.411-0.288l31.97-23.205c8.87-6.424,13.85-16.622,13.71-27.252
		c33.748,13.957,63.853,36.081,87.412,64.31c2.741,3.279,5.384,6.648,7.938,10.086c-10.207,3.081-18.514,10.954-21.955,21.521
		l-20.263,62.518c-4.461,13.699,0.373,28.61,12.044,37.116l53.195,38.66c5.7,4.143,12.445,6.332,19.503,6.332
		c0.001,0,0.001,0,0.001,0c7.072,0,13.829-2.198,19.53-6.351l5.879-4.276c0.015-0.01,0.027-0.022,0.04-0.033
		c1.316-0.964,2.464-2.142,3.399-3.486c0.043-0.062,0.083-0.126,0.124-0.188c0.253-0.377,0.49-0.765,0.708-1.164
		c0.049-0.089,0.095-0.177,0.142-0.268c0.198-0.382,0.38-0.772,0.544-1.173c0.043-0.104,0.087-0.207,0.129-0.312
		c0.151-0.39,0.283-0.791,0.401-1.198c0.034-0.117,0.072-0.231,0.104-0.349c0.106-0.405,0.191-0.818,0.263-1.237
		c0.021-0.12,0.05-0.237,0.068-0.358c0.078-0.527,0.133-1.06,0.155-1.605c0-0.003,0.001-0.006,0.001-0.009
		c0.077-1.952,0.123-3.903,0.154-5.896c0.016-1.109,0.016-2.217,0.016-3.326C512,253.161,511.953,250.326,511.859,247.493z
		 M365.345,406.701h59.635c-1.702,1.911-3.442,3.781-5.2,5.628c-0.503,0.528-1.013,1.049-1.521,1.572
		c-1.349,1.389-2.713,2.76-4.094,4.112c-0.506,0.495-1.009,0.994-1.518,1.483c-1.839,1.768-3.698,3.51-5.592,5.209
		c-0.138,0.124-0.28,0.243-0.419,0.365c-1.763,1.575-3.554,3.116-5.363,4.634c-0.564,0.473-1.133,0.939-1.702,1.407
		c-1.503,1.235-3.022,2.451-4.554,3.646c-0.522,0.407-1.04,0.819-1.565,1.222c-2.014,1.543-4.05,3.056-6.115,4.527
		c-0.283,0.201-0.572,0.393-0.856,0.595c-1.797,1.269-3.615,2.51-5.447,3.726c-0.623,0.413-1.248,0.819-1.875,1.226
		c-1.652,1.072-3.319,2.121-4.999,3.149c-0.527,0.322-1.047,0.651-1.577,0.969c-2.171,1.305-4.363,2.575-6.579,3.806
		c-0.413,0.229-0.831,0.447-1.245,0.673c-1.833,1.003-3.681,1.982-5.544,2.935c-0.676,0.346-1.355,0.688-2.034,1.026
		c-1.8,0.898-3.615,1.772-5.442,2.622c-0.516,0.241-1.026,0.49-1.546,0.726c-2.105,0.961-4.232,1.883-6.37,2.781l18.073-55.528
		C362.387,407.71,363.772,406.701,365.345,406.701z M150.275,409.202l18.119,55.64c-2.157-0.902-4.298-1.831-6.421-2.798
		c-0.549-0.25-1.092-0.513-1.637-0.768c-1.794-0.836-3.575-1.692-5.344-2.572c-0.698-0.348-1.395-0.698-2.09-1.052
		c-1.839-0.939-3.662-1.904-5.471-2.892c-0.436-0.238-0.879-0.466-1.312-0.708c-2.204-1.222-4.383-2.485-6.54-3.779
		c-0.561-0.336-1.112-0.685-1.67-1.025c-1.645-1.006-3.276-2.031-4.894-3.078c-0.652-0.423-1.306-0.846-1.954-1.276
		c-1.781-1.18-3.547-2.384-5.294-3.615c-0.333-0.235-0.673-0.46-1.004-0.697c-2.053-1.463-4.078-2.966-6.08-4.498
		c-0.54-0.413-1.072-0.837-1.609-1.254c-1.515-1.18-3.016-2.378-4.501-3.599c-0.584-0.479-1.17-0.958-1.75-1.445
		c-1.756-1.472-3.494-2.967-5.206-4.493c-0.189-0.169-0.383-0.33-0.571-0.5c-1.895-1.701-3.757-3.442-5.598-5.209
		c-0.498-0.478-0.988-0.966-1.484-1.45c-1.389-1.358-2.761-2.735-4.118-4.13c-0.509-0.525-1.021-1.047-1.526-1.577
		c-1.717-1.802-3.414-3.625-5.076-5.487c-0.049-0.055-0.099-0.106-0.148-0.161c-0.019-0.021-0.035-0.043-0.055-0.064h59.807
		C148.411,406.716,149.791,407.719,150.275,409.202z M88.452,214.255c0.485,1.498-0.049,3.13-1.31,4.05l-49.304,35.819h-8.225
		c0.009-1.133,0.03-2.263,0.056-3.394c0.022-0.947,0.033-1.893,0.067-2.838c0.058-1.628,0.149-3.254,0.243-4.878
		c0.044-0.772,0.072-1.546,0.124-2.318c0.161-2.393,0.356-4.782,0.593-7.165c0.018-0.185,0.044-0.37,0.064-0.555
		c0.223-2.198,0.476-4.391,0.765-6.58c0.105-0.803,0.235-1.602,0.349-2.404c0.223-1.568,0.448-3.136,0.704-4.698
		c0.152-0.93,0.327-1.856,0.491-2.785c0.251-1.429,0.506-2.856,0.785-4.279c0.191-0.975,0.401-1.945,0.605-2.915
		c0.288-1.373,0.581-2.745,0.896-4.112c0.226-0.985,0.464-1.966,0.704-2.948c0.328-1.349,0.666-2.695,1.019-4.036
		c0.257-0.981,0.524-1.958,0.794-2.934c0.373-1.342,0.759-2.677,1.155-4.011c0.285-0.958,0.574-1.917,0.871-2.872
		c0.423-1.353,0.862-2.699,1.31-4.044c0.308-0.923,0.612-1.846,0.932-2.766c0.482-1.387,0.987-2.766,1.495-4.143
		c0.318-0.862,0.629-1.726,0.958-2.584c0.568-1.479,1.163-2.948,1.762-4.417c0.303-0.742,0.593-1.489,0.904-2.229
		c0.748-1.781,1.529-3.548,2.325-5.31c0.186-0.414,0.361-0.834,0.55-1.248c1.007-2.196,2.049-4.377,3.127-6.54
		c0.173-0.349,0.361-0.691,0.537-1.04c0.822-1.63,1.662-3.25,2.526-4.86h8.423c1.571,0,2.955,1.012,3.439,2.497L88.452,214.255z
		 M311.395,49.989l-31.587,22.929c-0.139,0.093-0.275,0.188-0.41,0.285l-21.17,15.366c-0.793,0.574-1.6,0.695-2.137,0.695
		c-0.534,0-1.334-0.12-2.122-0.692l-53.151-38.563c-1.279-0.93-1.81-2.56-1.324-4.057l3.282-10.077
		c2.31-0.556,4.631-1.074,6.959-1.556c0.731-0.151,1.464-0.283,2.196-0.426c1.631-0.322,3.264-0.636,4.903-0.923
		c0.911-0.158,1.827-0.3,2.741-0.448c1.476-0.238,2.952-0.469,4.434-0.679c0.967-0.136,1.936-0.263,2.906-0.388
		c1.448-0.185,2.898-0.358,4.348-0.516c0.975-0.106,1.949-0.209,2.926-0.302c1.485-0.142,2.971-0.263,4.461-0.377
		c0.935-0.071,1.868-0.146,2.803-0.206c1.628-0.104,3.26-0.179,4.891-0.247c0.793-0.034,1.583-0.08,2.377-0.105
		c2.423-0.077,4.848-0.123,7.279-0.123c2.439,0,4.875,0.046,7.308,0.123c0.791,0.025,1.58,0.071,2.369,0.105
		c1.646,0.07,3.292,0.145,4.934,0.25c0.93,0.059,1.858,0.135,2.787,0.206c1.506,0.115,3.011,0.238,4.514,0.383
		c0.969,0.093,1.936,0.195,2.902,0.302c1.475,0.161,2.945,0.336,4.415,0.525c0.958,0.124,1.917,0.248,2.874,0.385
		c1.509,0.214,3.014,0.45,4.517,0.694c0.896,0.146,1.796,0.285,2.69,0.442c1.67,0.293,3.334,0.614,4.996,0.944
		c0.714,0.142,1.432,0.269,2.146,0.419c2.349,0.49,4.692,1.012,7.023,1.577l3.236,10.004c0.007,0.022,0.015,0.043,0.022,0.064
		l0.031,0.136c0.01,0.049,0.022,0.096,0.033,0.145C313.126,47.681,312.578,49.131,311.395,49.989z M478.227,256.965l-53.176-38.647
		c-1.273-0.929-1.806-2.551-1.316-4.057l20.263-62.519c0.49-1.506,1.874-2.516,3.443-2.516h8.237
		c0.72,1.344,1.417,2.701,2.109,4.057c0.331,0.649,0.677,1.29,1.001,1.942c1.069,2.151,2.106,4.314,3.105,6.496
		c0.192,0.419,0.367,0.845,0.556,1.266c0.797,1.77,1.584,3.545,2.335,5.334c0.342,0.814,0.658,1.636,0.99,2.452
		c0.572,1.41,1.146,2.816,1.689,4.236c0.355,0.926,0.686,1.862,1.028,2.793c0.487,1.322,0.973,2.645,1.435,3.976
		c0.342,0.987,0.663,1.98,0.991,2.971c0.426,1.288,0.852,2.577,1.256,3.874c0.318,1.024,0.62,2.051,0.923,3.079
		c0.377,1.278,0.751,2.557,1.106,3.843c0.288,1.044,0.564,2.091,0.837,3.139c0.334,1.281,0.661,2.565,0.973,3.852
		c0.256,1.058,0.503,2.117,0.744,3.179c0.293,1.291,0.575,2.584,0.845,3.881c0.222,1.062,0.439,2.125,0.645,3.192
		c0.254,1.309,0.493,2.622,0.723,3.936c0.186,1.059,0.371,2.118,0.543,3.18c0.214,1.334,0.41,2.673,0.601,4.011
		c0.149,1.049,0.303,2.097,0.438,3.149c0.176,1.371,0.328,2.747,0.479,4.122c0.112,1.024,0.234,2.046,0.331,3.072
		c0.139,1.444,0.249,2.892,0.359,4.34c0.074,0.96,0.16,1.92,0.222,2.881c0.104,1.614,0.172,3.232,0.241,4.848
		c0.034,0.8,0.086,1.599,0.111,2.401c0.077,2.421,0.121,4.845,0.121,7.273c0,0.334-0.004,0.661-0.004,0.995
		c-0.763,0.537-1.546,0.652-2.071,0.652C479.805,257.647,479.002,257.529,478.227,256.965z"/>
	<path style="fill:#B3404A;" d="M275.588,182.02c-5.709-4.138-12.452-6.325-19.499-6.325c-7.054,0-13.795,2.191-19.494,6.329
		l-53.189,38.595c-11.657,8.475-16.505,23.389-12.056,37.123l20.342,62.544c4.465,13.711,17.153,22.924,31.572,22.924h65.658
		c14.411,0,27.092-9.213,31.559-22.926l20.355-62.536c4.467-13.713-0.386-28.633-12.08-37.135L275.588,182.02z M312.709,248.591
		l-20.355,62.536c-0.487,1.497-1.867,2.503-3.43,2.503h-65.658c-1.574,0-2.958-1.006-3.443-2.497l-20.334-62.521
		c-0.488-1.506,0.041-3.14,1.303-4.057l53.183-38.591c0.781-0.566,1.581-0.686,2.115-0.686c0.538,0,1.346,0.121,2.13,0.689
		l53.152,38.579C312.655,245.479,313.192,247.103,312.709,248.591z"/>
</g>
</svg>