<svg xmlns="http://www.w3.org/2000/svg" width="512" height="512" viewBox="0 0 512 512">
<g>
<path d="M 511.00 305.46 C511.00,307.41 511.23,309.00 511.50,309.00 C511.77,309.00 512.00,239.48 512.00,154.50 L 512.00 512.00 L 511.90 421.75 C511.82,340.84 511.66,332.43 510.42,340.50 C504.66,377.80 483.13,411.86 451.93,433.05 C443.16,439.00 424.76,447.60 414.50,450.53 C376.83,461.30 334.10,455.17 303.16,434.56 C300.23,432.60 297.30,431.01 296.66,431.01 C296.02,431.02 293.48,432.18 291.00,433.60 C280.99,439.32 263.06,446.04 247.50,449.90 C218.08,457.19 181.45,457.17 152.50,449.86 C132.05,444.69 108.79,434.78 92.79,424.43 C50.21,396.89 19.55,355.19 7.11,307.90 C3.96,295.94 1.24,281.60 0.68,274.00 C0.68,273.94 0.67,273.92 0.67,273.92 C0.49,273.92 0.27,325.58 0.17,390.75 L 0.00 512.00 L 0.00 0.00 L 0.13 121.25 C0.21,192.19 0.61,239.23 1.10,234.62 C5.78,190.20 24.67,149.90 55.90,117.68 C87.45,85.12 123.29,66.24 168.51,58.33 C182.50,55.89 218.55,55.90 232.00,58.35 C266.80,64.70 295.29,77.14 322.50,97.86 C338.31,109.90 358.83,132.63 369.88,150.34 C374.34,157.49 383.89,176.39 385.77,181.76 C386.66,184.33 387.53,184.98 390.68,185.47 C417.29,189.54 432.18,194.98 451.44,207.68 C463.30,215.50 479.96,231.76 487.64,243.00 C500.14,261.30 511.00,290.33 511.00,305.46 ZM 364.85 442.97 C380.50,444.41 400.17,442.19 414.70,437.36 C425.45,433.79 440.76,425.80 449.88,419.00 C474.44,400.69 491.83,372.60 497.45,342.14 C499.42,331.50 499.46,309.90 497.53,298.84 C489.35,251.92 452.89,212.79 406.39,201.01 C396.45,198.49 376.52,196.65 368.00,197.47 C336.54,200.49 310.45,212.44 289.44,233.44 C256.36,266.52 245.01,314.18 259.55,358.97 C274.45,404.88 316.67,438.56 364.85,442.97 ZM 397.85 421.40 C375.25,426.06 353.18,423.41 332.30,413.53 C320.34,407.87 312.37,402.09 302.38,391.83 C288.94,378.03 280.89,363.63 275.89,344.43 C273.93,336.88 273.57,333.10 273.61,320.00 C273.65,306.59 274.01,303.20 276.24,294.88 C285.31,261.03 309.96,234.22 342.30,223.01 C391.89,205.83 446.07,228.27 469.05,275.50 C486.22,310.80 481.89,352.53 457.84,383.71 C443.71,402.02 420.20,416.80 397.85,421.40 ZM 359.00 409.54 C369.46,411.80 390.33,410.83 401.30,407.59 C417.45,402.80 429.45,395.44 441.61,382.86 C454.08,369.95 461.52,355.91 465.11,338.52 C474.25,294.23 448.28,248.91 405.50,234.50 C391.48,229.78 372.61,228.62 358.21,231.59 C324.55,238.52 297.80,263.79 288.42,297.50 C285.98,306.29 285.40,327.47 287.32,337.66 C294.06,373.41 322.19,401.61 359.00,409.54 ZM 151.59 331.14 C151.88,331.62 172.12,332.00 196.56,332.00 L 241.00 332.00 L 241.00 319.63 C241.00,299.11 245.49,279.58 254.42,261.26 C258.78,252.32 267.92,237.79 269.98,236.51 C272.25,235.11 270.58,233.12 261.75,226.75 C256.66,223.08 244.62,214.32 235.00,207.28 C225.38,200.25 213.57,191.65 208.76,188.19 L 200.02 181.88 L 162.21 209.39 C127.50,234.64 120.79,240.23 122.30,242.68 C122.60,243.16 129.19,263.07 136.95,286.92 C144.71,310.77 151.30,330.67 151.59,331.14 ZM 98.93 221.42 C107.50,225.00 114.84,227.84 115.25,227.72 C115.66,227.60 133.54,214.74 155.00,199.14 L 194.00 170.79 L 194.00 151.64 C194.00,134.49 193.82,132.36 192.25,131.36 C191.29,130.74 174.81,120.31 155.63,108.17 L 120.75 86.10 L 113.63 89.67 C105.41,93.79 92.34,102.12 84.74,108.08 C75.82,115.08 63.57,126.57 62.11,129.29 C60.83,131.68 61.63,135.22 72.04,173.40 L 83.37 214.90 ZM 242.63 197.35 C262.78,212.01 279.71,224.00 280.25,224.00 C280.79,224.00 283.99,221.44 287.37,218.32 C294.09,212.09 306.10,203.95 315.58,199.19 L 321.66 196.14 L 325.85 180.82 C328.14,172.39 332.03,158.30 334.49,149.50 C336.94,140.70 338.96,132.53 338.97,131.35 C338.99,129.94 336.34,126.71 331.25,121.95 C316.91,108.54 302.33,97.90 287.61,90.12 C280.60,86.41 279.50,86.09 277.61,87.28 C276.45,88.01 259.86,98.48 240.75,110.55 L 206.00 132.49 L 206.00 170.69 ZM 83.00 350.32 C104.18,351.64 121.67,352.78 121.88,352.86 C122.09,352.94 126.18,349.16 130.98,344.46 L 139.70 335.93 L 108.45 239.50 L 103.98 237.30 C101.51,236.09 94.92,233.24 89.32,230.97 L 79.13 226.83 L 67.32 237.08 C60.82,242.72 46.39,255.20 35.25,264.82 C18.52,279.26 15.00,282.76 15.02,284.90 C15.10,293.80 23.21,320.17 30.85,336.38 L 35.79 346.85 L 40.14 347.39 C42.54,347.69 61.83,349.01 83.00,350.32 ZM 175.07 441.41 C187.79,443.26 211.17,443.30 223.95,441.48 C229.70,440.66 234.73,439.66 235.12,439.25 C235.52,438.84 240.63,426.51 246.48,411.85 L 257.13 385.19 L 254.19 379.35 C250.34,371.68 246.69,361.36 244.45,351.75 L 242.63 344.00 L 149.46 344.00 L 141.20 352.30 L 132.93 360.61 L 148.56 399.55 C157.15,420.97 164.51,438.85 164.91,439.27 C165.31,439.69 169.88,440.66 175.07,441.41 ZM 351.78 373.46 C347.83,375.10 340.26,375.36 335.79,374.01 C327.52,371.52 321.66,363.09 321.61,353.61 C321.57,345.31 323.76,341.57 335.41,330.04 L 344.96 320.58 L 335.12 310.54 C323.25,298.44 321.57,295.56 321.61,287.44 C321.67,275.44 329.59,266.94 341.42,266.19 C351.16,265.57 353.92,266.96 365.93,278.57 L 376.63 288.91 L 386.07 279.35 C391.25,274.09 397.30,268.94 399.50,267.91 C404.32,265.66 413.70,265.41 418.28,267.40 C428.65,271.92 433.86,285.15 429.46,295.78 C428.60,297.86 423.43,304.02 417.77,309.71 L 407.61 319.92 L 417.85 330.44 C429.01,341.91 431.00,345.33 431.00,353.00 C431.00,361.82 426.59,369.08 418.79,373.09 C414.24,375.43 405.41,375.62 400.31,373.48 C398.31,372.65 392.01,367.38 386.32,361.77 L 375.96 351.58 L 365.73 361.75 C360.02,367.43 353.86,372.60 351.78,373.46 ZM 338.78 361.44 C344.83,364.73 347.32,363.34 361.98,348.57 C371.50,338.99 373.98,337.00 376.44,337.00 C378.90,337.00 381.56,339.13 391.96,349.42 C399.41,356.79 405.63,362.12 407.27,362.53 C413.63,364.13 420.14,357.67 418.55,351.36 C418.11,349.61 413.00,343.62 405.29,335.83 C395.57,326.01 392.75,322.56 392.75,320.50 C392.75,318.44 395.57,314.99 405.29,305.17 C412.75,297.63 418.12,291.37 418.53,289.73 C419.48,285.97 417.34,281.23 413.91,279.45 C407.99,276.39 406.61,277.14 392.50,291.00 C381.81,301.51 378.72,304.00 376.43,304.00 C374.13,304.00 371.10,301.53 360.46,291.00 C348.33,278.99 347.05,278.00 343.59,278.00 C338.39,278.00 334.00,282.37 334.00,287.56 C334.00,290.97 335.05,292.33 347.00,304.50 C357.35,315.03 360.00,318.30 360.00,320.50 C360.00,322.70 357.35,325.97 347.00,336.50 C335.80,347.90 334.00,350.17 334.00,352.93 C334.00,357.10 335.41,359.62 338.78,361.44 ZM 186.36 112.78 C194.17,117.74 200.01,120.83 200.92,120.48 C204.69,119.03 264.77,80.43 264.17,79.84 C262.94,78.62 246.21,73.93 236.11,71.97 C206.71,66.27 173.63,67.94 145.20,76.54 C140.41,77.99 136.20,79.47 135.82,79.84 C135.45,80.20 143.73,85.90 154.23,92.50 C164.73,99.10 179.19,108.23 186.36,112.78 ZM 13.25 249.00 C12.77,267.00 12.81,267.46 14.63,265.92 C18.85,262.36 47.29,237.91 58.00,228.62 C64.32,223.14 69.86,218.35 70.30,217.98 C70.98,217.40 51.62,144.29 50.50,143.16 C49.67,142.33 35.51,165.07 30.85,174.71 C19.40,198.45 13.99,221.24 13.25,249.00 ZM 136.84 432.09 C148.39,436.22 148.99,436.37 149.02,435.25 C149.03,434.84 142.86,418.98 135.30,400.00 C127.75,381.02 121.54,365.41 121.51,365.31 C121.38,364.93 45.50,360.25 45.11,360.60 C44.28,361.34 56.85,376.95 65.46,385.86 C85.78,406.90 109.68,422.38 136.84,432.09 ZM 336.45 189.12 C336.01,190.54 337.14,190.45 345.65,188.39 C350.98,187.10 359.32,185.75 364.17,185.38 C369.03,185.01 373.00,184.27 373.00,183.74 C373.00,180.17 350.81,141.85 349.51,143.17 C349.32,143.35 346.42,153.40 343.06,165.50 C339.70,177.60 336.72,188.23 336.45,189.12 ZM 251.00 435.00 C251.00,435.55 251.15,436.00 251.33,436.00 C254.29,436.00 286.00,423.31 286.00,422.12 C286.00,421.75 283.28,418.75 279.95,415.47 C276.62,412.19 272.05,407.12 269.79,404.21 C267.53,401.29 265.37,399.27 264.99,399.71 C264.07,400.76 251.00,433.72 251.00,435.00 Z" fill="rgb(9,9,9)"/>
<path d="M 0.17 390.75 C0.27,324.06 0.50,271.52 0.68,274.00 C1.24,281.60 3.96,295.94 7.11,307.90 C19.55,355.19 50.21,396.89 92.79,424.43 C108.79,434.78 132.05,444.69 152.50,449.86 C181.45,457.17 218.08,457.19 247.50,449.90 C263.06,446.04 280.99,439.32 291.00,433.60 C293.48,432.18 296.02,431.02 296.66,431.01 C297.30,431.01 300.23,432.60 303.16,434.56 C334.10,455.17 376.83,461.30 414.50,450.53 C424.76,447.60 443.16,439.00 451.93,433.05 C483.13,411.86 504.66,377.80 510.42,340.50 C511.66,332.43 511.82,340.84 511.90,421.75 L 512.00 512.00 L 256.00 512.00 L 0.00 512.00 L 0.17 390.75 ZM 364.85 442.97 C316.67,438.56 274.45,404.88 259.55,358.97 C245.01,314.18 256.36,266.52 289.44,233.44 C310.45,212.44 336.54,200.49 368.00,197.47 C376.52,196.65 396.45,198.49 406.39,201.01 C452.89,212.79 489.35,251.92 497.53,298.84 C499.46,309.90 499.42,331.50 497.45,342.14 C491.83,372.60 474.44,400.69 449.88,419.00 C440.76,425.80 425.45,433.79 414.70,437.36 C400.17,442.19 380.50,444.41 364.85,442.97 ZM 397.85 421.40 C420.20,416.80 443.71,402.02 457.84,383.71 C481.89,352.53 486.22,310.80 469.05,275.50 C446.07,228.27 391.89,205.83 342.30,223.01 C309.96,234.22 285.31,261.03 276.24,294.88 C274.01,303.20 273.65,306.59 273.61,320.00 C273.57,333.10 273.93,336.88 275.89,344.43 C280.89,363.63 288.94,378.03 302.38,391.83 C312.37,402.09 320.34,407.87 332.30,413.53 C353.18,423.41 375.25,426.06 397.85,421.40 ZM 175.07 441.41 C169.88,440.66 165.31,439.69 164.91,439.27 C164.51,438.85 157.15,420.97 148.56,399.55 L 132.93 360.61 L 141.20 352.30 L 149.46 344.00 L 196.05 344.00 L 242.63 344.00 L 244.45 351.75 C246.69,361.36 250.34,371.68 254.19,379.35 L 257.13 385.19 L 246.48 411.85 C240.63,426.51 235.52,438.84 235.12,439.25 C234.73,439.66 229.70,440.66 223.95,441.48 C211.17,443.30 187.79,443.26 175.07,441.41 ZM 136.84 432.09 C109.68,422.38 85.78,406.90 65.46,385.86 C56.85,376.95 44.28,361.34 45.11,360.60 C45.50,360.25 121.38,364.93 121.51,365.31 C121.54,365.41 127.75,381.02 135.30,400.00 C142.86,418.98 149.03,434.84 149.02,435.25 C148.99,436.37 148.39,436.22 136.84,432.09 ZM 251.00 435.00 C251.00,433.72 264.07,400.76 264.99,399.71 C265.37,399.27 267.53,401.29 269.79,404.21 C272.05,407.12 276.62,412.19 279.95,415.47 C283.28,418.75 286.00,421.75 286.00,422.12 C286.00,423.31 254.29,436.00 251.33,436.00 C251.15,436.00 251.00,435.55 251.00,435.00 ZM 83.00 350.32 C61.83,349.01 42.54,347.69 40.14,347.39 L 35.79 346.85 L 30.85 336.38 C23.21,320.17 15.10,293.80 15.02,284.90 C15.00,282.76 18.52,279.26 35.25,264.82 C46.39,255.20 60.82,242.72 67.32,237.08 L 79.13 226.83 L 89.32 230.97 C94.92,233.24 101.51,236.09 103.98,237.30 L 108.45 239.50 L 124.08 287.71 L 139.70 335.93 L 130.98 344.46 C126.18,349.16 122.09,352.94 121.88,352.86 C121.67,352.78 104.18,351.64 83.00,350.32 ZM 151.59 331.14 C151.30,330.67 144.71,310.77 136.95,286.92 C129.19,263.07 122.60,243.16 122.30,242.68 C120.79,240.23 127.50,234.64 162.21,209.39 L 200.02 181.88 L 208.76 188.19 C213.57,191.65 225.38,200.25 235.00,207.28 C244.62,214.32 256.66,223.08 261.75,226.75 C270.58,233.12 272.25,235.11 269.98,236.51 C267.92,237.79 258.78,252.32 254.42,261.26 C245.49,279.58 241.00,299.11 241.00,319.63 L 241.00 332.00 L 196.56 332.00 C172.12,332.00 151.88,331.62 151.59,331.14 ZM 511.00 305.46 C511.00,290.33 500.14,261.30 487.64,243.00 C479.96,231.76 463.30,215.50 451.44,207.68 C432.18,194.98 417.29,189.54 390.68,185.47 C387.53,184.98 386.66,184.33 385.77,181.76 C383.89,176.39 374.34,157.49 369.88,150.34 C358.83,132.63 338.31,109.90 322.50,97.86 C295.29,77.14 266.80,64.70 232.00,58.35 C218.55,55.90 182.50,55.89 168.51,58.33 C123.29,66.24 87.45,85.12 55.90,117.68 C24.67,149.90 5.78,190.20 1.10,234.62 C0.61,239.23 0.21,192.19 0.13,121.25 L 0.00 0.00 L 256.00 0.00 L 512.00 0.00 L 512.00 154.50 C512.00,239.48 511.77,309.00 511.50,309.00 C511.23,309.00 511.00,307.41 511.00,305.46 ZM 13.25 249.00 C13.99,221.24 19.40,198.45 30.85,174.71 C35.51,165.07 49.67,142.33 50.50,143.16 C51.62,144.29 70.98,217.40 70.30,217.98 C69.86,218.35 64.32,223.14 58.00,228.62 C47.29,237.91 18.85,262.36 14.63,265.92 C12.81,267.46 12.77,267.00 13.25,249.00 ZM 98.93 221.42 L 83.37 214.90 L 72.04 173.40 C61.63,135.22 60.83,131.68 62.11,129.29 C63.57,126.57 75.82,115.08 84.74,108.08 C92.34,102.12 105.41,93.79 113.63,89.67 L 120.75 86.10 L 155.63 108.17 C174.81,120.31 191.29,130.74 192.25,131.36 C193.82,132.36 194.00,134.49 194.00,151.64 L 194.00 170.79 L 155.00 199.14 C133.54,214.74 115.66,227.60 115.25,227.72 C114.84,227.84 107.50,225.00 98.93,221.42 ZM 242.63 197.35 L 206.00 170.69 L 206.00 151.59 L 206.00 132.49 L 240.75 110.55 C259.86,98.48 276.45,88.01 277.61,87.28 C279.50,86.09 280.60,86.41 287.61,90.12 C302.33,97.90 316.91,108.54 331.25,121.95 C336.34,126.71 338.99,129.94 338.97,131.35 C338.96,132.53 336.94,140.70 334.49,149.50 C332.03,158.30 328.14,172.39 325.85,180.82 L 321.66 196.14 L 315.58 199.19 C306.10,203.95 294.09,212.09 287.37,218.32 C283.99,221.44 280.79,224.00 280.25,224.00 C279.71,224.00 262.78,212.01 242.63,197.35 ZM 336.45 189.12 C336.72,188.23 339.70,177.60 343.06,165.50 C346.42,153.40 349.32,143.35 349.51,143.17 C350.81,141.85 373.00,180.17 373.00,183.74 C373.00,184.27 369.03,185.01 364.17,185.38 C359.32,185.75 350.98,187.10 345.65,188.39 C337.14,190.45 336.01,190.54 336.45,189.12 ZM 186.36 112.78 C179.19,108.23 164.73,99.10 154.23,92.50 C143.73,85.90 135.45,80.20 135.82,79.84 C136.20,79.47 140.41,77.99 145.20,76.54 C173.63,67.94 206.71,66.27 236.11,71.97 C246.21,73.93 262.94,78.62 264.17,79.84 C264.77,80.43 204.69,119.03 200.92,120.48 C200.01,120.83 194.17,117.74 186.36,112.78 ZM 359.00 409.54 C322.19,401.61 294.06,373.41 287.32,337.66 C285.40,327.47 285.98,306.29 288.42,297.50 C297.80,263.79 324.55,238.52 358.21,231.59 C372.61,228.62 391.48,229.78 405.50,234.50 C448.28,248.91 474.25,294.23 465.11,338.52 C461.52,355.91 454.08,369.95 441.61,382.86 C429.45,395.44 417.45,402.80 401.30,407.59 C390.33,410.83 369.46,411.80 359.00,409.54 ZM 351.78 373.46 C353.86,372.60 360.02,367.43 365.73,361.75 L 375.96 351.58 L 386.32 361.77 C392.01,367.38 398.31,372.65 400.31,373.48 C405.41,375.62 414.24,375.43 418.79,373.09 C426.59,369.08 431.00,361.82 431.00,353.00 C431.00,345.33 429.01,341.91 417.85,330.44 L 407.61 319.92 L 417.77 309.71 C423.43,304.02 428.60,297.86 429.46,295.78 C433.86,285.15 428.65,271.92 418.28,267.40 C413.70,265.41 404.32,265.66 399.50,267.91 C397.30,268.94 391.25,274.09 386.07,279.35 L 376.63 288.91 L 365.93 278.57 C353.92,266.96 351.16,265.57 341.42,266.19 C329.59,266.94 321.67,275.44 321.61,287.44 C321.57,295.56 323.25,298.44 335.12,310.54 L 344.96 320.58 L 335.41 330.04 C323.76,341.57 321.57,345.31 321.61,353.61 C321.66,363.09 327.52,371.52 335.79,374.01 C340.26,375.36 347.83,375.10 351.78,373.46 ZM 338.78 361.44 C335.41,359.62 334.00,357.10 334.00,352.93 C334.00,350.17 335.80,347.90 347.00,336.50 C357.35,325.97 360.00,322.70 360.00,320.50 C360.00,318.30 357.35,315.03 347.00,304.50 C335.05,292.33 334.00,290.97 334.00,287.56 C334.00,282.37 338.39,278.00 343.59,278.00 C347.05,278.00 348.33,278.99 360.46,291.00 C371.10,301.53 374.13,304.00 376.43,304.00 C378.72,304.00 381.81,301.51 392.50,291.00 C406.61,277.14 407.99,276.39 413.91,279.45 C417.34,281.23 419.48,285.97 418.53,289.73 C418.12,291.37 412.75,297.63 405.29,305.17 C395.57,314.99 392.75,318.44 392.75,320.50 C392.75,322.56 395.57,326.01 405.29,335.83 C413.00,343.62 418.11,349.61 418.55,351.36 C420.14,357.67 413.63,364.13 407.27,362.53 C405.63,362.12 399.41,356.79 391.96,349.42 C381.56,339.13 378.90,337.00 376.44,337.00 C373.98,337.00 371.50,338.99 361.98,348.57 C347.32,363.34 344.83,364.73 338.78,361.44 Z" fill="rgb(253,253,253)"/>
</g>
</svg>