<?xml version="1.0" encoding="UTF-8"?>
<svg version="1.1" xmlns="http://www.w3.org/2000/svg" width="1254" height="1254">
<path d="M0 0 C0.99 0.66 1.98 1.32 3 2 C3 2.66 3 3.32 3 4 C3.8353125 4.3403125 3.8353125 4.3403125 4.6875 4.6875 C7.66159588 6.37550036 9.72008865 8.46676517 12 11 C12 11.66 12 12.32 12 13 C13.98 13.99 13.98 13.99 16 15 C16 15.66 16 16.32 16 17 C16.639375 17.268125 17.27875 17.53625 17.9375 17.8125 C20 19 20 19 21 22 C23.00016466 23.20882096 23.00016466 23.20882096 25 24 C25 24.66 25 25.32 25 26 C25.5887793 26.26425781 26.17755859 26.52851563 26.78417969 26.80078125 C29.08072584 28.04368944 30.60833166 29.35006481 32.453125 31.1875 C33.071875 31.80367187 33.690625 32.41984375 34.328125 33.0546875 C34.96234375 33.69664062 35.5965625 34.33859375 36.25 35 C36.8996875 35.64195312 37.549375 36.28390625 38.21875 36.9453125 C38.83234375 37.56148437 39.4459375 38.17765625 40.078125 38.8125 C40.63918945 39.37582031 41.20025391 39.93914062 41.77832031 40.51953125 C43 42 43 42 43 44 C43.58320007 44.25755569 44.16640015 44.51511139 44.76727295 44.7804718 C47.19379435 46.10585158 48.78275928 47.54839298 50.72363281 49.51245117 C51.43827698 50.23047409 52.15292114 50.94849701 52.88922119 51.6882782 C53.65280945 52.46532608 54.41639771 53.24237396 55.203125 54.04296875 C55.99974548 54.8447908 56.79636597 55.64661285 57.61712646 56.47273254 C60.1662075 59.03962418 62.7085286 61.61307558 65.25 64.1875 C67.77799819 66.74324392 70.30747833 69.2974739 72.84002686 71.84870911 C74.41452445 73.4353202 75.98634314 75.02459594 77.55499268 76.61698914 C81.6632701 80.76215993 85.85432046 84.7143007 90.31292725 88.48188782 C92.8251486 90.74250985 94.83880462 93.40656555 97 96 C98.29517178 97.16538421 99.6091722 98.31005353 100.9375 99.4375 C104.13510832 102.15696128 106.77659122 105.00990811 109.43359375 108.24609375 C111.76946901 110.86157503 114.44239811 113.03688983 117.11328125 115.30078125 C118.84579476 116.86111951 120.29356953 118.43506357 121.75 120.25 C123.71947637 122.65713779 125.53487186 124.17397916 128 126 C128 126.66 128 127.32 128 128 C128.8353125 128.3403125 128.8353125 128.3403125 129.6875 128.6875 C132.66159588 130.37550036 134.72008865 132.46676517 137 135 C137 135.66 137 136.32 137 137 C137.8353125 137.3403125 137.8353125 137.3403125 138.6875 137.6875 C141.66159588 139.37550036 143.72008865 141.46676517 146 144 C146 144.66 146 145.32 146 146 C147.32 146.66 148.64 147.32 150 148 C150 148.66 150 149.32 150 150 C150.9590625 150.4021875 150.9590625 150.4021875 151.9375 150.8125 C154 152 154 152 155 155 C157.00016466 156.20882096 157.00016466 156.20882096 159 157 C159 157.66 159 158.32 159 159 C159.9590625 159.4021875 159.9590625 159.4021875 160.9375 159.8125 C163 161 163 161 164 164 C166.00016466 165.20882096 166.00016466 165.20882096 168 166 C168 166.66 168 167.32 168 168 C168.9590625 168.4021875 168.9590625 168.4021875 169.9375 168.8125 C172 170 172 170 173 173 C175.00016466 174.20882096 175.00016466 174.20882096 177 175 C177 175.66 177 176.32 177 177 C177.56393967 177.23829529 178.12787933 177.47659058 178.70890808 177.72210693 C181.50681367 179.28268341 183.40140405 181.16932127 185.6574707 183.44628906 C186.57555008 184.36774719 187.49362946 185.28920532 188.43952942 186.23858643 C189.43497342 187.24757292 190.43039 188.25658646 191.42578125 189.265625 C192.4565335 190.30265452 193.48780718 191.33916601 194.51957703 192.37518311 C197.23534261 195.10424195 199.94549279 197.83880371 202.65405273 200.57501221 C206.97682157 204.94089419 211.30620538 209.30018788 215.63905907 213.65605927 C217.14304327 215.17016666 218.64350645 216.68769725 220.14363098 218.20562744 C224.9380251 223.03377958 229.77248716 227.64553569 235 232 C239.59143517 236.72261903 242.73221792 242.92722137 243.16796875 249.5546875 C242.72776679 256.12700513 241.00588285 262.85845973 236.35546875 267.71875 C235.22447629 268.68465206 234.0677658 269.62191156 232.87890625 270.515625 C230.37572794 272.49318791 228.2334205 274.71965891 226 277 C223.27585233 279.77581561 220.54523576 282.54514135 217.8125 285.3125 C217.08869141 286.05306641 216.36488281 286.79363281 215.61914062 287.55664062 C214.92626953 288.25595703 214.23339844 288.95527344 213.51953125 289.67578125 C212.57750854 290.6335144 212.57750854 290.6335144 211.61645508 291.6105957 C210 293 210 293 208 293 C207.79375 293.556875 207.5875 294.11375 207.375 294.6875 C205.48870368 297.85990745 202.84515195 299.67742698 200 302 C198.99426222 303.32901064 197.99204592 304.66073801 197 306 C196.34 306 195.68 306 195 306 C194.773125 306.556875 194.54625 307.11375 194.3125 307.6875 C192.62449964 310.66159588 190.53323483 312.72008865 188 315 C187.34 315 186.68 315 186 315 C185.79375 315.556875 185.5875 316.11375 185.375 316.6875 C183.85246598 319.2481254 182.02092527 320.69116939 179.703125 322.51953125 C177.7833263 324.18834709 176.20466001 325.99575674 174.5625 327.9375 C171.82375745 331.15884036 168.94259424 333.825574 165.68359375 336.50390625 C163.37040836 338.55947471 161.49601803 340.89844622 159.53125 343.28125 C157.96289901 345.04164397 156.31771111 346.50118557 154.5 348 C152.08474478 349.99245343 150.05029883 352.01874207 148.0625 354.4375 C145.88975904 357.07375903 143.60552306 359.29000226 141 361.5 C138.41666228 363.69192291 136.15011069 365.88247394 134 368.5 C132.00941983 370.92320065 129.95822799 372.96845576 127.55419922 374.97875977 C122.37165573 379.45931156 117.58463697 384.31837992 112.770298 389.18510246 C111.10007402 390.87292723 109.42614993 392.55700307 107.75119019 394.24012756 C102.99580319 399.01980615 98.24633137 403.80533252 93.50097656 408.5949707 C90.58470181 411.53794647 87.66363916 414.47609796 84.73952866 417.41128731 C83.62841772 418.52861559 82.51920908 419.64783889 81.41193008 420.76896477 C79.87301403 422.32698708 78.32813711 423.87885305 76.78173828 425.42944336 C75.90429962 426.31433945 75.02686096 427.19923553 74.12283325 428.11094666 C72 430 72 430 70 430 C69.773125 430.556875 69.54625 431.11375 69.3125 431.6875 C67.62449964 434.66159588 65.53323483 436.72008865 63 439 C62.34 439 61.68 439 61 439 C60.34 440.32 59.68 441.64 59 443 C58.34 443 57.68 443 57 443 C56.731875 443.639375 56.46375 444.27875 56.1875 444.9375 C55 447 55 447 52 448 C51.731875 448.5775 51.46375 449.155 51.1875 449.75 C49.81640611 452.3478621 48.04024793 453.78136419 45.73046875 455.55859375 C41.11751898 459.40098306 37.0494309 463.97927456 32.84501648 468.25758362 C29.51294778 471.64323618 26.17023518 475.01829487 22.8269043 478.39282227 C21.0690576 480.17083111 19.31481136 481.95240688 17.56420898 483.73754883 C15.02495473 486.32549261 12.4728483 488.9001483 9.91796875 491.47265625 C9.14374069 492.26752945 8.36951263 493.06240265 7.57182312 493.88136292 C2.24239678 499.2129533 -2.67205625 503.31238277 -10.34375 504.53125 C-18.15323925 504.45392832 -23.98012092 503.87599079 -29.74609375 498.31640625 C-33.60048864 494.01834001 -36.23715131 490.34164487 -36.2784729 484.41888428 C-36.29521812 483.04754333 -36.29521812 483.04754333 -36.31230164 481.64849854 C-36.31446182 480.65299988 -36.31662201 479.65750122 -36.31884766 478.63183594 C-36.32889328 477.57786621 -36.3389389 476.52389648 -36.34928894 475.43798828 C-36.38018535 471.95345608 -36.39717422 468.46900094 -36.4140625 464.984375 C-36.43276893 462.56869847 -36.45234194 460.1530285 -36.4727478 457.73736572 C-36.52413035 451.37849801 -36.56372342 445.0196091 -36.60089111 438.66064453 C-36.64089231 432.17214691 -36.69200238 425.68373793 -36.7421875 419.1953125 C-36.83901933 406.46360501 -36.92377815 393.7318467 -37 381 C-37.81356417 380.99940291 -38.62712835 380.99880582 -39.46534598 380.99819064 C-87.706812 380.96227994 -135.94821571 380.9056152 -184.18962399 380.82207905 C-189.98481418 380.81206185 -195.78000465 380.80221768 -201.57519531 380.79248047 C-202.72889088 380.7905391 -203.88258645 380.78859772 -205.0712425 380.78659752 C-223.74034338 380.75559463 -242.40943198 380.73860164 -261.07855375 380.72680578 C-280.24140665 380.71438536 -299.40419517 380.68686382 -318.56700742 380.64538693 C-330.38706656 380.6202771 -342.20701889 380.60688089 -354.02710508 380.60857043 C-362.13768368 380.60860023 -370.24815366 380.59393315 -378.35868992 380.56783572 C-383.03480754 380.55321934 -387.71070242 380.54496144 -392.38683891 380.55419731 C-396.67578895 380.56252477 -400.96429276 380.55221908 -405.25317685 380.52766338 C-406.79714748 380.52201069 -408.34116085 380.52294677 -409.8851182 380.53148755 C-425.51819905 380.61049286 -438.40084583 377.99682421 -450 367 C-454.75745038 361.52300642 -457.8572979 355.90426233 -460 349 C-460.18530651 348.42866364 -460.37061302 347.85732729 -460.56153488 347.26867771 C-461.21565968 343.8841477 -461.14440231 340.50989609 -461.14044189 337.07615662 C-461.14341302 336.27195677 -461.14638414 335.46775693 -461.1494453 334.6391874 C-461.15812551 331.94100699 -461.15963999 329.242871 -461.16113281 326.54467773 C-461.16576158 324.61122035 -461.17078632 322.67776388 -461.17617798 320.74430847 C-461.18930109 315.48777639 -461.19574715 310.23125708 -461.20018864 304.97471118 C-461.20312042 301.68873151 -461.2072255 298.40275533 -461.21169281 295.11677742 C-461.22536952 284.83049201 -461.23503447 274.54421456 -461.2388947 264.25792068 C-461.24337148 252.39438421 -461.26090104 240.53096319 -461.2898953 228.66746181 C-461.3115394 219.49191123 -461.32160049 210.31639306 -461.32293582 201.14081722 C-461.32398219 195.66368711 -461.32985386 190.18666548 -461.34775543 184.7095623 C-461.36428254 179.552483 -461.3663691 174.39559319 -461.35761642 169.23849678 C-461.35684845 167.35157894 -461.36115703 165.46465072 -461.37107468 163.57775879 C-461.44797677 148.0273385 -460.40677953 135.64703127 -449.01171875 123.9609375 C-436.68657915 112.71275184 -422.92319183 111.54499966 -406.78263855 111.60127258 C-405.17924109 111.59582253 -403.57584765 111.5890666 -401.97246057 111.58113068 C-397.60077705 111.56321851 -393.22926438 111.56364844 -388.85755289 111.56726015 C-384.13037498 111.56788681 -379.40325302 111.55123772 -374.67610168 111.53674316 C-366.49735785 111.5140033 -358.31865649 111.50208003 -350.13988304 111.49761391 C-338.31492647 111.49114094 -326.4900465 111.46818338 -314.66512088 111.44127061 C-295.47752302 111.39804548 -276.2899284 111.36805433 -257.10229492 111.34643555 C-238.46914074 111.32541304 -219.836013 111.29812684 -201.20288086 111.26245117 C-200.05331597 111.26025235 -198.90375108 111.25805352 -197.7193509 111.25578807 C-191.95201744 111.2447181 -186.18468423 111.23352535 -180.41735113 111.22227156 C-132.61159081 111.12914699 -84.80581551 111.05752098 -37 111 C-37.00079559 109.77970596 -37.00159119 108.55941193 -37.00241089 107.30213928 C-37.00601876 95.78200287 -36.97814227 84.26231182 -36.9197216 72.74231815 C-36.89069343 66.82021169 -36.87262148 60.89850033 -36.87988281 54.97631836 C-36.88648717 49.25720308 -36.86392691 43.53886777 -36.82144547 37.81991386 C-36.81033412 35.64195979 -36.8095962 33.46392643 -36.81957626 31.28596687 C-36.83179542 28.22632756 -36.80658284 25.16905206 -36.77294922 22.10961914 C-36.78517014 21.21625351 -36.79739105 20.32288788 -36.8099823 19.40245056 C-36.65268343 11.42170792 -33.1828335 6.1828335 -27.625 0.625 C-17.96233444 -5.35665011 -10.11804214 -4.84675445 0 0 Z " fill="#2DAD50" transform="translate(908,161)"/>
<path d="M0 0 C4.64952166 2.64070195 7.44093429 6.82452088 9.75 11.5625 C11.01838936 16.23510667 10.88379762 20.86518734 10.86352539 25.66723633 C10.86367142 26.57504852 10.86381744 27.48286072 10.8639679 28.41818237 C10.86327281 31.41032321 10.85549931 34.40240132 10.84765625 37.39453125 C10.84579064 39.47246771 10.84436741 41.55040462 10.84336853 43.62834167 C10.83955465 49.09127013 10.82973399 54.55417191 10.81866455 60.01708984 C10.80842616 65.59407185 10.80386571 71.17105818 10.79882812 76.74804688 C10.78811072 87.68620963 10.77104784 98.62435259 10.75 109.5625 C11.55548001 109.56098112 12.36096003 109.55946224 13.19084853 109.55789733 C60.94786635 109.46835249 108.70487525 109.39973732 156.46196024 109.35823868 C162.19835449 109.35323596 167.93474858 109.34805866 173.67114258 109.34277344 C174.813138 109.3417242 175.95513342 109.34067495 177.13173477 109.33959392 C195.61401129 109.32219664 214.09623795 109.29066265 232.57848492 109.25388882 C251.54806275 109.2164606 270.5176145 109.19426016 289.48722774 109.18614602 C301.18909319 109.18066217 312.89081772 109.16335222 324.59263978 109.13083413 C332.62094616 109.10966305 340.64917987 109.10330584 348.67751213 109.10849449 C353.3069534 109.11105222 357.93614869 109.10717762 362.56554604 109.0856781 C366.81060974 109.0661082 371.05526376 109.06529713 375.30034695 109.07890442 C376.82951316 109.08058436 378.35870572 109.07559885 379.88782068 109.06296727 C393.23819181 108.95916869 405.14848026 110.96048104 415.75 119.5625 C416.37519531 120.06394531 417.00039063 120.56539062 417.64453125 121.08203125 C424.87633668 127.55756945 429.28409622 136.86921875 429.95532227 146.51220703 C430.17773405 153.13567871 430.17773405 153.13567871 430.25268555 155.68896484 C430.30922344 157.57802264 430.37597756 159.46676666 430.44335938 161.35546875 C430.75647136 171.44463284 430.77677894 181.53111858 430.76855469 191.62426758 C430.76785644 193.178881 430.76716905 194.73349444 430.76649189 196.28810787 C430.75248864 219.8249647 430.64902768 243.36142974 430.51428509 266.89787388 C430.46900779 274.85548738 430.42954366 282.81304995 430.40356445 290.77075195 C430.38054432 297.82009397 430.34716853 304.8692972 430.30129844 311.91852897 C430.2775534 315.61835496 430.25869918 319.318046 430.25238609 323.01794624 C430.24518483 327.11706445 430.21472627 331.21570036 430.18237305 335.31469727 C430.18380814 336.51415985 430.18524323 337.71362244 430.1867218 338.94943237 C430.0399699 352.10895237 426.44095997 361.72907656 417.375 371.3125 C406.37896121 381.70700494 394.54056923 383.01274125 379.93136597 382.92326355 C378.33468571 382.9245734 376.73800609 382.92720311 375.14132988 382.93103105 C370.77423396 382.93771279 366.40736036 382.92577533 362.04029274 382.91069686 C357.32331498 382.89770728 352.60634914 382.90212803 347.88935852 382.90440369 C339.72363199 382.90597458 331.55797754 382.89658465 323.39226913 382.87969017 C311.58612543 382.85527973 299.78001647 382.8474928 287.97385027 382.8437262 C268.81783356 382.83716493 249.66185524 382.81721255 230.50585938 382.78881836 C211.9007181 382.76126941 193.29558725 382.74003991 174.69042969 382.72729492 C172.96938059 382.72611267 172.96938059 382.72611267 171.21356283 382.72490653 C165.45740181 382.72099133 159.70124071 382.71720023 153.94507957 382.71347082 C106.21335985 382.682385 58.4816818 382.62955802 10.75 382.5625 C10.75999275 384.18955872 10.75999275 384.18955872 10.77018738 385.8494873 C10.83109545 396.08939985 10.87601918 406.32927547 10.90543652 416.56932831 C10.92106886 421.83340526 10.94226277 427.09733556 10.97631836 432.36132812 C11.00899844 437.44472183 11.0268713 442.52797477 11.03463173 447.61146545 C11.04015972 449.54747227 11.05095449 451.4834717 11.06719017 453.41941833 C11.08907941 456.1385034 11.09196213 458.85701239 11.09057617 461.57617188 C11.10675491 462.76732605 11.10675491 462.76732605 11.1232605 463.98254395 C11.08667206 470.64941251 9.78565665 476.15185397 5.375 481.375 C0.1805826 485.70368117 -4.37536004 488.02482959 -11.25 487.5625 C-18.47414131 485.97660528 -22.79427719 482.87738997 -27.88110352 477.64428711 C-28.58467484 476.94480453 -29.28824615 476.24532196 -30.01313782 475.52464294 C-32.31649356 473.22726537 -34.59773631 470.90923474 -36.87890625 468.58984375 C-38.47913143 466.98349905 -40.08054456 465.37833698 -41.68309021 463.77430725 C-45.02819829 460.42001818 -48.36327169 457.05617862 -51.69067383 453.68432617 C-55.9644512 449.35375713 -60.25560653 445.04094497 -64.55340672 440.73422909 C-67.85455036 437.42479355 -71.14999271 434.10973386 -74.44334221 430.79254341 C-76.02493072 429.19953443 -77.60747698 427.60747577 -79.19098091 426.01637077 C-81.39379536 423.79987785 -83.58967787 421.57675932 -85.78344727 419.35131836 C-86.44256104 418.68996887 -87.1016748 418.02861938 -87.78076172 417.347229 C-92.25 412.79189271 -92.25 412.79189271 -92.25 410.5625 C-92.806875 410.35625 -93.36375 410.15 -93.9375 409.9375 C-96.4954348 408.41656579 -97.93721183 406.58717021 -99.765625 404.2734375 C-102.04147445 401.65022155 -104.67894829 399.48885487 -107.3125 397.234375 C-109.77215842 395.11192782 -112.05710123 392.96098303 -114.25 390.5625 C-114.25 389.9025 -114.25 389.2425 -114.25 388.5625 C-114.806875 388.35625 -115.36375 388.15 -115.9375 387.9375 C-118.4981254 386.41496598 -119.94116939 384.58342527 -121.76953125 382.265625 C-123.43834709 380.3458263 -125.24575674 378.76716001 -127.1875 377.125 C-130.38510832 374.40553872 -133.02659122 371.55259189 -135.68359375 368.31640625 C-138.02424124 365.6955815 -140.70408332 363.51640659 -143.37890625 361.24609375 C-145.95954594 358.92405678 -148.0295944 356.22698672 -150.25 353.5625 C-151.54517178 352.39711579 -152.8591722 351.25244647 -154.1875 350.125 C-157.40884036 347.38625745 -160.075574 344.50509424 -162.75390625 341.24609375 C-164.80947471 338.93290836 -167.14844622 337.05851803 -169.53125 335.09375 C-171.85531068 333.02322322 -173.74249263 330.67798766 -175.71875 328.28125 C-177.28710099 326.52085603 -178.93228889 325.06131443 -180.75 323.5625 C-183.16525522 321.57004657 -185.19970117 319.54375793 -187.1875 317.125 C-189.36024096 314.48874097 -191.64447694 312.27249774 -194.25 310.0625 C-197.45330749 307.3454631 -200.09618578 304.47930107 -202.7578125 301.2421875 C-204.29261047 299.51453534 -205.90377602 298.09161749 -207.6875 296.625 C-211.04654522 293.85785702 -213.75586082 290.74490451 -216.56640625 287.43359375 C-218.36306898 285.3472351 -218.36306898 285.3472351 -221.25 283.0625 C-224.35710877 280.47324269 -226.84662602 277.7113573 -229.44140625 274.625 C-232.46188235 271.18048297 -235.75477888 268.03306281 -239.07421875 264.87890625 C-240.01910156 263.97011719 -240.96398437 263.06132813 -241.9375 262.125 C-242.89011719 261.21878906 -243.84273437 260.31257813 -244.82421875 259.37890625 C-248.60638185 254.98769917 -249.53766271 250.82929671 -249.5625 245.125 C-249.57925781 244.23941406 -249.59601563 243.35382813 -249.61328125 242.44140625 C-248.65034675 234.8104092 -244.89416452 230.69156081 -239.5 225.625 C-238.22215258 224.38858229 -236.94608738 223.15031979 -235.671875 221.91015625 C-235.06923828 221.32637207 -234.46660156 220.74258789 -233.84570312 220.14111328 C-232.04498474 218.35968044 -230.3767171 216.50365984 -228.75 214.5625 C-224.90698504 210.01362515 -220.62387262 205.9058425 -216.38964844 201.72607422 C-212.54692922 197.91546398 -208.89830108 194.02612865 -205.484375 189.8203125 C-205.07703125 189.40523437 -204.6696875 188.99015625 -204.25 188.5625 C-203.59 188.5625 -202.93 188.5625 -202.25 188.5625 C-202.023125 188.005625 -201.79625 187.44875 -201.5625 186.875 C-199.87449964 183.90090412 -197.78323483 181.84241135 -195.25 179.5625 C-194.59 179.5625 -193.93 179.5625 -193.25 179.5625 C-193.00991211 178.99571533 -192.76982422 178.42893066 -192.52246094 177.8449707 C-190.98713622 175.09098936 -189.1442667 173.24852847 -186.890625 171.04296875 C-186.02179688 170.18509766 -185.15296875 169.32722656 -184.2578125 168.44335938 C-183.34773438 167.55455078 -182.43765625 166.66574219 -181.5 165.75 C-175.8344514 160.1946602 -170.3221382 154.66785154 -165.25 148.5625 C-163.64078889 146.79417334 -162.01662413 145.18190546 -160.25 143.5625 C-159.59 143.5625 -158.93 143.5625 -158.25 143.5625 C-157.59 142.2425 -156.93 140.9225 -156.25 139.5625 C-155.59 139.5625 -154.93 139.5625 -154.25 139.5625 C-154.0324707 139.01827393 -153.81494141 138.47404785 -153.59082031 137.91333008 C-151.79949742 134.77264396 -149.36462603 132.45021105 -146.796875 129.94921875 C-146.25903381 129.41657913 -145.72119263 128.88393951 -145.16705322 128.3351593 C-143.4494001 126.63526826 -141.72522396 124.94220417 -140 123.25 C-137.74140784 121.02814591 -135.48611269 118.80301924 -133.234375 116.57421875 C-132.69708267 116.04287827 -132.15979034 115.51153778 -131.60621643 114.96409607 C-127.94046606 111.31446992 -124.56202936 107.53043042 -121.25 103.5625 C-120.280625 102.758125 -119.31125 101.95375 -118.3125 101.125 C-115.89349721 99.10093644 -114.07709826 97.28746334 -112.06640625 94.91015625 C-108.28649289 90.5377831 -104.24880719 86.48335243 -100.125 82.4375 C-94.58852891 77.03747381 -94.58852891 77.03747381 -89.46875 71.25 C-87.67759572 69.08043285 -86.06650492 67.40863314 -83.875 65.6875 C-81.3745232 63.62404971 -79.24516632 61.48916102 -77.16113281 59.00878906 C-72.70531971 53.85303305 -67.88504087 49.09125368 -63.046875 44.296875 C-62.07728012 43.33169738 -61.10798642 42.36621711 -60.13897705 41.40045166 C-57.09548834 38.36827591 -54.04803849 35.34010122 -51 32.3125 C-47.45017355 28.78635578 -43.90203371 25.25854681 -40.35807037 21.72650909 C-38.94704732 20.32193232 -37.53296795 18.92042805 -36.11883545 17.51898193 C-35.2607428 16.6641925 -34.40265015 15.80940308 -33.51855469 14.92871094 C-32.76467468 14.18006775 -32.01079468 13.43142456 -31.23406982 12.66009521 C-29.21065533 10.61309607 -29.21065533 10.61309607 -27.60821533 8.28961182 C-27.16000427 7.71966492 -26.71179321 7.14971802 -26.25 6.5625 C-25.59 6.5625 -24.93 6.5625 -24.25 6.5625 C-23.86328125 5.64210938 -23.86328125 5.64210938 -23.46875 4.703125 C-19.01598834 -3.11775125 -7.39205608 -3.06121407 0 0 Z " fill="#E81F30" transform="translate(376.25,603.4375)"/>
<path d="M0 0 C1.51164561 0.00306797 3.02329408 0.00493618 4.53494263 0.00567627 C7.67640297 0.01023845 10.8176011 0.02451017 13.95898438 0.046875 C17.97002792 0.07530109 21.98086772 0.08610642 25.99200249 0.0905571 C29.84886069 0.09572478 33.70566884 0.11023599 37.5625 0.125 C38.65102076 0.12782108 38.65102076 0.12782108 39.76153183 0.13069916 C41.82790573 0.13762652 43.89412558 0.15128476 45.96044922 0.16699219 C47.13147186 0.17382019 48.30249451 0.18064819 49.50900269 0.18768311 C53.02300565 0.33396083 56.41170032 0.77370573 59.8828125 1.328125 C59.5528125 2.318125 59.2228125 3.308125 58.8828125 4.328125 C57.25122192 4.32268677 57.25122192 4.32268677 55.58666992 4.31713867 C41.80332157 4.28623451 28.02151753 4.37932815 14.23938179 4.56384468 C10.85890938 4.60889793 7.47857475 4.64820012 4.09790039 4.67456055 C0.12621096 4.70570103 -3.84498719 4.76034141 -7.81640625 4.81640625 C-9.01964035 4.82279617 -10.22287445 4.8291861 -11.46257019 4.83576965 C-23.69286818 5.04887354 -33.00453799 8.35363073 -41.9921875 16.765625 C-44.81961166 19.70253939 -46.22939242 22.28372521 -47.1171875 26.328125 C-47.7771875 26.328125 -48.4371875 26.328125 -49.1171875 26.328125 C-49.2615625 27.42125 -49.4059375 28.514375 -49.5546875 29.640625 C-50.1171875 33.328125 -50.1171875 33.328125 -51.1171875 36.328125 C-51.2108787 38.97558589 -51.24751493 41.59631088 -51.23744202 44.24369812 C-51.23829644 45.05888831 -51.23915087 45.87407851 -51.24003118 46.71397144 C-51.24168273 49.45476284 -51.23616989 52.1954935 -51.23071289 54.9362793 C-51.23043092 56.89728799 -51.23058894 58.85829679 -51.2311554 60.81930542 C-51.231443 66.15161154 -51.22555227 71.48389529 -51.21858144 76.8161962 C-51.21234171 82.38558575 -51.21174361 87.95497578 -51.21055603 93.52436829 C-51.20744455 104.07469 -51.19923361 114.62500138 -51.18920654 125.17531854 C-51.17803974 137.18483175 -51.17253352 149.19434544 -51.16751111 161.20386255 C-51.15705086 185.91195576 -51.13945493 210.6200398 -51.1171875 235.328125 C-51.7771875 235.328125 -52.4371875 235.328125 -53.1171875 235.328125 C-54.65545102 232.25159796 -54.26149342 229.02093739 -54.25762939 225.64479065 C-54.26060052 224.84229966 -54.26357164 224.03980866 -54.2666328 223.21299976 C-54.27534364 220.50860728 -54.27683009 217.80425894 -54.27832031 215.09985352 C-54.28294703 213.16669113 -54.28797149 211.23352966 -54.29336548 209.30036926 C-54.30651096 204.03545456 -54.31293933 198.77055262 -54.31737614 193.50562406 C-54.32030514 190.21529992 -54.32440975 186.92497928 -54.32888031 183.63465691 C-54.34256471 173.33768592 -54.35222513 163.04072293 -54.3560822 152.74374348 C-54.3605568 140.86320683 -54.37807295 128.98278558 -54.4070828 117.10228401 C-54.42872796 107.91828126 -54.4387881 98.73431088 -54.44012332 89.5502829 C-54.44116988 84.06641613 -54.44704535 78.5826577 -54.46494293 73.09881783 C-54.48147118 67.93355736 -54.48355604 62.76848609 -54.47480392 57.60320854 C-54.47403593 55.71306729 -54.47834477 53.82291568 -54.48826218 51.93280029 C-54.56507904 36.37245886 -53.53185202 23.98324264 -42.12890625 12.2890625 C-29.82720643 1.06226849 -16.12127743 -0.14529295 0 0 Z " fill="#1FAD44" transform="translate(501.1171875,272.671875)"/>
<path d="M0 0 C4.67055555 2.80391186 7.3737071 6.71744837 9.75 11.5625 C10.49203098 14.97129194 10.45966749 18.19623616 10.33935547 21.67211914 C10.32603935 23.12249573 10.32603935 23.12249573 10.31245422 24.60217285 C10.27625909 27.76850045 10.19707243 30.9321558 10.1171875 34.09765625 C10.08352622 36.30435853 10.05257093 38.5111036 10.02420044 40.71788025 C9.94259043 46.50367057 9.82440273 52.28814847 9.69842529 58.07312012 C9.57620853 63.98524152 9.48881599 69.89786823 9.3984375 75.81054688 C9.216252 87.39528678 8.995396 98.97893867 8.75 110.5625 C8.42 110.5625 8.09 110.5625 7.75 110.5625 C7.74857498 109.3650415 7.74714996 108.16758301 7.74568176 106.93383789 C7.72899292 95.63414499 7.68616127 84.33481135 7.61790943 73.03530884 C7.58365791 67.22644922 7.55853224 61.4178521 7.55444336 55.60888672 C7.55015659 50.00005641 7.52166149 44.39181808 7.47656822 38.78317261 C7.46360549 36.64626517 7.45928117 34.50928685 7.46384621 32.37234497 C7.46876073 29.37258438 7.44262086 26.37454827 7.40942383 23.375 C7.42236229 22.05761086 7.42236229 22.05761086 7.43556213 20.71360779 C7.33198794 15.10944582 6.12402666 11.71122858 2.82056713 7.1628418 C1.75 5.5625 1.75 5.5625 1.75 3.5625 C-4.7619195 1.54972488 -11.02430573 0.49109074 -17.37866211 3.60595703 C-21.5142661 6.42397679 -24.85346781 9.90136601 -28.3671875 13.44921875 C-29.14256866 14.22505814 -29.91794983 15.00089752 -30.71682739 15.80024719 C-32.35477061 17.44120682 -33.99028737 19.08459155 -35.62353516 20.73022461 C-38.10402561 23.22887208 -40.59232429 25.71952387 -43.08203125 28.20898438 C-44.67755391 29.80942684 -46.27262068 31.41032395 -47.8671875 33.01171875 C-48.60282928 33.74847336 -49.33847107 34.48522797 -50.09640503 35.24430847 C-54.11957444 39.30393288 -57.9644288 43.46018554 -61.69805908 47.78718567 C-63.66969463 50.04260197 -65.74540931 52.17108151 -67.87109375 54.28125 C-68.66064453 55.06757812 -69.45019531 55.85390625 -70.26367188 56.6640625 C-71.06353516 57.45554687 -71.86339844 58.24703125 -72.6875 59.0625 C-73.51443359 59.88492188 -74.34136719 60.70734375 -75.19335938 61.5546875 C-77.20994959 63.55962113 -79.22885236 65.56216253 -81.25 67.5625 C-82.0625 65.875 -82.0625 65.875 -82.25 63.5625 C-80.64231213 61.83887148 -78.96376749 60.18069546 -77.25 58.5625 C-76.45689423 57.77161484 -75.66378845 56.98072968 -74.84664917 56.1658783 C-74.014086 55.33633133 -73.18152283 54.50678436 -72.32373047 53.65209961 C-67.62017597 48.96482515 -62.91911684 44.27505666 -58.21951103 39.5838232 C-55.38414831 36.75369496 -52.5478496 33.92451759 -49.70947266 31.09741211 C-46.95234251 28.35115523 -44.19767007 25.602455 -41.44467545 22.85205269 C-40.39859257 21.80781266 -39.3516322 20.76445088 -38.30376816 19.72199821 C-36.83932687 18.26482878 -35.37805809 16.80454656 -33.91748047 15.34350586 C-32.67102249 14.1003788 -32.67102249 14.1003788 -31.39938354 12.83213806 C-29.23040164 10.64067186 -29.23040164 10.64067186 -27.58328247 8.26368713 C-27.14329926 7.70229538 -26.70331604 7.14090363 -26.25 6.5625 C-25.59 6.5625 -24.93 6.5625 -24.25 6.5625 C-23.86328125 5.64210938 -23.86328125 5.64210938 -23.46875 4.703125 C-19.01598834 -3.11775125 -7.39205608 -3.06121407 0 0 Z " fill="#E70D1C" transform="translate(376.25,603.4375)"/>
<path d="M0 0 C1.24534232 0.00092179 2.49068464 0.00184359 3.77376461 0.00279331 C4.46473938 0.00193889 5.15571416 0.00108446 5.86762756 0.00020415 C8.20004874 -0.00145264 10.53239917 0.00407393 12.8648138 0.00952244 C14.52996475 0.00980429 16.19511582 0.00964661 17.86026669 0.00907993 C22.3951976 0.00879189 26.9301023 0.01468967 31.46502709 0.02165389 C36.19895023 0.02788635 40.9328739 0.02849114 45.6668005 0.0296793 C54.63763754 0.03279293 63.60846245 0.04100675 72.57929415 0.05102879 C82.78952046 0.06218893 92.99974733 0.06770012 103.20997822 0.07272422 C124.21919777 0.08318934 145.22840639 0.1007894 166.23761654 0.12304783 C166.23761654 0.45304783 166.23761654 0.78304783 166.23761654 1.12304783 C158.42786819 2.39307552 150.62162209 2.25650762 142.73371029 2.23657322 C141.16604775 2.23629082 139.59838508 2.23645012 138.03072262 2.23701572 C133.79371648 2.23730163 129.55673887 2.23143832 125.31973934 2.22444177 C120.88481448 2.21817382 116.4498889 2.21760171 112.01496029 2.21641636 C103.62517778 2.21331317 95.23540836 2.20511347 86.8456316 2.19506687 C77.29061153 2.18387425 67.73559083 2.17838735 58.18056583 2.17337143 C38.53290877 2.16292998 18.88526348 2.1453502 -0.76238346 2.12304783 C-0.76238346 2.78304783 -0.76238346 3.44304783 -0.76238346 4.12304783 C-1.42238346 4.12304783 -2.08238346 4.12304783 -2.76238346 4.12304783 C-2.76238346 8.08304783 -2.76238346 12.04304783 -2.76238346 16.12304783 C-3.09238346 16.12304783 -3.42238346 16.12304783 -3.76238346 16.12304783 C-3.78923441 13.64380982 -3.80914894 11.16485943 -3.82488346 8.68554783 C-3.83745182 7.62497166 -3.83745182 7.62497166 -3.85027409 6.5429697 C-3.85891934 4.73611223 -3.81458358 2.9291718 -3.76238346 1.12304783 C-2.76238346 0.12304783 -2.76238346 0.12304783 0 0 Z " fill="#E20C1D" transform="translate(387.76238346099854,983.8769521713257)"/>
<path d="M0 0 C0.66 0 1.32 0 2 0 C2.06962537 11.07480108 2.12287493 22.14954976 2.15543652 33.22452545 C2.1710674 38.36753593 2.19225858 43.51039624 2.22631836 48.65332031 C2.25900372 53.62000497 2.2768724 58.58654552 2.28463173 63.55332947 C2.29015878 65.44467943 2.3009517 67.33602185 2.31719017 69.22731018 C2.33908652 71.88413304 2.34196185 74.54036651 2.34057617 77.19726562 C2.351362 77.97266693 2.36214783 78.74806824 2.3732605 79.54696655 C2.33614949 86.15762003 0.9941899 91.63845933 -3.375 96.8125 C-8.89477922 101.41231602 -12.93683087 102.55374313 -20 103 C-20 102.01 -20 101.02 -20 100 C-19.18015625 99.84144531 -18.3603125 99.68289063 -17.515625 99.51953125 C-10.87503056 98.21444016 -10.87503056 98.21444016 -5.375 94.5625 C-4.694375 93.2940625 -4.694375 93.2940625 -4 92 C-3.64788956 91.43647827 -3.29577911 90.87295654 -2.93299866 90.2923584 C-1.61993858 87.06619695 -1.72449762 84.23859052 -1.69702148 80.75976562 C-1.68858215 80.03718567 -1.68014282 79.31460571 -1.67144775 78.57012939 C-1.64567321 76.1821627 -1.63352075 73.79432021 -1.62109375 71.40625 C-1.60490397 69.73676596 -1.58772243 68.06729127 -1.56959534 66.39782715 C-1.52389448 61.99662657 -1.48912337 57.59541285 -1.45739746 53.1940918 C-1.40558558 46.1788272 -1.33965968 39.16370409 -1.26918221 32.14860535 C-1.24662752 29.71386897 -1.23016804 27.27914924 -1.21446228 24.84436035 C-1.14726226 16.52501796 -0.8681255 8.28164872 0 0 Z " fill="#EE112B" transform="translate(385,988)"/>
<path d="M0 0 C48.51 0 97.02 0 147 0 C147 0.33 147 0.66 147 1 C112.35 1.495 112.35 1.495 77 2 C76.67 2.66 76.34 3.32 76 4 C58.51 4 41.02 4 23 4 C23.33 3.34 23.66 2.68 24 2 C16.08 1.67 8.16 1.34 0 1 C0 0.67 0 0.34 0 0 Z " fill="#149664" transform="translate(654,273)"/>
<path d="M0 0 C27.39 0 54.78 0 83 0 C83 0.33 83 0.66 83 1 C76.73 1.33 70.46 1.66 64 2 C63.67 2.66 63.34 3.32 63 4 C44.19 4 25.38 4 6 4 C6 3.34 6 2.68 6 2 C3.03 1.505 3.03 1.505 0 1 C0 0.67 0 0.34 0 0 Z " fill="#1B9F5C" transform="translate(554,273)"/>
<path d="M0 0 C4.74073958 0.87812463 7.24171843 3.84261192 10.51269531 7.17211914 C11.15701508 7.81600082 11.80133484 8.45988251 12.46517944 9.12327576 C14.59334907 11.25353558 16.7106955 13.39422505 18.828125 15.53515625 C20.30148958 17.01411594 21.77551786 18.49241471 23.25018311 19.97007751 C27.13003579 23.86138559 31.00079531 27.76161868 34.86975098 31.66375732 C38.81918946 35.64388148 42.77713209 39.61552865 46.734375 43.58789062 C54.49794612 51.38363818 62.25194052 59.18883765 70 67 C69.67 67.66 69.34 68.32 69 69 C64.750296 66.166864 61.53519946 63.6622549 58.375 59.59765625 C56.75006691 57.70959479 54.96324429 56.17165284 53.0625 54.5625 C49.84115964 51.82375745 47.174426 48.94259424 44.49609375 45.68359375 C42.94171973 43.93441568 41.30389052 42.488111 39.5 41 C37.08474478 39.00754657 35.05029883 36.98125793 33.0625 34.5625 C30.29535702 31.20345478 27.18240451 28.49413918 23.87109375 25.68359375 C21.29045406 23.36155678 19.2204056 20.66448672 17 18 C15.70482822 16.83461579 14.3908278 15.68994647 13.0625 14.5625 C9.77906798 11.77468036 7.00966713 8.84305025 4.32421875 5.48046875 C2.87482394 3.73573635 2.87482394 3.73573635 0 2 C0 1.34 0 0.68 0 0 Z " fill="#E91022" transform="translate(187,917)"/>
<path d="M0 0 C4.78168657 1.27511642 7.4496756 2.94781173 10.875 6.5 C12.04675781 7.69109375 12.04675781 7.69109375 13.2421875 8.90625 C15 11 15 11 15 13 C15.58320007 13.25755569 16.16640015 13.51511139 16.76727295 13.7804718 C19.19379435 15.10585158 20.78275928 16.54839298 22.72363281 18.51245117 C23.43827698 19.23047409 24.15292114 19.94849701 24.88922119 20.6882782 C25.65280945 21.46532608 26.41639771 22.24237396 27.203125 23.04296875 C27.99974548 23.8447908 28.79636597 24.64661285 29.61712646 25.47273254 C32.1662075 28.03962418 34.7085286 30.61307558 37.25 33.1875 C39.77799819 35.74324392 42.30747833 38.2974739 44.84002686 40.84870911 C46.41452445 42.4353202 47.98634314 44.02459594 49.55499268 45.61698914 C54.19470012 50.29836232 58.97547638 54.73385193 64 59 C63.505 59.99 63.505 59.99 63 61 C57.71534159 59.55336167 55.04539263 56.15921967 51.5625 52.1875 C46.94506532 46.96846986 46.94506532 46.96846986 41.796875 42.2890625 C39.43458749 40.35568194 37.60245635 38.53789862 35.6875 36.1875 C32.42235096 32.34188002 28.81108707 29.11076832 25.00390625 25.8125 C22.70436793 23.73260569 20.86862217 21.46925072 19 19 C14.90685792 14.77737364 10.57687377 10.84856298 6.19726562 6.9296875 C3.75932563 4.72174184 1.83567607 2.75351411 0 0 Z " fill="#20A743" transform="translate(936,192)"/>
<path d="M0 0 C1.07628662 0.0028299 2.15257324 0.00565979 3.26147461 0.00857544 C6.67443299 0.01970519 10.0871219 0.04479655 13.5 0.0703125 C15.82421494 0.08035161 18.14843402 0.08947583 20.47265625 0.09765625 C26.14852831 0.1196209 31.82424489 0.15302625 37.5 0.1953125 C37.5 0.5253125 37.5 0.8553125 37.5 1.1953125 C35.19 1.5253125 32.88 1.8553125 30.5 2.1953125 C31.49 2.8553125 32.48 3.5153125 33.5 4.1953125 C16.34 4.1953125 -0.82 4.1953125 -18.5 4.1953125 C-18.83 3.5353125 -19.16 2.8753125 -19.5 2.1953125 C-12.88710288 0.20455493 -6.88069754 -0.06892263 0 0 Z " fill="#2BA653" transform="translate(812.5,272.8046875)"/>
<path d="M0 0 C0 3 0 3 -2.61450195 5.93920898 C-3.81495733 7.13240113 -5.02349034 8.31749981 -6.23828125 9.49609375 C-6.87485153 10.12604752 -7.51142181 10.75600128 -8.1672821 11.40504456 C-10.20874359 13.42305156 -12.2600549 15.43067012 -14.3125 17.4375 C-16.35251975 19.44240919 -18.3903826 21.44944249 -20.42558289 23.45924377 C-21.69340312 24.71015162 -22.96429532 25.9579555 -24.23860168 27.20225525 C-26.60658184 29.53041947 -28.80848313 31.7416573 -30.78979492 34.41430664 C-31.1891626 34.93758545 -31.58853027 35.46086426 -32 36 C-32.66 36 -33.32 36 -34 36 C-34.2582959 36.58426758 -34.5165918 37.16853516 -34.78271484 37.77050781 C-36.09673136 40.17716622 -37.52480015 41.75319337 -39.4765625 43.671875 C-40.146875 44.33574219 -40.8171875 44.99960937 -41.5078125 45.68359375 C-42.55582031 46.70646484 -42.55582031 46.70646484 -43.625 47.75 C-44.33140625 48.44738281 -45.0378125 49.14476562 -45.765625 49.86328125 C-47.50598703 51.58012488 -49.25084981 53.29211832 -51 55 C-51.495 53.515 -51.495 53.515 -52 52 C-50.6875 49.8125 -50.6875 49.8125 -49 48 C-48.34 48 -47.68 48 -47 48 C-46.773125 47.443125 -46.54625 46.88625 -46.3125 46.3125 C-44.62449964 43.33840412 -42.53323483 41.27991135 -40 39 C-39.34 39 -38.68 39 -38 39 C-37.75991211 38.43321533 -37.51982422 37.86643066 -37.27246094 37.2824707 C-35.73713622 34.52848936 -33.8942667 32.68602847 -31.640625 30.48046875 C-30.33738281 29.19366211 -30.33738281 29.19366211 -29.0078125 27.88085938 C-28.09773438 26.99205078 -27.18765625 26.10324219 -26.25 25.1875 C-20.5844514 19.6321602 -15.0721382 14.10535154 -10 8 C-8.39078889 6.23167334 -6.76662413 4.61940546 -5 3 C-4.34 3 -3.68 3 -3 3 C-2.67 2.34 -2.34 1.68 -2 1 C-1.34 0.67 -0.68 0.34 0 0 Z " fill="#E80F23" transform="translate(221,744)"/>
<path d="M0 0 C0.495 1.485 0.495 1.485 1 3 C-17.15 3 -35.3 3 -54 3 C-53.67 2.01 -53.34 1.02 -53 0 C-35.21724671 -1.09312205 -17.77579046 -1.24586266 0 0 Z " fill="#24B047" transform="translate(671,274)"/>
<path d="M0 0 C49.17 0 98.34 0 149 0 C149 0.33 149 0.66 149 1 C148.30064835 1.01030746 147.60129669 1.02061493 146.88075256 1.03123474 C140.30286337 1.12905032 133.7250658 1.23154157 127.14733219 1.33933926 C123.76532878 1.39459802 120.38331676 1.44802256 117.0012207 1.49731445 C113.11660573 1.55400946 109.23214122 1.61857585 105.34765625 1.68359375 C103.51800072 1.70866249 103.51800072 1.70866249 101.65138245 1.73423767 C100.53029587 1.75418289 99.40920929 1.77412811 98.25415039 1.79467773 C97.26153702 1.81022202 96.26892365 1.8257663 95.24623108 1.84178162 C93.03025703 1.75118444 93.03025703 1.75118444 92 3 C90.39836084 3.09919077 88.79220082 3.12969898 87.1875 3.125 C86.31480469 3.12757813 85.44210937 3.13015625 84.54296875 3.1328125 C82 3 82 3 80.31695557 2.50453186 C77.0199584 1.78658969 73.74450781 1.82171534 70.38574219 1.79467773 C69.24369827 1.77982834 69.24369827 1.77982834 68.07858276 1.76467896 C65.56804488 1.73315224 63.05748809 1.70834153 60.546875 1.68359375 C58.80380773 1.66301659 57.06074536 1.64201992 55.31768799 1.62062073 C50.73433408 1.56547871 46.15093572 1.51603477 41.56750488 1.46777344 C36.88871311 1.4175009 32.20998572 1.36184488 27.53125 1.30664062 C18.3542217 1.19915533 9.17713744 1.09768903 0 1 C0 0.67 0 0.34 0 0 Z " fill="#21A748" transform="translate(598,538)"/>
<path d="M0 0 C0.66 0.99 1.32 1.98 2 3 C1.43152344 3.556875 0.86304688 4.11375 0.27734375 4.6875 C-0.49480469 5.450625 -1.26695312 6.21375 -2.0625 7 C-2.81660156 7.7425 -3.57070312 8.485 -4.34765625 9.25 C-6.39288387 11.37053056 -8.31558247 13.50880086 -10.23046875 15.7421875 C-15.05439888 21.30559982 -20.37927495 26.36042716 -25.6796875 31.46484375 C-31.87309764 37.54432829 -35.23225332 41.9521651 -35.6875 50.875 C-35.75324219 52.02742187 -35.81898438 53.17984375 -35.88671875 54.3671875 C-35.92410156 55.23601563 -35.96148437 56.10484375 -36 57 C-36.99 56.67 -37.98 56.34 -39 56 C-39.0823499 54.31335214 -39.1397912 52.62548293 -39.1875 50.9375 C-39.22230469 49.99777344 -39.25710937 49.05804687 -39.29296875 48.08984375 C-38.55688285 40.32659112 -34.69482312 36.17664277 -29.25 31.0625 C-27.97215258 29.82608229 -26.69608738 28.58781979 -25.421875 27.34765625 C-24.81923828 26.76387207 -24.21660156 26.18008789 -23.59570312 25.57861328 C-21.79498474 23.79718044 -20.1267171 21.94115984 -18.5 20 C-14.53600015 15.29660122 -10.09699384 11.04911628 -5.70898438 6.74609375 C-4.82049805 5.87017578 -4.82049805 5.87017578 -3.9140625 4.9765625 C-3.3773291 4.45143066 -2.8405957 3.92629883 -2.28759766 3.38525391 C-0.88723997 2.0089621 -0.88723997 2.0089621 0 0 Z " fill="#E70D22" transform="translate(166,798)"/>
<path d="M0 0 C0.66 0 1.32 0 2 0 C2.88537283 1.36852719 3.76843746 2.73857864 4.64294434 4.11407471 C7.52100706 8.11377158 11.20607586 11.44592375 14.703125 14.8984375 C15.54091492 15.73339752 16.37870483 16.56835754 17.24188232 17.42861938 C19.90657916 20.08216283 22.57816186 22.72864915 25.25 25.375 C27.0629595 27.17792348 28.8754647 28.98130391 30.6875 30.78515625 C35.11975102 35.19541112 39.55766922 39.59989961 44 44 C43.01 44.66 42.02 45.32 41 46 C40.55269531 45.48050781 40.10539062 44.96101562 39.64453125 44.42578125 C35.3940809 39.52280974 31.19692918 34.76709521 26.125 30.6875 C22.97616981 28.12148671 20.41751119 25.16567278 17.80859375 22.0625 C14.7663124 18.59311652 11.44684871 15.42513946 8.10546875 12.24609375 C7.1327636 11.30994664 6.16010761 10.37374845 5.1875 9.4375 C4.68541016 8.96892578 4.18332031 8.50035156 3.66601562 8.01757812 C2.23046875 6.62109375 2.23046875 6.62109375 0 4 C0 2.68 0 1.36 0 0 Z " fill="#E71020" transform="translate(129,856)"/>
<path d="M0 0 C0.99 0 1.98 0 3 0 C2.1875 1.9375 2.1875 1.9375 1 4 C0.01 4.33 -0.98 4.66 -2 5 C-2.268125 5.5775 -2.53625 6.155 -2.8125 6.75 C-4.18359389 9.3478621 -5.95975207 10.78136419 -8.26953125 12.55859375 C-10.66806928 14.55647306 -12.79988071 16.78542937 -15 19 C-23 27 -31 35 -39 43 C-39.66 42.34 -40.32 41.68 -41 41 C-27.33333333 27.33333333 -13.66666667 13.66666667 0 0 Z " fill="#1FA548" transform="translate(962,604)"/>
<path d="M0 0 C6.21773909 0.28785829 11.88098267 1.21297188 17 5 C17.33 5.99 17.66 6.98 18 8 C18.5775 8.28875 19.155 8.5775 19.75 8.875 C22.79225245 10.39612622 24.73842507 12.48713896 27 15 C27 15.66 27 16.32 27 17 C28.32 17.66 29.64 18.32 31 19 C31 19.66 31 20.32 31 21 C31.639375 21.268125 32.27875 21.53625 32.9375 21.8125 C35 23 35 23 36 26 C38.00016466 27.20882096 38.00016466 27.20882096 40 28 C40 28.66 40 29.32 40 30 C40.66 30.33 41.32 30.66 42 31 C38 31 38 31 35.43798828 28.84448242 C34.47218344 27.85775065 33.51689677 26.86065371 32.5703125 25.85546875 C32.05749725 25.32987869 31.54468201 24.80428864 31.0163269 24.26277161 C29.37603957 22.58023903 27.74945548 20.88531333 26.125 19.1875 C24.50694453 17.50120165 22.8860023 15.81824159 21.25509644 14.1443634 C20.24115485 13.10337266 19.23444674 12.05526968 18.23635864 10.99906921 C13.07616394 5.69375272 8.29832154 3.72983215 1 3 C0.67 2.01 0.34 1.02 0 0 Z " fill="#18B43A" transform="translate(893,157)"/>
<path d="M0 0 C0.44730469 0.39832031 0.89460938 0.79664063 1.35546875 1.20703125 C1.96003906 1.73683594 2.56460937 2.26664062 3.1875 2.8125 C3.77917969 3.33457031 4.37085938 3.85664063 4.98046875 4.39453125 C6.97321902 6.06567824 6.97321902 6.06567824 9.32397461 7.30810547 C12.2511463 9.15878514 14.41391772 11.20335297 16.8359375 13.67578125 C17.73570313 14.58650391 18.63546875 15.49722656 19.5625 16.43554688 C20.50037809 17.39416148 21.43787584 18.35314835 22.375 19.3125 C28.07864649 25.12398854 33.76080477 30.76632897 40 36 C41.9375 38.375 41.9375 38.375 43 40 C39 40 39 40 36.97290039 38.42700195 C36.27156982 37.70472412 35.57023926 36.98244629 34.84765625 36.23828125 C34.07099609 35.44873047 33.29433594 34.65917969 32.49414062 33.84570312 C31.69169922 33.00974609 30.88925781 32.17378906 30.0625 31.3125 C29.26392578 30.49587891 28.46535156 29.67925781 27.64257812 28.83789062 C25.42143992 26.56522643 23.21023385 24.28325978 21 22 C18.49260665 19.42989278 16.03067506 17.02385838 13.1875 14.8125 C12.465625 14.214375 11.74375 13.61625 11 13 C11 12.34 11 11.68 11 11 C10.12601563 10.61328125 10.12601563 10.61328125 9.234375 10.21875 C6.8197097 8.90165983 5.18259823 7.44911616 3.25 5.5 C2.63640625 4.8915625 2.0228125 4.283125 1.390625 3.65625 C0 2 0 2 0 0 Z " fill="#23A747" transform="translate(1103,357)"/>
<path d="M0 0 C-1.61735128 3.90395137 -4.26932344 6.71549347 -7.125 9.75 C-7.63836914 10.30131592 -8.15173828 10.85263184 -8.68066406 11.4206543 C-15.60272782 18.79295849 -22.80566697 25.89497783 -30 33 C-30.8125 31.3125 -30.8125 31.3125 -31 29 C-28.91674805 26.60864258 -28.91674805 26.60864258 -26 24 C-24.60805761 22.59192849 -23.2161605 21.18381131 -21.82563782 19.77433777 C-19.71370562 17.63552231 -17.5963191 15.50213912 -15.47875977 13.36889648 C-14.36078156 12.24076229 -13.24459037 11.11085457 -12.13012695 9.97924805 C-10.51457175 8.33956243 -8.89275424 6.70630931 -7.26953125 5.07421875 C-6.77056839 4.56493332 -6.27160553 4.05564789 -5.75752258 3.53092957 C-2.22774167 0 -2.22774167 0 0 0 Z " fill="#E91427" transform="translate(325,638)"/>
<path d="M0 0 C0.33 0.99 0.66 1.98 1 3 C0.23816406 3.32871094 -0.52367187 3.65742188 -1.30859375 3.99609375 C-9.54695149 7.79129226 -17.87790609 12.39446893 -21.2421875 21.28125 C-21.49226563 22.1784375 -21.74234375 23.075625 -22 24 C-22.66 24 -23.32 24 -24 24 C-24.66 25.32 -25.32 26.64 -26 28 C-26.49523006 20.89138521 -23.41735881 17.27907842 -19 12 C-13.87839967 6.72835278 -7.49119218 1.19859075 0 0 Z " fill="#14A63E" transform="translate(476,275)"/>
<path d="M0 0 C-0.31547503 7.55562696 -1.2004674 15.02899206 -6.64453125 20.71875 C-7.82579767 21.72758756 -9.03306775 22.70685646 -10.265625 23.65234375 C-12.25906001 25.13314354 -12.25906001 25.13314354 -14.6875 27.8125 C-17.03208725 30.0303528 -17.96777006 30.4063213 -21 31 C-17.93189688 27.33324262 -14.94169703 23.93152456 -11.375 20.75 C-6.56001375 16.04154 -4.64526276 9.75521773 -3.5234375 3.2265625 C-3.35070313 2.49179687 -3.17796875 1.75703125 -3 1 C-1 0 -1 0 0 0 Z " fill="#1BA745" transform="translate(1151,408)"/>
<path d="M0 0 C0.99 0.33 1.98 0.66 3 1 C1.71034824 2.37562854 0.37310707 3.70766393 -1 5 C-1.66 5 -2.32 5 -3 5 C-3.309375 5.8353125 -3.309375 5.8353125 -3.625 6.6875 C-5.51129632 9.85990745 -8.15484805 11.67742698 -11 14 C-12.00573778 15.32901064 -13.00795408 16.66073801 -14 18 C-14.66 18 -15.32 18 -16 18 C-16.226875 18.556875 -16.45375 19.11375 -16.6875 19.6875 C-18.37550036 22.66159588 -20.46676517 24.72008865 -23 27 C-23.66 27 -24.32 27 -25 27 C-24.44495754 23.35257814 -23.22618728 22.01773969 -20.375 19.75 C-17.49206168 17.34840484 -14.97389954 14.93697861 -12.5625 12.0625 C-8.7736948 7.58083459 -4.45816865 3.80106896 0 0 Z " fill="#21AA48" transform="translate(1119,449)"/>
<path d="M0 0 C0.66 0 1.32 0 2 0 C2.80984194 4.95152495 3.1178734 9.64952275 3.09765625 14.68359375 C3.09553383 15.73414696 3.09553383 15.73414696 3.09336853 16.80592346 C3.08782477 19.01649466 3.07528326 21.22696004 3.0625 23.4375 C3.05747771 24.94726415 3.05291609 26.45702991 3.04882812 27.96679688 C3.03787387 31.64456493 3.0206489 35.32227212 3 39 C0.22554317 36.22554317 0.01419845 34.43294596 -0.11352539 30.53833008 C-0.11336745 29.11538731 -0.10774109 27.69243829 -0.09765625 26.26953125 C-0.0962413 25.51911057 -0.09482635 24.76868988 -0.09336853 23.99552917 C-0.0877756 21.6011454 -0.07522444 19.20685547 -0.0625 16.8125 C-0.05748408 15.18815239 -0.05292134 13.56380332 -0.04882812 11.93945312 C-0.03780848 7.95959931 -0.02054873 3.97981556 0 0 Z " fill="#24A94A" transform="translate(872,612)"/>
<path d="M0 0 C0.33 0.66 0.66 1.32 1 2 C3.01669827 3.13350534 3.01669827 3.13350534 5 4 C5 4.66 5 5.32 5 6 C5.55042969 6.22945313 6.10085938 6.45890625 6.66796875 6.6953125 C9.66952698 8.37457623 11.85213741 10.47516731 14.3125 12.875 C15.21613281 13.73867188 16.11976562 14.60234375 17.05078125 15.4921875 C19 18 19 18 18.79296875 20.3203125 C18.40044922 21.15175781 18.40044922 21.15175781 18 22 C17.67 21.01 17.34 20.02 17 19 C16.34 19 15.68 19 15 19 C15 18.34 15 17.68 15 17 C14.46890625 16.79632813 13.9378125 16.59265625 13.390625 16.3828125 C9.97125896 14.40494391 7.48662079 11.69673101 4.75 8.875 C4.19570312 8.31167969 3.64140625 7.74835938 3.0703125 7.16796875 C1.70895515 5.78313972 0.35385141 4.39216796 -1 3 C-0.67 2.01 -0.34 1.02 0 0 Z " fill="#23AC46" transform="translate(1080,332)"/>
<path d="M0 0 C5.24208645 2.30090178 8.80267066 6.39492207 12.8125 10.375 C13.61365234 11.14328125 14.41480469 11.9115625 15.24023438 12.703125 C15.99240234 13.44820312 16.74457031 14.19328125 17.51953125 14.9609375 C18.21151611 15.63946777 18.90350098 16.31799805 19.61645508 17.01708984 C21 19 21 19 20.7175293 21.25244141 C20.48074463 21.82913574 20.24395996 22.40583008 20 23 C18.62437146 21.71034824 17.29233607 20.37310707 16 19 C16 18.34 16 17.68 16 17 C15.1646875 16.690625 15.1646875 16.690625 14.3125 16.375 C11.71424423 14.83009117 10.15521789 12.93937362 8.296875 10.58203125 C6.84695909 8.75400728 6.84695909 8.75400728 4.3125 6.375 C2.2604605 4.26749997 1.09648952 2.69138336 0 0 Z " fill="#E91123" transform="translate(268,997)"/>
<path d="M0 0 C4.66305038 -0.07405887 9.32575984 -0.12855763 13.98925781 -0.16479492 C15.57623251 -0.17989814 17.16316537 -0.20038223 18.75 -0.22631836 C21.02875073 -0.26263595 23.30695058 -0.27971023 25.5859375 -0.29296875 C26.29744965 -0.30845261 27.00896179 -0.32393646 27.74203491 -0.33988953 C29.74365234 -0.34057617 29.74365234 -0.34057617 33 0 C33.66 0.99 34.32 1.98 35 3 C28.07 3 21.14 3 14 3 C14 2.34 14 1.68 14 1 C9.38 1 4.76 1 0 1 C0 0.67 0 0.34 0 0 Z " fill="#25A74A" transform="translate(537,538)"/>
<path d="M0 0 C1.80597656 0.01353516 1.80597656 0.01353516 3.6484375 0.02734375 C6.5991679 0.05076225 9.54947689 0.08356007 12.5 0.125 C12.5 0.455 12.5 0.785 12.5 1.125 C4.085 1.62 4.085 1.62 -4.5 2.125 C-4.83 2.785 -5.16 3.445 -5.5 4.125 C-10.45 4.125 -15.4 4.125 -20.5 4.125 C-20.83 3.465 -21.16 2.805 -21.5 2.125 C-14.29529332 -0.13984591 -7.50987972 -0.107284 0 0 Z " fill="#229E5D" transform="translate(814.5,272.875)"/>
<path d="M0 0 C0.84755859 0.00322266 1.69511719 0.00644531 2.56835938 0.00976562 C3.8899707 0.02233398 3.8899707 0.02233398 5.23828125 0.03515625 C6.57729492 0.04192383 6.57729492 0.04192383 7.94335938 0.04882812 C10.14590112 0.06060642 12.34830724 0.07705461 14.55078125 0.09765625 C14.55078125 0.75765625 14.55078125 1.41765625 14.55078125 2.09765625 C15.54078125 2.42765625 16.53078125 2.75765625 17.55078125 3.09765625 C7.98078125 3.09765625 -1.58921875 3.09765625 -11.44921875 3.09765625 C-7.29659294 1.02134334 -4.55688397 -0.03058311 0 0 Z " fill="#26A84B" transform="translate(758.44921875,273.90234375)"/>
<path d="M0 0 C0.99 0.99 1.98 1.98 3 3 C1.3232534 10.04527739 -0.97598996 16.60748067 -6 22 C-8.19140625 22.74609375 -8.19140625 22.74609375 -10 23 C-9.608125 22.38125 -9.21625 21.7625 -8.8125 21.125 C-4.83417126 14.26581253 -1.5893503 7.8022651 0 0 Z " fill="#E90F21" transform="translate(803,949)"/>
<path d="M0 0 C0.99 0.33 1.98 0.66 3 1 C-2.76316434 7.88377963 -8.89013472 14.42546859 -15 21 C-15.66 20.67 -16.32 20.34 -17 20 C-14.36570435 15.67975514 -11.44796978 12.32641029 -7.81640625 8.8125 C-5.02418325 6.02628178 -2.53043194 3.02417476 0 0 Z " fill="#E71328" transform="translate(255,707)"/>
<path d="M0 0 C13.53 0 27.06 0 41 0 C41 0.33 41 0.66 41 1 C20.21 1.99 20.21 1.99 -1 3 C-0.67 2.01 -0.34 1.02 0 0 Z " fill="#20A747" transform="translate(485,538)"/>
<path d="M0 0 C0 3 0 3 -1.37695312 4.7175293 C-2.00537109 5.33023682 -2.63378906 5.94294434 -3.28125 6.57421875 C-3.95800781 7.24130859 -4.63476562 7.90839844 -5.33203125 8.59570312 C-6.04746094 9.28599609 -6.76289063 9.97628906 -7.5 10.6875 C-8.57314453 11.7403418 -8.57314453 11.7403418 -9.66796875 12.81445312 C-11.43879577 14.54986361 -13.21623456 16.2779073 -15 18 C-15.66 17.67 -16.32 17.34 -17 17 C-15.33864749 12.73826965 -12.25564682 9.96008467 -9.0625 6.8125 C-8.52431641 6.26658203 -7.98613281 5.72066406 -7.43164062 5.15820312 C-4.98839382 2.72700686 -3.31266073 1.10422024 0 0 Z " fill="#EA1023" transform="translate(279,685)"/>
<path d="M0 0 C4.24846075 0.47205119 6.26819288 2.88877522 9 6 C9 6.66 9 7.32 9 8 C10.32 8.66 11.64 9.32 13 10 C13 10.66 13 11.32 13 12 C13.639375 12.2475 14.27875 12.495 14.9375 12.75 C17 14 17 14 17.75 16.125 C17.87375 17.053125 17.87375 17.053125 18 18 C14.98984706 16.6489735 12.88032534 15.13664313 10.546875 12.8125 C9.928125 12.19632812 9.309375 11.58015625 8.671875 10.9453125 C7.72054688 9.98238281 7.72054688 9.98238281 6.75 9 C6.1003125 8.35804688 5.450625 7.71609375 4.78125 7.0546875 C4.16765625 6.43851562 3.5540625 5.82234375 2.921875 5.1875 C2.08027832 4.34251953 2.08027832 4.34251953 1.22167969 3.48046875 C0 2 0 2 0 0 Z " fill="#27A949" transform="translate(1045,299)"/>
<path d="M0 0 C0.33 0.99 0.66 1.98 1 3 C-9.52941176 14.40686275 -9.52941176 14.40686275 -16 16 C-19.09005278 16.00965641 -21.9812819 15.64287515 -25 15 C-25 14.67 -25 14.34 -25 14 C-23.80503906 13.74476563 -23.80503906 13.74476563 -22.5859375 13.484375 C-12.58030155 11.19598138 -6.98012216 7.35184464 0 0 Z " fill="#1EA744" transform="translate(917,649)"/>
<path d="M0 0 C0.33 0.99 0.66 1.98 1 3 C0.40832031 3.24234375 -0.18335938 3.4846875 -0.79296875 3.734375 C-8.82481869 7.1410324 -12.95007485 9.96065773 -16.30078125 18.171875 C-16.53152344 18.77515625 -16.76226563 19.3784375 -17 20 C-17.66 18.68 -18.32 17.36 -19 16 C-13.73072146 7.52569636 -9.51085351 3.22401814 0 0 Z " fill="#16A53B" transform="translate(891,157)"/>
<path d="M0 0 C0.89102417 0.32701904 0.89102417 0.32701904 1.80004883 0.66064453 C0.95442383 1.32064453 0.10879883 1.98064453 -0.76245117 2.66064453 C-4.07025616 5.39894536 -6.74444885 8.52642625 -9.52026367 11.78955078 C-11.54295343 14.0427331 -13.75399537 15.88176758 -16.19995117 17.66064453 C-15.91997873 12.16488925 -12.59727013 9.42698692 -8.88745117 5.78564453 C-8.01443359 4.87685547 -8.01443359 4.87685547 -7.1237793 3.94970703 C-6.5546582 3.38251953 -5.98553711 2.81533203 -5.39916992 2.23095703 C-4.88185303 1.71291504 -4.36453613 1.19487305 -3.83154297 0.66113281 C-2.19995117 -0.33935547 -2.19995117 -0.33935547 0 0 Z " fill="#1AAF40" transform="translate(1081.199951171875,488.33935546875)"/>
<path d="M0 0 C4.29524215 0.47724913 6.09048717 2.99015914 9 6 C9.96287569 6.9668078 10.9277491 7.93162981 11.89453125 8.89453125 C14.59635417 11.59635417 17.29817708 14.29817708 20 17 C19.01 17.33 18.02 17.66 17 18 C14.16266225 15.19151503 11.33081251 12.37756077 8.5 9.5625 C7.68917969 8.76005859 6.87835938 7.95761719 6.04296875 7.13085938 C5.27597656 6.36708984 4.50898438 5.60332031 3.71875 4.81640625 C3.00654297 4.10943604 2.29433594 3.40246582 1.56054688 2.67407227 C0 1 0 1 0 0 Z " fill="#E71427" transform="translate(331,1062)"/>
<path d="M0 0 C-1.57266155 3.77790205 -3.94282149 6.24241439 -6.8125 9.125 C-8.09060547 10.42824219 -8.09060547 10.42824219 -9.39453125 11.7578125 C-11.90898756 13.92167745 -13.86696725 14.99877948 -17 16 C-15.40907948 11.86360664 -12.39525082 8.76786752 -9 6 C-8.34 6 -7.68 6 -7 6 C-6.731875 5.38125 -6.46375 4.7625 -6.1875 4.125 C-4.67436553 1.41728569 -3.21502868 0 0 0 Z " fill="#28AB4D" transform="translate(1031,538)"/>
<path d="M0 0 C0.99 0 1.98 0 3 0 C2.1875 1.9375 2.1875 1.9375 1 4 C0.01 4.33 -0.98 4.66 -2 5 C-2.268125 5.5775 -2.53625 6.155 -2.8125 6.75 C-4.52655771 9.9976883 -7.15108934 11.73249968 -10 14 C-11.01680311 14.98290968 -12.02738219 15.97334787 -13 17 C-12.91911312 14.24984625 -12.5165216 12.51930608 -10.55078125 10.54296875 C-9.32538564 9.53553939 -8.08917583 8.54115307 -6.84375 7.55859375 C-5.0411608 6.03479483 -3.68820648 4.48852974 -2.25 2.625 C-1.5075 1.75875 -0.765 0.8925 0 0 Z " fill="#1EB940" transform="translate(962,604)"/>
<path d="M0 0 C6.65137288 2.98215399 11.22768463 8.31382763 14 15 C11 15 11 15 9.38671875 13.42578125 C8.82597656 12.72839844 8.26523437 12.03101563 7.6875 11.3125 C4.70375784 7.7383578 1.66482803 4.86035359 -2 2 C-1.34 1.34 -0.68 0.68 0 0 Z " fill="#EE0C20" transform="translate(788,721)"/>
<path d="M0 0 C0.99 1.0209375 0.99 1.0209375 2 2.0625 C4.91090447 4.98172134 8.00824855 7.66468066 11.1328125 10.3515625 C12.82403463 11.84464982 14.42498825 13.38585753 16 15 C15.34 15.66 14.68 16.32 14 17 C7.52083274 12.26957885 2.80751774 8.10736645 -1 1 C-0.67 0.67 -0.34 0.34 0 0 Z " fill="#1DA746" transform="translate(453,518)"/>
<path d="M0 0 C3.23545839 1.07848613 3.7850639 1.68079723 5.8125 4.25 C7.84204928 6.73225576 9.84159486 8.78556292 12.375 10.75 C13.24125 11.4925 14.1075 12.235 15 13 C15 13.99 15 14.98 15 16 C10.99060757 14.38669686 8.24326219 11.57540302 5.25 8.5625 C4.74339844 8.07201172 4.23679687 7.58152344 3.71484375 7.07617188 C2.4140692 5.77715039 1.20011632 4.39254877 0 3 C0 2.01 0 1.02 0 0 Z " fill="#1DB040" transform="translate(1001,254)"/>
<path d="M0 0 C4.01759423 3.15668118 7.36270885 6.403078 10.60546875 10.3515625 C11.99397765 11.99288115 13.46017734 13.50105759 15 15 C11 15 11 15 7.984375 12.375 C6.89591703 11.25999428 5.81809275 10.13452915 4.75 9 C4.19570313 8.42765625 3.64140625 7.8553125 3.0703125 7.265625 C1.70435878 5.85256943 0.35094389 4.42741242 -1 3 C-0.67 2.01 -0.34 1.02 0 0 Z " fill="#1BA14F" transform="translate(1016,268)"/>
<path d="M0 0 C2.475 0.495 2.475 0.495 5 1 C5 1.66 5 2.32 5 3 C5.639375 3.268125 6.27875 3.53625 6.9375 3.8125 C9 5 9 5 10 8 C12.00016466 9.20882096 12.00016466 9.20882096 14 10 C14 10.66 14 11.32 14 12 C14.66 12.33 15.32 12.66 16 13 C12 13 12 13 8.984375 10.41015625 C7.89586966 9.30439412 6.81804579 8.1880363 5.75 7.0625 C5.19570313 6.49853516 4.64140625 5.93457031 4.0703125 5.35351562 C0 1.16791102 0 1.16791102 0 0 Z " fill="#19AC44" transform="translate(919,175)"/>
<path d="M0 0 C11.55 0 23.1 0 35 0 C35 0.33 35 0.66 35 1 C24.605 1.495 24.605 1.495 14 2 C14 2.33 14 2.66 14 3 C12.22992286 3.08114106 10.45877902 3.13925505 8.6875 3.1875 C7.70136719 3.22230469 6.71523438 3.25710938 5.69921875 3.29296875 C3 3 3 3 0 0 Z " fill="#1EA545" transform="translate(773,538)"/>
<path d="M0 0 C3.15835107 1.39750048 5.32272825 3.05198234 7.75 5.5 C8.67039062 6.41265625 8.67039062 6.41265625 9.609375 7.34375 C11 9 11 9 11 11 C11.66 11 12.32 11 13 11 C13.33 11.99 13.66 12.98 14 14 C9.74689068 13.50314143 7.67968742 11.08038643 4.75 8.125 C3.85796875 7.24070312 2.9659375 6.35640625 2.046875 5.4453125 C0 3 0 3 0 0 Z " fill="#E8132B" transform="translate(297,1026)"/>
<path d="M0 0 C0.66 0 1.32 0 2 0 C2.18451025 14.78132118 2.18451025 14.78132118 1 21 C0.67 21 0.34 21 0 21 C-0.86860031 16.51223172 -1.13464852 12.25607233 -1.125 7.6875 C-1.12757813 6.45386719 -1.13015625 5.22023438 -1.1328125 3.94921875 C-1 1 -1 1 0 0 Z " fill="#1EB843" transform="translate(872,542)"/>
<path d="M0 0 C-0.56209445 3.43913052 -1.52887772 4.80201056 -4.25 6.9375 C-7.37536985 9.47001618 -10.19933161 12.11446287 -13 15 C-13.99 14.67 -14.98 14.34 -16 14 C-13.71643754 11.65861457 -11.42186626 9.32833018 -9.125 7 C-8.47402344 6.33226562 -7.82304688 5.66453125 -7.15234375 4.9765625 C-6.52714844 4.34492188 -5.90195313 3.71328125 -5.2578125 3.0625 C-4.6817627 2.47597656 -4.10571289 1.88945312 -3.51220703 1.28515625 C-2 0 -2 0 0 0 Z " fill="#1DAB44" transform="translate(1062,507)"/>
<path d="M0 0 C6.70212766 1.93617021 6.70212766 1.93617021 9 5 C9 5.66 9 6.32 9 7 C10.32 7.66 11.64 8.32 13 9 C13 9.66 13 10.32 13 11 C13.99 11.33 14.98 11.66 16 12 C15.67 12.66 15.34 13.32 15 14 C10.94772191 12.38873705 8.23778153 9.49978002 5.25 6.4375 C4.74339844 5.93025391 4.23679687 5.42300781 3.71484375 4.90039062 C0 1.14048812 0 1.14048812 0 0 Z " fill="#1FAC40" transform="translate(1063,318)"/>
<path d="M0 0 C3.36202939 1.42609159 5.23675579 3.14348515 7.5625 5.9375 C9.6269098 8.39732014 11.69358543 10.76368922 14 13 C13.01 13.33 12.02 13.66 11 14 C9.34507626 12.42617053 7.70133976 10.84057098 6.0625 9.25 C5.14597656 8.36828125 4.22945313 7.4865625 3.28515625 6.578125 C1.17570657 4.19823305 0.33932929 3.0900625 0 0 Z " fill="#E3172A" transform="translate(314,1043)"/>
<path d="M0 0 C0.66 0 1.32 0 2 0 C2 0.99 2 1.98 2 3 C-2.33830226 6.79742302 -7.46176502 8.73082115 -13 10 C-13.33 9.34 -13.66 8.68 -14 8 C-13.01 8 -12.02 8 -11 8 C-11 7.34 -11 6.68 -11 6 C-10.28972656 5.65066406 -9.57945312 5.30132813 -8.84765625 4.94140625 C-7.92855469 4.48636719 -7.00945313 4.03132812 -6.0625 3.5625 C-5.14597656 3.11003906 -4.22945312 2.65757812 -3.28515625 2.19140625 C-1.09471096 1.19474606 -1.09471096 1.19474606 0 0 Z " fill="#E90C1D" transform="translate(788,975)"/>
<path d="M0 0 C0.33 0.99 0.66 1.98 1 3 C-0.07421875 4.68359375 -0.07421875 4.68359375 -1.6875 6.4375 C-2.24566406 7.04464844 -2.80382813 7.65179687 -3.37890625 8.27734375 C-3.91386719 8.84582031 -4.44882813 9.41429687 -5 10 C-5.70125 10.825 -6.4025 11.65 -7.125 12.5 C-7.74375 12.995 -8.3625 13.49 -9 14 C-10.32 13.67 -11.64 13.34 -13 13 C-8.71 8.71 -4.42 4.42 0 0 Z " fill="#22AD43" transform="translate(1044,523)"/>
<path d="M0 0 C4.88049925 3.9419417 9.0580583 8.11950075 13 13 C12.01 13.33 11.02 13.66 10 14 C8.33333333 12.33333333 6.66666667 10.66666667 5 9 C4.071875 8.154375 3.14375 7.30875 2.1875 6.4375 C0 4 0 4 0 0 Z " fill="#E81020" transform="translate(174,902)"/>
<path d="M0 0 C3.53832993 0.59367952 5.4154022 1.93062202 8.0625 4.3125 C8.73410156 4.90675781 9.40570312 5.50101562 10.09765625 6.11328125 C11.95928864 7.95962303 13.48610938 9.86357492 15 12 C11 12 11 12 8.203125 9.62890625 C7.20835057 8.61688906 6.22425308 7.59428771 5.25 6.5625 C4.74339844 6.04623047 4.23679687 5.52996094 3.71484375 4.99804688 C0 1.16805298 0 1.16805298 0 0 Z " fill="#18A73E" transform="translate(1131,385)"/>
<path d="M0 0 C0.99 0.33 1.98 0.66 3 1 C2.06409496 2.1055189 1.12620142 3.20935453 0.1875 4.3125 C-0.33457031 4.92738281 -0.85664062 5.54226563 -1.39453125 6.17578125 C-1.92433594 6.77777344 -2.45414063 7.37976563 -3 8 C-3.71736328 8.88751953 -3.71736328 8.88751953 -4.44921875 9.79296875 C-4.96097656 10.19128906 -5.47273438 10.58960938 -6 11 C-7.32 10.67 -8.64 10.34 -10 10 C-6.7 6.7 -3.4 3.4 0 0 Z " fill="#1AA745" transform="translate(1091,476)"/>
<path d="M0 0 C0.99 0.33 1.98 0.66 3 1 C1.71034824 2.37562854 0.37310707 3.70766393 -1 5 C-1.66 5 -2.32 5 -3 5 C-3.20625 5.598125 -3.4125 6.19625 -3.625 6.8125 C-5.50926082 9.81018767 -7.81132084 10.61361776 -11 12 C-9.49650623 8.33213607 -7.36271208 6.31089607 -4.375 3.75 C-3.14910156 2.69039063 -3.14910156 2.69039063 -1.8984375 1.609375 C-1.27195312 1.07828125 -0.64546875 0.5471875 0 0 Z " fill="#19A841" transform="translate(1119,449)"/>
<path d="M0 0 C1.41805831 0.28482368 2.83440379 0.57818144 4.25 0.875 C5.03890625 1.03742187 5.8278125 1.19984375 6.640625 1.3671875 C8.96831144 1.99150075 10.89031952 2.84838542 13 4 C10.58959839 5.53690745 9.49917715 6.09752136 6.640625 5.5390625 C5.85171875 5.23742187 5.0628125 4.93578125 4.25 4.625 C3.05117188 4.18027344 3.05117188 4.18027344 1.828125 3.7265625 C1.22484375 3.48679687 0.6215625 3.24703125 0 3 C0 2.01 0 1.02 0 0 Z " fill="#23AD45" transform="translate(470,534)"/>
<path d="M0 0 C2.70931419 0.15481795 4.46584039 0.48172081 6.4453125 2.40234375 C7.67679642 3.89771708 8.8429837 5.4462924 10 7 C4.67373311 7 3.757879 5.58706631 0 2 C0 1.34 0 0.68 0 0 Z " fill="#1DB33D" transform="translate(990,245)"/>
<path d="M0 0 C0.99 0 1.98 0 3 0 C2.88658363 2.31309705 2.75896193 4.62550185 2.625 6.9375 C2.52058594 8.86916016 2.52058594 8.86916016 2.4140625 10.83984375 C2.27742187 11.88269531 2.14078125 12.92554688 2 14 C1.01 14.495 1.01 14.495 0 15 C0 10.05 0 5.1 0 0 Z " fill="#20AB48" transform="translate(872,175)"/>
<path d="M0 0 C0.99 0.33 1.98 0.66 3 1 C4.48882438 5.07467725 5.26270217 8.66541415 5 13 C4.34 13 3.68 13 3 13 C2.49487756 11.39743892 1.99608373 9.79288208 1.5 8.1875 C1.2215625 7.29417969 0.943125 6.40085937 0.65625 5.48046875 C0 3 0 3 0 0 Z " fill="#E81624" transform="translate(801,739)"/>
<path d="M0 0 C2.97851562 0.53710938 2.97851562 0.53710938 5.95703125 1.07421875 C4.96703125 2.55921875 4.96703125 2.55921875 3.95703125 4.07421875 C0.98703125 3.74421875 -1.98296875 3.41421875 -5.04296875 3.07421875 C-2.04296875 0.07421875 -2.04296875 0.07421875 0 0 Z " fill="#EB1629" transform="translate(769.04296875,712.92578125)"/>
<path d="M0 0 C8.76766619 4.3744859 8.76766619 4.3744859 9.8125 7.1875 C9.874375 7.785625 9.93625 8.38375 10 9 C6.78956118 7.61811547 4.95063635 6.07578097 2.75 3.375 C2.22921875 2.74335938 1.7084375 2.11171875 1.171875 1.4609375 C0.78515625 0.97882813 0.3984375 0.49671875 0 0 Z " fill="#1EB03F" transform="translate(1053,308)"/>
<path d="M0 0 C0.33 1.32 0.66 2.64 1 4 C-0.6875 6.3125 -0.6875 6.3125 -3 8 C-4.32 7.67 -5.64 7.34 -7 7 C-4.69 4.69 -2.38 2.38 0 0 Z " fill="#EE0716" transform="translate(152,813)"/>
<path d="M0 0 C0.99 0.33 1.98 0.66 3 1 C0.34345343 4.73884332 -1.58110387 6.64978174 -6 8 C-4.55746343 4.63408134 -2.66735273 2.48952921 0 0 Z " fill="#1EA24C" transform="translate(998,568)"/>
<path d="M0 0 C0.99 0.33 1.98 0.66 3 1 C2.071875 1.763125 1.14375 2.52625 0.1875 3.3125 C-1.98276101 5.11848552 -4.05568065 6.9476629 -6 9 C-5.70381606 5.44579276 -5.19662957 4.19662957 -2.625 1.625 C-1.325625 0.820625 -1.325625 0.820625 0 0 Z " fill="#20BC3D" transform="translate(1071,497)"/>
<path d="M0 0 C0.7425 0.45375 1.485 0.9075 2.25 1.375 C4.46930578 2.68640796 6.67967822 3.88280803 9 5 C8.34 5.66 7.68 6.32 7 7 C4.08482708 5.92598892 2.22189824 5.22189824 0 3 C0 2.01 0 1.02 0 0 Z " fill="#E91525" transform="translate(354,1083)"/>
<path d="M0 0 C0.99 0.33 1.98 0.66 3 1 C0.19195732 3.96404505 -2.18315774 6.44499019 -6 8 C-4.55746343 4.63408134 -2.66735273 2.48952921 0 0 Z " fill="#20AA4B" transform="translate(989,577)"/>
<path d="M0 0 C0.66 0.33 1.32 0.66 2 1 C0.27137715 5.55727842 -2.81669715 6.90834857 -7 9 C-5.44499019 5.18315774 -2.96404505 2.80804268 0 0 Z " fill="#23AA46" transform="translate(1009,557)"/>
<path d="M0 0 C0.90492188 0.02320313 1.80984375 0.04640625 2.7421875 0.0703125 C4.10730469 0.09738281 4.10730469 0.09738281 5.5 0.125 C6.19867187 0.14820313 6.89734375 0.17140625 7.6171875 0.1953125 C7.6171875 1.1853125 7.6171875 2.1753125 7.6171875 3.1953125 C3.6571875 2.8653125 -0.3028125 2.5353125 -4.3828125 2.1953125 C-2.3828125 0.1953125 -2.3828125 0.1953125 0 0 Z " fill="#38AE5B" transform="translate(865.3828125,538.8046875)"/>
<path d="M0 0 C0.99 0.33 1.98 0.66 3 1 C0.69 3.31 -1.62 5.62 -4 8 C-4.99 7.67 -5.98 7.34 -7 7 C-4.69 4.69 -2.38 2.38 0 0 Z " fill="#1FA645" transform="translate(1128,440)"/>
<path d="M0 0 C1.485 0.99 1.485 0.99 3 2 C2.67 2.66 2.34 3.32 2 4 C1.34 4 0.68 4 0 4 C0 7.96 0 11.92 0 16 C-0.33 16 -0.66 16 -1 16 C-1.02685095 13.52076199 -1.04676547 11.0418116 -1.0625 8.5625 C-1.07506836 7.50192383 -1.07506836 7.50192383 -1.08789062 6.41992188 C-1.09653588 4.61306441 -1.05220011 2.80612397 -1 1 C-0.67 0.67 -0.34 0.34 0 0 Z " fill="#E21722" transform="translate(385,984)"/>
<path d="M0 0 C2.25 0.25 2.25 0.25 4 1 C1.6875 3.5 1.6875 3.5 -1 6 C-1.99 6 -2.98 6 -4 6 C-4 4 -4 4 -2.25 1.8125 C-1.5075 1.214375 -0.765 0.61625 0 0 Z " fill="#E71325" transform="translate(289,672)"/>
<path d="M0 0 C0.33 0.99 0.66 1.98 1 3 C-0.40445835 5.2636564 -2.1967913 7.0208685 -4 9 C-4.8125 7.3125 -4.8125 7.3125 -5 5 C-2.5625 2.25 -2.5625 2.25 0 0 Z " fill="#23AC4A" transform="translate(978,588)"/>
<path d="M0 0 C0.66 0.99 1.32 1.98 2 3 C0.68 4.65 -0.64 6.3 -2 8 C-3.32 7.67 -4.64 7.34 -6 7 C-4.02 4.69 -2.04 2.38 0 0 Z " fill="#17AC3B" transform="translate(1145,422)"/>
<path d="M0 0 C2.475 0.495 2.475 0.495 5 1 C5 1.66 5 2.32 5 3 C6.32 3.66 7.64 4.32 9 5 C7.68 5.33 6.36 5.66 5 6 C3.35 4.02 1.7 2.04 0 0 Z " fill="#159F47" transform="translate(919,175)"/>
<path d="M0 0 C0.66 0.99 1.32 1.98 2 3 C1.34 3 0.68 3 0 3 C-0.66 4.32 -1.32 5.64 -2 7 C-3.32 6.67 -4.64 6.34 -6 6 C-4.02 4.02 -2.04 2.04 0 0 Z " fill="#1DA152" transform="translate(969,597)"/>
<path d="M0 0 C3.7952131 1.49097658 5.61042731 3.75700849 8 7 C6.35 6.67 4.7 6.34 3 6 C3 5.34 3 4.68 3 4 C2.34 3.67 1.68 3.34 1 3 C0.67 2.01 0.34 1.02 0 0 Z " fill="#E61221" transform="translate(259,988)"/>
<path d="M0 0 C0.66 0.66 1.32 1.32 2 2 C0.02 4.31 -1.96 6.62 -4 9 C-4.33 7.68 -4.66 6.36 -5 5 C-2.5625 2.25 -2.5625 2.25 0 0 Z " fill="#EE0928" transform="translate(158,807)"/>
<path d="M0 0 C-0.34879632 3.25543229 -1.02133261 4.01873107 -3.5625 6.25 C-4.366875 6.8275 -5.17125 7.405 -6 8 C-5.62403791 5.21788056 -5.32681541 3.4120716 -3.5625 1.1875 C-2 0 -2 0 0 0 Z " fill="#17B438" transform="translate(1062,507)"/>
<path d="M0 0 C0.99 0.33 1.98 0.66 3 1 C3 1.66 3 2.32 3 3 C3.99 3.33 4.98 3.66 6 4 C5.67 4.99 5.34 5.98 5 7 C2.5 5.1875 2.5 5.1875 0 3 C0 2.01 0 1.02 0 0 Z " fill="#1CA04C" transform="translate(877,655)"/>
<path d="M0 0 C2.5654594 2.5654594 2.54046087 4.47686668 3 8 C2.01 8.495 2.01 8.495 1 9 C-0.61949011 6.42786866 -1.04408751 5.32330841 -0.625 2.25 C-0.41875 1.5075 -0.2125 0.765 0 0 Z " fill="#1DA449" transform="translate(450,509)"/>
<path d="M0 0 C3.465 1.98 3.465 1.98 7 4 C7 4.99 7 5.98 7 7 C4.13302508 5.71480435 2.02392288 4.42870746 0 2 C0 1.34 0 0.68 0 0 Z " fill="#20A846" transform="translate(1037,291)"/>
<path d="M0 0 C1.98 0 3.96 0 6 0 C5.67 0.99 5.34 1.98 5 3 C3.35 3 1.7 3 0 3 C0 2.01 0 1.02 0 0 Z " fill="#EF0613" transform="translate(365,1088)"/>
<path d="M0 0 C2.31 0.66 4.62 1.32 7 2 C7 2.99 7 3.98 7 5 C1.25 3.25 1.25 3.25 -1 1 C-0.67 0.67 -0.34 0.34 0 0 Z " fill="#24B046" transform="translate(883,660)"/>
<path d="M0 0 C2.2477975 2.05233685 3.0022242 3.00667261 4 6 C3.01 6.33 2.02 6.66 1 7 C-0.0625 4.625 -0.0625 4.625 -1 2 C-0.67 1.34 -0.34 0.68 0 0 Z " fill="#ED0D25" transform="translate(382,610)"/>
<path d="M0 0 C0.66 0.33 1.32 0.66 2 1 C0.9024777 3.99324263 0.32317108 4.84610901 -2.625 6.25 C-3.40875 6.4975 -4.1925 6.745 -5 7 C-3.70700306 4.11562221 -2.34058637 2.12780579 0 0 Z " fill="#1EA249" transform="translate(1019,547)"/>
<path d="M0 0 C2.375 0.6875 2.375 0.6875 5 2 C6.3125 4.625 6.3125 4.625 7 7 C4.13302508 5.71480435 2.02392288 4.42870746 0 2 C0 1.34 0 0.68 0 0 Z " fill="#18A045" transform="translate(1085,339)"/>
<path d="M0 0 C0.33 0.99 0.66 1.98 1 3 C0 4 0 4 -2.5625 4.0625 C-3.7690625 4.0315625 -3.7690625 4.0315625 -5 4 C-4.67 3.01 -4.34 2.02 -4 1 C-1.9375 0.3125 -1.9375 0.3125 0 0 Z " fill="#15AC36" transform="translate(476,275)"/>
<path d="" fill="#FF0000" transform="translate(0,0)"/>
<path d="" fill="#00FF00" transform="translate(0,0)"/>
<path d="" fill="#00FF00" transform="translate(0,0)"/>
</svg>
