<?xml version="1.0" encoding="UTF-8"?>
<svg version="1.1" xmlns="http://www.w3.org/2000/svg" width="1254" height="1254">
<path d="M0 0 C0.85602814 -0.0033284 1.71205627 -0.0066568 2.59402466 -0.01008606 C4.40089384 -0.01512367 6.20777224 -0.01749537 8.01464844 -0.01733398 C10.71566081 -0.01949749 13.41624841 -0.03762341 16.1171875 -0.05664062 C31.21531219 -0.10713198 46.07289575 0.77205986 60.7578125 4.54296875 C61.64509033 4.76428467 62.53236816 4.98560059 63.4465332 5.21362305 C80.08780278 9.43830862 95.48381937 16.02020411 110.5078125 24.29296875 C111.2292041 24.68822754 111.9505957 25.08348633 112.69384766 25.49072266 C119.37629861 29.2562923 125.628175 33.538 130.8828125 39.16796875 C133.39159832 41.76478214 135.84679677 43.93728072 138.8203125 45.98046875 C147.01162425 51.93924651 152.34108603 60.5479134 157.19921875 69.265625 C158.80743676 72.03802867 160.55481109 74.58249089 162.4453125 77.16796875 C168.98958482 86.34751851 173.05429594 96.63087332 176.8828125 107.16796875 C177.40746734 108.57294832 177.9322111 109.97789468 178.45703125 111.3828125 C178.99586803 112.85247039 179.53364011 114.32251911 180.0703125 115.79296875 C180.32039063 116.46094482 180.57046875 117.1289209 180.828125 117.81713867 C184.97302338 129.37384351 185.22747213 140.75445961 185.19848633 152.8984375 C185.19535082 155.63452975 185.21876206 158.36951136 185.24414062 161.10546875 C185.30695625 178.52522314 183.24683898 194.87881795 176.8828125 211.16796875 C176.43856934 212.34697754 176.43856934 212.34697754 175.98535156 213.54980469 C170.68412114 227.47821372 163.74047392 239.22414112 154.8828125 251.16796875 C154.02740315 252.3610892 153.17313694 253.55503052 152.3203125 254.75 C144.17965357 265.94983462 134.3136672 276.30752629 122.8828125 284.16796875 C121.4596875 285.34359375 121.4596875 285.34359375 120.0078125 286.54296875 C117.8828125 288.16796875 117.8828125 288.16796875 115.8828125 288.16796875 C115.63660156 288.72871094 115.39039063 289.28945313 115.13671875 289.8671875 C110.19968789 298.92610082 101.30831356 305.55096804 92.8828125 311.16796875 C94.0739416 317.48775143 95.93058054 323.13801464 98.4453125 329.04296875 C110.95537706 359.51605497 119.92576926 391.60691233 124.8828125 424.16796875 C125.07891113 425.40933594 125.27500977 426.65070313 125.47705078 427.9296875 C131.71453616 468.9349062 131.56074225 512.22556884 124.8828125 553.16796875 C124.77626343 553.83153381 124.66971436 554.49509888 124.55993652 555.17877197 C118.56735712 592.23083442 107.44333661 628.02920249 91.8828125 662.16796875 C91.49657715 663.01875 91.1103418 663.86953125 90.71240234 664.74609375 C82.09688306 683.59232177 72.51528769 701.99643255 60.8828125 719.16796875 C60.38104492 719.9170752 59.87927734 720.66618164 59.36230469 721.43798828 C53.20066203 730.63285788 46.99974632 739.6778506 39.8828125 748.16796875 C39.17898438 749.04324219 38.47515625 749.91851563 37.75 750.8203125 C32.98613812 756.7377925 28.02129767 762.39246849 22.8515625 767.953125 C20.85609462 770.00475996 20.85609462 770.00475996 19.8828125 772.16796875 C19.2228125 772.16796875 18.5628125 772.16796875 17.8828125 772.16796875 C17.64812256 772.72718018 17.41343262 773.2863916 17.17163086 773.86254883 C15.56540691 776.73573935 13.5868686 778.72330221 11.26171875 781.0546875 C10.57262672 781.7466497 10.57262672 781.7466497 9.86961365 782.45259094 C8.89445635 783.42910675 7.91677867 784.40311131 6.93676758 785.37475586 C5.4744411 786.82654995 4.02287581 788.28846404 2.57226562 789.75195312 C-3.65970825 795.99320916 -10.22090613 801.66675442 -17.1171875 807.16796875 C-18.48499483 808.31232009 -19.84867835 809.46162951 -21.20703125 810.6171875 C-35.960989 823.07700979 -51.71519498 834.01798425 -68.22460938 844.02099609 C-70.1257742 845.17317261 -72.02010364 846.33602477 -73.9140625 847.5 C-82.47273623 852.73159319 -91.16961071 857.63260967 -100.1171875 862.16796875 C-100.85050293 862.54002441 -101.58381836 862.91208008 -102.33935547 863.29541016 C-165.85533425 895.1927763 -233.48919008 907.95313482 -304.1171875 907.16796875 C-305.14038086 907.16071777 -306.16357422 907.1534668 -307.21777344 907.14599609 C-371.65408828 906.48251571 -437.22901865 885.47234627 -493.1171875 854.16796875 C-494.68436523 853.29797241 -494.68436523 853.29797241 -496.28320312 852.41040039 C-504.09057519 848.04054345 -511.62752911 843.36268636 -519.04980469 838.3684082 C-520.74531193 837.22836792 -522.44645516 836.09714151 -524.1484375 834.96679688 C-539.28382183 824.86701615 -553.30379311 813.47847924 -567.14453125 801.69140625 C-568.91880499 800.18525535 -570.70022644 798.68736851 -572.49609375 797.20703125 C-574.0716451 795.90202912 -575.60180731 794.54238334 -577.1171875 793.16796875 C-577.1171875 792.50796875 -577.1171875 791.84796875 -577.1171875 791.16796875 C-577.7059668 790.90371094 -578.29474609 790.63945313 -578.90136719 790.3671875 C-581.19791334 789.12427931 -582.72551916 787.81790394 -584.5703125 785.98046875 C-585.1890625 785.36429688 -585.8078125 784.748125 -586.4453125 784.11328125 C-587.07953125 783.47132813 -587.71375 782.829375 -588.3671875 782.16796875 C-589.016875 781.52601563 -589.6665625 780.8840625 -590.3359375 780.22265625 C-590.94953125 779.60648438 -591.563125 778.9903125 -592.1953125 778.35546875 C-592.75637695 777.79214844 -593.31744141 777.22882812 -593.89550781 776.6484375 C-595.1171875 775.16796875 -595.1171875 775.16796875 -595.1171875 773.16796875 C-596.1071875 772.83796875 -597.0971875 772.50796875 -598.1171875 772.16796875 C-599.51953125 770.8125 -599.51953125 770.8125 -601.0546875 768.98046875 C-601.66570312 768.25859375 -602.27671875 767.53671875 -602.90625 766.79296875 C-603.63585937 765.92671875 -604.36546875 765.06046875 -605.1171875 764.16796875 C-606.04002326 763.10404106 -606.96461743 762.04163696 -607.890625 760.98046875 C-614.60488237 753.26602914 -621.04867127 745.40299773 -627.1171875 737.16796875 C-627.57561035 736.54615723 -628.0340332 735.9243457 -628.50634766 735.28369141 C-671.3634073 676.73413141 -696.69589104 607.86256447 -706.1171875 536.16796875 C-706.23723145 535.26900879 -706.35727539 534.37004883 -706.48095703 533.44384766 C-714.98840652 465.92943855 -703.82156469 393.85184487 -678.1171875 331.16796875 C-677.76543457 330.30510254 -677.41368164 329.44223633 -677.05126953 328.55322266 C-657.99262577 282.11865734 -630.91303582 238.51185338 -596.56640625 201.80859375 C-593.76246063 198.78552 -591.09246149 195.66634236 -588.45703125 192.49609375 C-587.1171875 191.16796875 -587.1171875 191.16796875 -585.1171875 191.16796875 C-584.4571875 189.84796875 -583.7971875 188.52796875 -583.1171875 187.16796875 C-582.4571875 187.16796875 -581.7971875 187.16796875 -581.1171875 187.16796875 C-580.85550781 186.56984375 -580.59382813 185.97171875 -580.32421875 185.35546875 C-579.03691497 183.02249103 -577.85171289 181.85117592 -575.8046875 180.16796875 C-572.6546012 177.51167976 -569.61630252 174.77893515 -566.62158203 171.95141602 C-554.06607793 160.13524562 -540.1920662 150.08823395 -526.1171875 140.16796875 C-525.50858887 139.73661621 -524.89999023 139.30526367 -524.27294922 138.86083984 C-479.61294044 107.42029496 -427.28426565 86.67845882 -374.1171875 75.16796875 C-372.80596924 74.88228027 -372.80596924 74.88228027 -371.46826172 74.59082031 C-300.70064667 59.55932766 -229.18595168 67.1569113 -161.28662109 90.78051758 C-160.3786377 91.09529053 -159.4706543 91.41006348 -158.53515625 91.734375 C-157.74906982 92.01224854 -156.9629834 92.29012207 -156.15307617 92.57641602 C-153.9903934 93.30748005 -153.9903934 93.30748005 -151.1171875 93.16796875 C-150.76527344 92.41773438 -150.41335938 91.6675 -150.05078125 90.89453125 C-143.83795651 78.01468049 -135.52868622 66.04554446 -125.1171875 56.16796875 C-124.38822266 55.40806641 -124.38822266 55.40806641 -123.64453125 54.6328125 C-119.36458223 50.19097415 -114.73716525 46.33790354 -109.921875 42.48828125 C-107.29764701 40.31726255 -104.87747811 38.03334217 -102.4296875 35.66796875 C-96.07789742 29.88995368 -88.69028324 26.09733612 -81.1171875 22.16796875 C-80.49199219 21.84022461 -79.86679687 21.51248047 -79.22265625 21.17480469 C-75.22587488 19.08869021 -71.18965545 17.10165857 -67.1171875 15.16796875 C-66.22773437 14.74 -65.33828125 14.31203125 -64.421875 13.87109375 C-49.66900774 7.24735743 -33.20973924 2.71855316 -17.1171875 1.16796875 C-15.92335449 1.00047119 -14.72952148 0.83297363 -13.49951172 0.66040039 C-8.99142029 0.0948508 -4.53914038 0.00632144 0 0 Z M-11.1171875 135.16796875 C-12.17486328 135.45994141 -12.17486328 135.45994141 -13.25390625 135.7578125 C-20.26369724 138.0142976 -25.78336261 142.72520474 -29.94140625 148.79296875 C-31.88856185 152.72609369 -32.95892725 156.95864697 -34.16137695 161.16552734 C-35.86202919 166.89509774 -38.34227788 171.49797746 -42.1171875 176.16796875 C-40.75479532 179.01020072 -39.56485581 181.12824516 -37.1171875 183.16796875 C-36.4571875 183.16796875 -35.7971875 183.16796875 -35.1171875 183.16796875 C-35.1171875 183.82796875 -35.1171875 184.48796875 -35.1171875 185.16796875 C-33.66303796 186.43110712 -32.14941498 187.62577194 -30.6171875 188.79296875 C-24.49736303 193.66336221 -19.06287978 199.07948924 -13.6015625 204.67041016 C-12.94800781 205.33733887 -12.29445313 206.00426758 -11.62109375 206.69140625 C-11.04174072 207.28872559 -10.4623877 207.88604492 -9.86547852 208.50146484 C-6.22143258 212.16874197 -6.22143258 212.16874197 -1.40234375 213.125 C2.87193911 211.87981653 6.54871865 209.98243046 10.4453125 207.85546875 C11.18716797 207.46423828 11.92902344 207.07300781 12.69335938 206.66992188 C20.22921323 202.62351059 25.4334288 197.6847575 30.8828125 191.16796875 C31.55957031 190.3790625 32.23632812 189.59015625 32.93359375 188.77734375 C40.17735912 180.1011954 45.41615498 171.81816857 44.8828125 160.16796875 C43.78942284 152.48007271 40.49090963 147.41236084 34.8828125 142.16796875 C34.36976563 141.68457031 33.85671875 141.20117188 33.328125 140.703125 C21.4797064 131.0062849 2.92704617 131.14448559 -11.1171875 135.16796875 Z " fill="#0D0D0D" transform="translate(893.1171875,142.83203125)"/>
<path d="M0 0 C0.74790802 -0.00701431 1.49581604 -0.01402863 2.26638794 -0.02125549 C4.67635165 -0.03869641 7.08606918 -0.04511077 9.49609375 -0.046875 C10.73354843 -0.04788712 10.73354843 -0.04788712 11.9960022 -0.04891968 C31.98562907 -0.02298588 50.87917752 1.92859807 69.93359375 8.203125 C71.08504883 8.5741333 71.08504883 8.5741333 72.25976562 8.95263672 C105.7913755 19.92549098 135.01423737 42.26184665 151.421875 73.89453125 C155.99893973 83.06343437 159.69134554 92.16963046 161.93359375 102.203125 C162.23007813 103.38648438 162.5265625 104.56984375 162.83203125 105.7890625 C170.69261497 140.16595683 163.38303971 177.48900608 144.93359375 207.203125 C139.4141238 215.49707659 132.76899544 222.97814083 125.93359375 230.203125 C125.17691406 231.01265625 124.42023438 231.8221875 123.640625 232.65625 C113.46114148 243.21767173 101.49536096 251.56425711 89.70385742 260.20849609 C83.99348064 264.40063087 78.37454952 268.6639851 72.93359375 273.203125 C72.18207031 273.79738281 71.43054688 274.39164062 70.65625 275.00390625 C57.94652402 285.49757745 48.2797346 302.36158536 46.67163086 318.89672852 C46.403532 322.89338126 46.16242949 326.88878533 45.98632812 330.890625 C45.88868164 332.36402344 45.88868164 332.36402344 45.7890625 333.8671875 C45.74418701 334.74842285 45.69931152 335.6296582 45.65307617 336.53759766 C44.66367998 340.20309736 42.82987935 342.80661603 39.93359375 345.203125 C37.07372142 345.81402521 35.04698562 346.02810984 32.19335938 345.97949219 C31.04851326 345.99526306 31.04851326 345.99526306 29.88053894 346.01135254 C27.3661327 346.03768851 24.85427415 346.0203072 22.33984375 346 C20.58776363 346.00404352 18.83568679 346.00986811 17.08361816 346.01739502 C13.41495659 346.02623273 9.74717267 346.01341114 6.07861328 345.98535156 C1.38041583 345.95116435 -3.31572532 345.97085198 -8.01384735 346.00678635 C-11.63083335 346.02848808 -15.24733331 346.02155827 -18.86433411 346.00601959 C-20.59626002 346.00202258 -22.32823033 346.00690984 -24.06010437 346.02089691 C-26.48331208 346.03617339 -28.90321026 346.01286979 -31.32617188 345.97949219 C-32.03904861 345.99163757 -32.75192535 346.00378296 -33.48640442 346.01629639 C-36.26380641 345.9455662 -38.43933532 345.71311839 -40.63412571 343.92810726 C-43.91962538 340.17762181 -44.68360897 337.50413157 -44.625 332.58203125 C-44.61960205 331.32414795 -44.6142041 330.06626465 -44.60864258 328.77026367 C-44.57539531 327.43534161 -44.54045252 326.10046082 -44.50390625 324.765625 C-44.4817976 323.39625398 -44.46056005 322.02686862 -44.44018555 320.6574707 C-43.71779297 281.7295082 -27.57202526 251.10572949 0.01171875 223.96484375 C3.19216867 221.04943132 6.55104876 218.36194206 9.91015625 215.65625 C13.68890858 212.59028558 17.39340541 209.44252786 21.09619141 206.28564453 C24.49161178 203.39868308 27.94208516 200.59900246 31.43359375 197.828125 C45.29942238 186.44844348 57.39694919 173.673677 62.93359375 156.203125 C63.46339844 154.62724609 63.46339844 154.62724609 64.00390625 153.01953125 C67.35883734 139.24739815 65.42844727 125.56134346 58.2890625 113.40234375 C49.15356585 99.48256895 34.62154853 92.88711543 18.68359375 89.515625 C-0.78358286 87.89336028 -19.72157675 90.32408013 -35.41796875 102.75 C-50.8633479 115.83946701 -58.99659308 133.33665575 -65.8984375 151.953125 C-67.31970873 154.69109232 -68.31773203 155.78445443 -71.06640625 157.203125 C-76.79484512 157.80130351 -81.7422315 156.44092568 -87.19140625 154.890625 C-88.89413204 154.42432106 -90.59725856 153.95947795 -92.30078125 153.49609375 C-93.53344727 153.15843994 -93.53344727 153.15843994 -94.79101562 152.81396484 C-98.66887261 151.772935 -102.58071172 150.89793693 -106.49609375 150.01171875 C-128.41053956 145.04860028 -128.41053956 145.04860028 -138.62890625 142.203125 C-139.59957031 141.935 -140.57023438 141.666875 -141.5703125 141.390625 C-144.89866034 139.80718565 -146.27087319 138.43420651 -148.06640625 135.203125 C-148.00271236 132.25091325 -147.72453067 130.03390376 -147.06640625 127.203125 C-146.87498047 126.35991699 -146.68355469 125.51670898 -146.48632812 124.64794922 C-145.80378173 121.80010077 -145.06982667 118.97052843 -144.31640625 116.140625 C-144.04618652 115.12347412 -143.7759668 114.10632324 -143.49755859 113.05834961 C-132.69021024 72.91086334 -111.10991601 41.05542694 -75.0703125 19.82421875 C-52.89561892 7.19155562 -25.50071201 0.16127999 0 0 Z " fill="#0D0D0D" transform="translate(893.06640625,165.796875)"/>
<path d="M0 0 C4.0637688 0.49331258 8.10503713 1.10523924 12.14935303 1.7371521 C29.34130419 4.39983902 46.60891802 6.46006094 63.88841248 8.45695114 C65.83768607 8.68316962 67.78658446 8.91261363 69.73547363 9.14212036 C101.10581454 12.85483519 101.10581454 12.85483519 132.64984131 14.07583618 C136.72075304 14.17405752 140.37325659 14.51797511 143.48193359 17.35009766 C146.57454338 21.10894333 148.71346304 25.33421767 150.84179688 29.68945312 C152.34974227 32.69771519 154.06128444 35.55867885 155.78857422 38.44482422 C161.15151918 47.44446112 166.17421371 56.64882719 171.25 65.8125 C171.58420959 66.41411957 171.91841919 67.01573914 172.26275635 67.6355896 C175.94338296 74.26839728 179.54225543 80.93935974 182.984375 87.69921875 C183.56413086 88.83576904 184.14388672 89.97231934 184.74121094 91.14331055 C186 94 186 94 186 97 C186.66 97 187.32 97 188 97 C193.92906051 108.68542994 193.92906051 108.68542994 195.625 112.75 C196.99132073 115.97948536 198.58759733 118.96819534 200.328125 122.0078125 C201.26957133 124.79931033 200.90869743 126.18871731 200 129 C198.6500241 131.47784039 197.27068623 133.81954922 195.75 136.1875 C195.30817383 136.88383545 194.86634766 137.5801709 194.41113281 138.29760742 C189.48328031 145.96135588 184.14015443 153.31790501 178.73388672 160.6484375 C176.95329163 163.06334765 175.18112871 165.4842763 173.41015625 167.90625 C166.7258502 177.03232408 159.95671032 186.07970209 153 195 C152.10934315 196.14971491 151.21871916 197.29945528 150.328125 198.44921875 C141.91944806 209.26761762 133.19556902 219.81731458 123.9140625 229.90234375 C122.3883662 231.57438234 120.93138838 233.30904924 119.5 235.0625 C113.97007672 239.34819054 104.89642866 238.17919973 98.1328125 238.23828125 C97.19666611 238.24802979 96.26051971 238.25777832 95.29600525 238.26782227 C61.3832187 238.54644824 27.63620525 237.19394158 -5.51757812 229.54638672 C-9.280345 228.71819314 -13.0725562 228.11371221 -16.875 227.5 C-26.05480423 225.9653584 -35.07862795 223.64235904 -44 221 C-45.01271973 220.74428223 -46.02543945 220.48856445 -47.06884766 220.22509766 C-50.62382975 218.73926556 -51.32877831 217.6098819 -53.04296875 214.21484375 C-53.55408203 213.22121826 -54.06519531 212.22759277 -54.59179688 211.20385742 C-55.11837891 210.12595947 -55.64496094 209.04806152 -56.1875 207.9375 C-56.74630859 206.82802002 -57.30511719 205.71854004 -57.88085938 204.57543945 C-63.68478341 192.91089961 -68.9379343 181.00206011 -74 169 C-74.41121094 168.0301416 -74.82242187 167.0602832 -75.24609375 166.06103516 C-77.82674355 159.92998202 -80.27223647 153.75842498 -82.64306641 147.54345703 C-84.99790596 141.39409733 -87.41067415 135.2674641 -89.8215332 129.13989258 C-90.40505098 127.65584581 -90.98771586 126.17146345 -91.56958008 124.68676758 C-92.42349622 122.50791562 -93.27982295 120.33002531 -94.13671875 118.15234375 C-94.52424568 117.16173195 -94.52424568 117.16173195 -94.91960144 116.15110779 C-95.91827965 113.6197338 -96.90100381 111.17519503 -98.24145508 108.80297852 C-99.238588 106.43290236 -98.94505567 105.36249081 -98 103 C-96.19722063 100.70974909 -94.3772308 98.54224457 -92.4375 96.375 C-91.33073971 95.11311076 -90.22527282 93.85008597 -89.12109375 92.5859375 C-88.58210449 91.97073242 -88.04311523 91.35552734 -87.48779297 90.72167969 C-85.59405354 88.53023722 -83.7892748 86.27725884 -82 84 C-76.85939396 77.50269793 -71.41775878 71.26591152 -66 65 C-64.88534562 63.7070925 -63.77076295 62.41412317 -62.65625 61.12109375 C-57.90480521 55.6166159 -53.14382557 50.12895263 -48.25 44.75 C-45.2992512 41.49989987 -42.49702373 38.17382667 -39.75 34.75 C-35.09690338 28.99485417 -30.07905949 23.62866452 -25.01953125 18.234375 C-22.65697754 15.71373491 -20.33628636 13.16399393 -18.0625 10.5625 C-17.53527344 9.96566406 -17.00804687 9.36882813 -16.46484375 8.75390625 C-14.95337054 6.99292289 -14.95337054 6.99292289 -13.56640625 4.96484375 C-9.63888675 -0.38892944 -6.47517544 -0.54198513 0 0 Z " fill="#FDFDFD" transform="translate(563,680)"/>
<path d="M0 0 C1.28404221 -0.0049926 1.28404221 -0.0049926 2.59402466 -0.01008606 C4.40089384 -0.01512367 6.20777224 -0.01749537 8.01464844 -0.01733398 C10.71566081 -0.01949749 13.41624841 -0.03762341 16.1171875 -0.05664062 C31.21531219 -0.10713198 46.07289575 0.77205986 60.7578125 4.54296875 C61.64509033 4.76428467 62.53236816 4.98560059 63.4465332 5.21362305 C80.08780278 9.43830862 95.48381937 16.02020411 110.5078125 24.29296875 C111.2292041 24.68822754 111.9505957 25.08348633 112.69384766 25.49072266 C119.37629861 29.2562923 125.628175 33.538 130.8828125 39.16796875 C133.39159832 41.76478214 135.84679677 43.93728072 138.8203125 45.98046875 C147.01162425 51.93924651 152.34108603 60.5479134 157.19921875 69.265625 C158.80743676 72.03802867 160.55481109 74.58249089 162.4453125 77.16796875 C168.98958482 86.34751851 173.05429594 96.63087332 176.8828125 107.16796875 C177.40746734 108.57294832 177.9322111 109.97789468 178.45703125 111.3828125 C178.99586803 112.85247039 179.53364011 114.32251911 180.0703125 115.79296875 C180.32039063 116.46094482 180.57046875 117.1289209 180.828125 117.81713867 C184.97302338 129.37384351 185.22747213 140.75445961 185.19848633 152.8984375 C185.19535082 155.63452975 185.21876206 158.36951136 185.24414062 161.10546875 C185.30695625 178.52522314 183.24683898 194.87881795 176.8828125 211.16796875 C176.58665039 211.95397461 176.29048828 212.73998047 175.98535156 213.54980469 C170.68412114 227.47821372 163.74047392 239.22414112 154.8828125 251.16796875 C154.02740315 252.3610892 153.17313694 253.55503052 152.3203125 254.75 C144.17965357 265.94983462 134.3136672 276.30752629 122.8828125 284.16796875 C121.9340625 284.95171875 120.9853125 285.73546875 120.0078125 286.54296875 C117.8828125 288.16796875 117.8828125 288.16796875 115.8828125 288.16796875 C115.63660156 288.72871094 115.39039063 289.28945313 115.13671875 289.8671875 C110.19968789 298.92610082 101.30831356 305.55096804 92.8828125 311.16796875 C91.8309375 311.37421875 90.7790625 311.58046875 89.6953125 311.79296875 C83.22411669 313.54415916 78.77250948 319.58123514 75.1328125 324.91796875 C70.04695983 333.8738642 68.60822514 342.5876168 67.8828125 352.73046875 C66.85647502 366.58712829 64.47692782 375.50599217 53.8828125 385.16796875 C50.11126476 388.0697361 46.75807308 389.75890943 41.8828125 389.16796875 C44.48158784 391.86039366 47.12843783 394.1917055 50.1328125 396.41796875 C60.64954784 404.55940216 69.27546458 414.49776198 73.8828125 427.16796875 C74.22054687 428.03292969 74.55828125 428.89789062 74.90625 429.7890625 C81.19000012 446.21148745 81.32876333 466.94090045 74.18359375 483.125 C64.55716102 503.80481396 50.127602 518.90117254 28.69921875 527.17578125 C8.00257502 534.46697058 -13.35483457 533.82797422 -33.4765625 524.6328125 C-40.7085513 520.90647085 -47.0397989 516.56770163 -53.1171875 511.16796875 C-53.75269531 510.60335938 -54.38820313 510.03875 -55.04296875 509.45703125 C-68.83688368 496.42774575 -76.19276476 478.06481391 -77.35546875 459.328125 C-77.90047422 439.33566974 -71.82503234 420.91766189 -58.55078125 405.7109375 C-46.74318415 393.37266188 -46.74318415 393.37266188 -40.1171875 391.16796875 C-40.1171875 390.50796875 -40.1171875 389.84796875 -40.1171875 389.16796875 C-41.0865625 389.12671875 -42.0559375 389.08546875 -43.0546875 389.04296875 C-49.83336901 388.04126075 -55.28777663 383.57185941 -59.4921875 378.35546875 C-70.27229418 362.6481665 -67.51057006 337.29049593 -64.38891602 319.5559082 C-63.98597869 317.42169652 -63.55857714 315.29452097 -63.1171875 313.16796875 C-62.900625 312.08644531 -62.6840625 311.00492187 -62.4609375 309.890625 C-54.99261964 276.77219164 -33.73441651 244.9855455 -6.8125 224.40625 C-4.64104413 222.81277231 -4.64104413 222.81277231 -2.1171875 220.16796875 C-1.88774518 216.55310843 -1.88774518 216.55310843 -2.1171875 213.16796875 C-1.62839111 212.91104248 -1.13959473 212.65411621 -0.63598633 212.3894043 C1.60023012 211.21290818 3.83527747 210.03420759 6.0703125 208.85546875 C6.83923828 208.45134766 7.60816406 208.04722656 8.40039062 207.63085938 C14.65702458 204.32800111 19.95160215 201.33399864 24.8828125 196.16796875 C25.6871875 195.41193359 25.6871875 195.41193359 26.5078125 194.640625 C35.47664 186.1322507 43.27620156 175.61417115 43.9765625 162.97265625 C43.73561399 155.76427998 41.54775919 149.89504853 36.52734375 144.69140625 C35.98464844 144.18867188 35.44195313 143.6859375 34.8828125 143.16796875 C34.39167969 142.70648438 33.90054688 142.245 33.39453125 141.76953125 C23.63109212 133.77465553 10.87033742 133.32871674 -1.1171875 134.16796875 C-4.5516415 134.58082914 -7.79449835 135.21179921 -11.1171875 136.16796875 C-11.83390625 136.37421875 -12.550625 136.58046875 -13.2890625 136.79296875 C-19.90486749 138.98165611 -24.92851137 142.98907989 -28.91015625 148.765625 C-30.54533458 152.02010615 -31.49082047 155.43081241 -32.4921875 158.91796875 C-34.52518003 165.99448853 -37.12558992 172.58494966 -42.1171875 178.16796875 C-43.1071875 178.16796875 -44.0971875 178.16796875 -45.1171875 178.16796875 C-45.3234375 179.32296875 -45.5296875 180.47796875 -45.7421875 181.66796875 C-47.82528455 189.79923034 -53.04224849 194.59107723 -59.96875 198.94140625 C-60.67773438 199.34617187 -61.38671875 199.7509375 -62.1171875 200.16796875 C-62.69028656 200.5165947 -63.26338562 200.86522064 -63.85385132 201.22441101 C-73.09476347 205.07683658 -85.12158285 201.40692754 -94.328125 198.9921875 C-95.63383272 198.66175312 -96.93988178 198.33266499 -98.24624634 198.00483704 C-100.95638441 197.32124537 -103.66351441 196.62718602 -106.36865234 195.92407227 C-109.81428052 195.02857287 -113.26429711 194.15171856 -116.71642113 193.28163433 C-120.04692182 192.4414094 -123.37511587 191.59221786 -126.703125 190.7421875 C-127.93034271 190.42956467 -129.15756042 190.11694183 -130.42196655 189.79484558 C-136.48547467 188.22008171 -142.28004059 186.4324008 -148.1171875 184.16796875 C-149.44616334 183.89575379 -150.77948775 183.64343973 -152.1171875 183.41796875 C-157.93190519 182.0215208 -162.30823448 178.01433286 -165.47265625 173.03515625 C-173.17640511 157.96139495 -167.87711405 141.45418252 -163.1171875 126.16796875 C-162.19172144 123.79376304 -161.1592622 121.49545977 -160.1171875 119.16796875 C-159.4403819 117.05262956 -158.79366335 114.92739124 -158.1796875 112.79296875 C-156.7758542 108.1224207 -155.18126253 103.74008755 -153.10546875 99.33203125 C-152.05871722 97.03993501 -151.18521084 94.71602067 -150.3046875 92.35546875 C-145.01766244 79.12769949 -136.29639039 67.06806446 -126.1171875 57.16796875 C-125.50617187 56.53375 -124.89515625 55.89953125 -124.265625 55.24609375 C-119.75234177 50.59363439 -114.95223385 46.49306386 -109.88671875 42.453125 C-107.27221619 40.29588382 -104.86576384 38.02216018 -102.4296875 35.66796875 C-96.07789742 29.88995368 -88.69028324 26.09733612 -81.1171875 22.16796875 C-80.49199219 21.84022461 -79.86679687 21.51248047 -79.22265625 21.17480469 C-75.22587488 19.08869021 -71.18965545 17.10165857 -67.1171875 15.16796875 C-65.78300781 14.52601563 -65.78300781 14.52601563 -64.421875 13.87109375 C-49.66900774 7.24735743 -33.20973924 2.71855316 -17.1171875 1.16796875 C-15.92335449 1.00047119 -14.72952148 0.83297363 -13.49951172 0.66040039 C-8.99142029 0.0948508 -4.53914038 0.00632144 0 0 Z M-111.5859375 71.81640625 C-118.00268473 79.34026832 -123.07581926 87.69370094 -128.1171875 96.16796875 C-128.98537109 97.58916016 -128.98537109 97.58916016 -129.87109375 99.0390625 C-138.73226577 114.23955863 -148.45688141 139.2214366 -148.0546875 156.91796875 C-146.6883539 160.19716938 -144.81415092 161.85773123 -142.1171875 164.16796875 C-139.45196027 165.17028103 -137.06871968 165.91628403 -134.32421875 166.5546875 C-133.57814865 166.74263382 -132.83207855 166.93058014 -132.06340027 167.1242218 C-129.68923511 167.71782892 -127.30990562 168.28667994 -124.9296875 168.85546875 C-123.350523 169.24778863 -121.77174197 169.64165547 -120.19335938 170.03710938 C-113.26510004 171.75927864 -106.33827149 173.37151633 -99.32446289 174.70922852 C-94.48841287 175.71430959 -89.74506993 177.13089956 -84.99804688 178.48828125 C-76.61893009 180.85780523 -76.61893009 180.85780523 -68.421875 178.7578125 C-65.19385514 175.13039357 -63.87044417 171.25853304 -62.2421875 166.73046875 C-57.4847504 154.24107221 -52.07039067 143.26489448 -43.1171875 133.16796875 C-42.56417969 132.53246094 -42.01117187 131.89695312 -41.44140625 131.2421875 C-29.47632225 118.36330234 -12.79007733 113.03806174 4.3203125 111.94921875 C21.30729874 111.49421019 37.71042877 116.23418333 50.8828125 127.16796875 C58.90798633 134.78747445 64.77286785 145.89524625 65.28125 157.03515625 C65.29458413 158.70439211 65.28629506 160.37392265 65.2578125 162.04296875 C65.23932251 163.36603027 65.23932251 163.36603027 65.22045898 164.71582031 C64.73285095 183.66786893 54.97829494 198.15055178 41.8828125 211.16796875 C41.19316406 211.89371094 40.50351562 212.61945313 39.79296875 213.3671875 C34.56754406 218.80633099 28.76649234 223.46425767 22.8828125 228.16796875 C-9.30736731 254.2041436 -38.76568194 283.44024556 -43.71875 326.77734375 C-44.25824265 332.97791263 -44.41086084 339.1882315 -44.46728516 345.41015625 C-44.4839777 346.75603364 -44.51143927 348.10181778 -44.54931641 349.44726562 C-44.60425812 351.42134515 -44.62285212 353.3963298 -44.640625 355.37109375 C-44.66044434 356.53286133 -44.68026367 357.69462891 -44.70068359 358.89160156 C-43.97276552 362.97890721 -42.30511425 365.58183791 -39.1171875 368.16796875 C-36.25731517 368.77886896 -34.23057937 368.99295359 -31.37695312 368.94433594 C-30.61372238 368.95484985 -29.85049164 368.96536377 -29.06413269 368.97619629 C-26.54972645 369.00253226 -24.0378679 368.98515095 -21.5234375 368.96484375 C-19.77135738 368.96888727 -18.01928054 368.97471186 -16.26721191 368.98223877 C-12.59855034 368.99107648 -8.93076642 368.97825489 -5.26220703 368.95019531 C-0.56400958 368.9160081 4.13213157 368.93569573 8.8302536 368.9716301 C12.4472396 368.99333183 16.06373956 368.98640202 19.68074036 368.97086334 C21.41266627 368.96686633 23.14463658 368.97175359 24.87651062 368.98574066 C27.29971833 369.00101714 29.71961651 368.97771354 32.14257812 368.94433594 C33.21189323 368.96255402 33.21189323 368.96255402 34.30281067 368.98114014 C37.09036697 368.91015135 39.25891623 368.68469035 41.44686699 366.87259197 C44.23380037 363.65256361 45.51391372 361.17337844 45.703125 356.9375 C45.76371094 355.96876953 45.82429687 355.00003906 45.88671875 354.00195312 C45.92667969 353.00486328 45.96664062 352.00777344 46.0078125 350.98046875 C46.54768071 339.91317037 48.4220888 330.08621149 53.5078125 320.16796875 C54.03048706 319.1457019 54.03048706 319.1457019 54.5637207 318.1027832 C62.97028822 302.21996748 76.84951235 292.21261299 91.14477539 282.00878906 C102.71673317 273.74573202 113.58817267 264.97798217 123.8828125 255.16796875 C124.67300781 254.430625 125.46320313 253.69328125 126.27734375 252.93359375 C137.17864034 242.47140368 144.94418608 230.48213935 151.8828125 217.16796875 C152.36492187 216.26949219 152.84703125 215.37101563 153.34375 214.4453125 C156.31916917 208.46604659 158.20101685 202.18429803 160.0703125 195.79296875 C160.44579224 194.51836792 160.44579224 194.51836792 160.82885742 193.21801758 C164.15791793 181.35071058 165.25057549 169.71872141 165.1953125 157.41796875 C165.19315735 156.76122162 165.1910022 156.10447449 165.18878174 155.42782593 C165.13407759 145.00889847 164.57664976 135.25202257 161.8828125 125.16796875 C161.60074951 124.06316162 161.60074951 124.06316162 161.31298828 122.93603516 C152.67446125 89.96943676 130.99051829 62.59149566 101.8828125 45.16796875 C86.3921824 36.34885377 69.40885394 29.51807933 51.8828125 26.16796875 C50.72458984 25.94367188 50.72458984 25.94367188 49.54296875 25.71484375 C-8.15400496 15.14162266 -70.68597182 27.93954433 -111.5859375 71.81640625 Z " fill="#FAFAFA" transform="translate(893.1171875,142.83203125)"/>
<path d="M0 0 C3.06658841 0.64427642 5.63796266 1.54811103 8.48828125 2.8515625 C13.62637377 5.10824333 18.78319069 6.96905582 24.1171875 8.703125 C29.20267519 10.36694032 34.1252726 12.24582459 38.98828125 14.4765625 C42.87860956 16.23999851 46.83272096 17.68869943 50.86328125 19.1015625 C55.64602655 20.77809472 60.27135196 22.59457118 64.875 24.70703125 C69.17834879 26.64311548 73.63600713 28.17513674 78.08984375 29.72265625 C84.60083613 31.99937581 90.87117559 34.46062675 97.109375 37.3984375 C101.90172859 39.49211822 106.87568777 41.04348356 111.86328125 42.6015625 C111.97285156 43.54515625 112.08242188 44.48875 112.1953125 45.4609375 C112.35386719 46.74484375 112.51242187 48.02875 112.67578125 49.3515625 C112.82660156 50.60453125 112.97742188 51.8575 113.1328125 53.1484375 C113.79050202 57.67556874 114.93640947 62.05022565 116.07592773 66.4765625 C117.34939184 71.53093167 118.41251196 76.62710181 119.48828125 81.7265625 C120.01033097 84.17970574 120.53247259 86.63282942 121.0546875 89.0859375 C121.34267366 90.44204392 121.63059445 91.79816422 121.91845703 93.15429688 C123.74662763 101.76334052 125.58511648 110.37018273 127.42578125 118.9765625 C127.62029877 119.88649963 127.81481628 120.79643677 128.01522827 121.73394775 C130.39342802 132.85156333 132.7905345 143.96295799 135.36743164 155.03662109 C136.46921496 159.77999621 137.46543367 164.53382779 138.38842773 169.31542969 C138.84651538 171.52084494 139.40059567 173.67761409 139.98828125 175.8515625 C140.82609453 179.44219086 141.26302098 181.95336314 140.86328125 185.6015625 C138.921875 188.3125 138.921875 188.3125 136.30078125 190.9765625 C135.37307599 191.94080828 134.44599507 192.90565511 133.51953125 193.87109375 C132.2046875 195.22267578 132.2046875 195.22267578 130.86328125 196.6015625 C129.66426438 197.94554247 128.47519422 199.29853044 127.30078125 200.6640625 C124.73654213 203.61864247 122.12190568 206.52116935 119.48828125 209.4140625 C116.37799274 212.85534455 113.39849813 216.36477548 110.48828125 219.9765625 C107.24375608 223.98982534 103.87580942 227.82571634 100.36328125 231.6015625 C96.15304983 236.13147575 92.18690279 240.80448414 88.30859375 245.62109375 C85.39324353 249.1744679 82.38516282 252.63879983 79.36328125 256.1015625 C74.87896357 261.2445244 70.49824386 266.45099414 66.203125 271.75390625 C63.30209592 275.28454098 60.33883078 278.75867799 57.36328125 282.2265625 C56.83404053 282.84345947 56.3047998 283.46035645 55.75952148 284.09594727 C52.0105138 288.45432995 52.0105138 288.45432995 50.86328125 289.6015625 C45.23680878 289.97859416 40.66664738 288.99227933 35.36328125 287.3515625 C34.52885498 287.09777832 33.69442871 286.84399414 32.8347168 286.58251953 C13.1439282 280.37729908 -6.52474245 272.649674 -24.8515625 263.1640625 C-27.51812351 261.8957814 -30.15619763 260.78487631 -32.90234375 259.7109375 C-41.60052428 256.27952278 -49.85700408 251.92806653 -58.13671875 247.6015625 C-58.83990234 247.23981934 -59.54308594 246.87807617 -60.26757812 246.50537109 C-71.34197872 240.72102394 -71.34197872 240.72102394 -73.32421875 235.2265625 C-73.6085036 233.68731953 -73.8776944 232.14525716 -74.13671875 230.6015625 C-75.07733801 225.74800422 -76.06742981 220.90497322 -77.09716797 216.06958008 C-79.80727106 203.21321651 -81.67492075 190.32754313 -83.26171875 177.2890625 C-83.39056458 176.24518372 -83.5194104 175.20130493 -83.65216064 174.12579346 C-85.6684156 157.71129386 -87.34876451 141.36091863 -87.97558594 124.82910156 C-88.13168404 121.7024093 -88.41807555 118.61361919 -88.73828125 115.5 C-89.74229718 103.405659 -87.45033303 96.49882099 -79.76098633 87.02636719 C-77.91311067 84.85949228 -76.02751024 82.7309314 -74.13671875 80.6015625 C-73.25563308 79.52921677 -72.38205378 78.45061386 -71.51953125 77.36328125 C-69.43314887 74.73859736 -67.29228801 72.16946604 -65.13671875 69.6015625 C-63.69773732 67.83193277 -62.26028161 66.06106149 -60.82421875 64.2890625 C-51.01925071 52.30330472 -40.81669272 40.63155885 -30.4296875 29.1484375 C-28.98441984 27.54313168 -27.54818367 25.929604 -26.125 24.3046875 C-23.83222122 21.70183768 -21.50053194 19.13971672 -19.13671875 16.6015625 C-18.52280273 15.9415625 -17.90888672 15.2815625 -17.27636719 14.6015625 C-15.18580249 12.3748079 -13.07081183 10.17374563 -10.94921875 7.9765625 C-10.27173584 7.25259277 -9.59425293 6.52862305 -8.89624023 5.78271484 C-3.98284872 0.763834 -3.98284872 0.763834 0 0 Z " fill="#FDFCFD" transform="translate(404.13671875,485.3984375)"/>
<path d="M0 0 C1.07765625 0.23203125 2.1553125 0.4640625 3.265625 0.703125 C21.46232307 4.89064966 39.36194375 10.91113871 57 17 C58.02528809 17.35143066 58.02528809 17.35143066 59.07128906 17.70996094 C68.18894566 20.84148301 77.1379374 24.19495927 86 28 C87.97873937 28.81354006 89.95791309 29.62602443 91.9375 30.4375 C98.37410034 33.11444372 104.69023645 36.03848195 111 39 C111.69320899 46.75706801 112.23318993 54.5009178 112.55786133 62.28198242 C112.60298355 63.3390741 112.64810577 64.39616577 112.69459534 65.48529053 C113.08863044 75.1616807 113.33676812 84.84030449 113.5328722 94.52257824 C113.66785409 101.00475577 113.85585437 107.47609667 114.16723633 113.95239258 C116.19448855 157.22559008 116.19448855 157.22559008 109.35754395 165.94552612 C103.33748085 172.11359127 95.65519638 175.06941372 87.59396362 177.68563843 C81.73820299 179.82717005 76.78264236 183.24006473 71.625 186.6875 C69.66475628 187.92451245 67.70162052 189.15696572 65.734375 190.3828125 C57.3840854 195.64343841 49.05865348 200.94286122 40.73974609 206.25292969 C37.93909166 208.03883979 35.13595468 209.82078972 32.33203125 211.6015625 C23.76705081 217.04181147 15.21037852 222.49397708 6.6875 228 C5.99108398 228.44657959 5.29466797 228.89315918 4.57714844 229.35327148 C0.9292048 231.70251511 -2.57588921 234.16468996 -6.0625 236.75 C-9.04693238 238.70551379 -10.00906675 239.00060445 -13.75 239.25 C-18.65262093 238.17025611 -23.12399396 235.73415566 -27.61328125 233.5546875 C-31.7343594 231.66288923 -35.91350384 230.27669354 -40.24609375 228.95703125 C-43.32250669 227.88792321 -46.09012433 226.46042817 -49 225 C-51.41011987 224.05121978 -53.81705308 223.13481877 -56.25 222.25 C-62.17307081 220.06574236 -68.06303725 217.81165083 -73.9375 215.5 C-80.63244755 212.87335373 -87.37399999 210.42299471 -94.16552734 208.05859375 C-98.6002729 206.50991941 -102.96931978 204.86125644 -107.3125 203.07421875 C-111.75190988 201.29974532 -116.24361415 199.66189727 -120.73266602 198.01757812 C-125.89177028 196.10822972 -125.89177028 196.10822972 -127 195 C-127.20564718 193.44148242 -127.3482483 191.87458158 -127.46484375 190.30688477 C-127.54162354 189.30395889 -127.61840332 188.30103302 -127.69750977 187.26771545 C-127.77670654 186.17003342 -127.85590332 185.07235138 -127.9375 183.94140625 C-128.02249756 182.80912094 -128.10749512 181.67683563 -128.19506836 180.51023865 C-128.37536077 178.09674786 -128.55343069 175.68309022 -128.72949219 173.26928711 C-128.99457531 169.63683491 -129.2661573 166.00491885 -129.5390625 162.37304688 C-130.39214941 150.92888085 -131.2014557 139.48662912 -131.78173828 128.02514648 C-131.9201488 125.32719923 -132.09483247 122.63530806 -132.30029297 119.94165039 C-134.1098131 95.0157394 -134.1098131 95.0157394 -129.16015625 88.140625 C-126.32831953 85.03677518 -123.17020083 82.51471654 -119.70019531 80.15771484 C-117.58432607 78.71695495 -115.74762211 77.05364013 -113.875 75.3125 C-113.27042969 74.80074219 -112.66585938 74.28898437 -112.04296875 73.76171875 C-109.89489159 71.90936158 -107.81411464 69.99178716 -105.73583984 68.06176758 C-100.64233048 63.33529287 -95.45231874 58.79851967 -90.03515625 54.44140625 C-87.75828067 52.60994263 -85.49777908 50.76430342 -83.24609375 48.90234375 C-75.37108156 42.40795322 -67.38100966 36.21753558 -58.99755859 30.39550781 C-56.72352233 28.80685085 -54.46525648 27.19698571 -52.20703125 25.5859375 C-43.4626559 19.37009657 -34.69897859 13.33071774 -25.39453125 7.98046875 C-23.14685478 6.6691086 -20.93375129 5.29645591 -18.76171875 3.86328125 C-11.91658865 -0.56387405 -7.91544771 -2.01240196 0 0 Z " fill="#FDFDFD" transform="translate(533,277)"/>
<path d="M0 0 C0.01417969 0.65484375 0.02835938 1.3096875 0.04296875 1.984375 C0.56894443 12.04899068 3.56166778 21.90763672 11 29 C17.57686036 34.28010404 24.96744174 35.78635144 33.0625 37.5625 C35.5329879 38.12438933 38.00304039 38.68819646 40.47265625 39.25390625 C41.71337891 39.53669434 42.95410156 39.81948242 44.23242188 40.11083984 C53.10331123 42.20439732 61.87268582 44.68408465 70.6484375 47.140625 C72.56751444 47.66751443 74.48660502 48.1943758 76.40722656 48.71560669 C77.74758533 49.07961138 79.08707519 49.44682733 80.42578125 49.81686401 C90.47741145 52.75727407 90.47741145 52.75727407 100.79931641 52.30786133 C106.08413511 51.71863981 109.75008695 52.13907636 114.08300781 55.12353516 C115.05774602 56.03479706 116.01402573 56.96611451 116.953125 57.9140625 C117.46832703 58.40848343 117.98352905 58.90290436 118.51434326 59.41230774 C123.07920702 63.85485313 127.37189769 68.55159634 131.59082031 73.32104492 C134.66666935 76.74132173 137.76102108 80.02185875 141.375 82.875 C143 85 143 85 142.9140625 88.2265625 C141.85245006 92.60911642 139.89016448 95.18845399 137 98.5 C122.84556591 115.67174517 112.70732717 136.24922699 108 158 C107.83773926 158.71542969 107.67547852 159.43085938 107.50830078 160.16796875 C104.91702122 172.08411089 104.69225896 184.04529766 104.625 196.1875 C104.61308121 197.33483109 104.61308121 197.33483109 104.60092163 198.50534058 C104.52275261 208.29354728 104.99811321 216.3297694 109.6875 225.1875 C111.21774908 228.46660517 111.54403132 230.42493705 111 234 C107.60015509 238.81721894 102.94566373 239.28557674 97.5 240.375 C96.55326416 240.57561035 95.60652832 240.7762207 94.63110352 240.98291016 C92.55484648 241.42239152 90.47738338 241.8562027 88.39892578 242.28515625 C84.75626733 243.05126054 81.12649575 243.86534671 77.49609375 244.6875 C74.97665816 245.25042831 72.45712814 245.81293415 69.9375 246.375 C68.7309375 246.65005371 67.524375 246.92510742 66.28125 247.20849609 C65.14558594 247.45680176 64.00992188 247.70510742 62.83984375 247.9609375 C61.83300537 248.18571777 60.82616699 248.41049805 59.78881836 248.64208984 C56.85350214 249.01880118 54.82570134 248.8444904 52 248 C49.82421875 246.1796875 49.82421875 246.1796875 47.6875 243.875 C44.9872882 240.99011567 42.23224409 238.29997115 39.23828125 235.7265625 C34.00017939 231.19621305 29.20504871 226.254321 24.35546875 221.31640625 C20.35212583 217.26915098 16.2663012 213.41099222 11.95166016 209.69775391 C8.69714 206.86663893 5.57319334 203.89881201 2.4375 200.9375 C1.04047319 199.62358243 -0.35666502 198.3097833 -1.75390625 196.99609375 C-2.45660645 196.33464355 -3.15930664 195.67319336 -3.88330078 194.99169922 C-16.26664635 183.30263639 -16.26664635 183.30263639 -29 172 C-30.11904751 171.0279857 -31.23747295 170.05525503 -32.35546875 169.08203125 C-38.60402841 163.64585731 -44.87104384 158.23221315 -51.1875 152.875 C-51.97966919 152.20162598 -51.97966919 152.20162598 -52.7878418 151.51464844 C-55.79999861 148.95340538 -55.79999861 148.95340538 -59.1350708 146.85032654 C-61.50892123 144.49506369 -61.49565316 142.70191056 -61.56114197 139.44204712 C-61.55359642 138.3087648 -61.55359642 138.3087648 -61.54589844 137.15258789 C-61.55623611 136.35166214 -61.56657379 135.55073639 -61.57722473 134.72554016 C-61.60686056 132.05771081 -61.60815956 129.39063829 -61.609375 126.72265625 C-61.62439155 124.84019066 -61.64112584 122.95773808 -61.65948486 121.07530212 C-61.70335328 116.08317553 -61.72315767 111.09122337 -61.73822021 106.09893799 C-61.75735955 101.16545221 -61.79971888 96.23217955 -61.83984375 91.29882812 C-62.01909251 67.86630586 -62.03612122 44.43308627 -62 21 C-59.96145721 20.03909431 -57.92064111 19.08301065 -55.87890625 18.12890625 C-54.17456421 17.32948608 -54.17456421 17.32948608 -52.43579102 16.51391602 C-48.34040813 14.70936338 -44.19073298 13.33462837 -39.9296875 11.984375 C-37.06110096 11.02052992 -34.33532338 9.89717365 -31.5625 8.6875 C-25.79489593 6.23761225 -19.92693717 4.15044485 -14 2.125 C-13.07904541 1.80233154 -12.15809082 1.47966309 -11.20922852 1.1472168 C-10.33580811 0.85371338 -9.4623877 0.56020996 -8.5625 0.2578125 C-7.78003906 -0.0088623 -6.99757813 -0.27553711 -6.19140625 -0.55029297 C-3.76567737 -1.04808626 -2.32393707 -0.78413025 0 0 Z " fill="#FDFCFD" transform="translate(720,295)"/>
<path d="M0 0 C-0.60226535 4.67429826 -2.62822458 8.40245108 -4.8125 12.5 C-8.44249262 19.50930631 -11.01746087 26.33866235 -13 34 C-13.1750708 34.60295898 -13.3501416 35.20591797 -13.53051758 35.82714844 C-14.53095796 40.45737172 -14.22798237 45.28272281 -14.25 50 C-14.270625 51.07378906 -14.29125 52.14757812 -14.3125 53.25390625 C-14.41107163 73.73216341 -5.37937345 91.81944597 8.1875 106.75 C24.90735572 122.32357719 46.21128438 130.04692816 68.85546875 129.3125 C82.78940956 128.59146813 94.36861911 124.5789791 107 119 C107.99 118.67 108.98 118.34 110 118 C109.56701708 125.54775003 107.97061683 132.3108145 105.6875 139.5 C105.39166016 140.46808594 105.09582031 141.43617188 104.79101562 142.43359375 C103.07113537 147.96841358 101.11685475 153.33932428 98.91723633 158.70019531 C97.14373267 163.14693591 95.78389162 167.72537047 94.34375 172.2890625 C93.12893808 175.643921 91.71904558 178.64943249 90.08886719 181.80761719 C88.44583994 185.11577518 87.03896261 188.51683099 85.6003418 191.91772461 C81.9298191 200.5890511 78.08808232 209.11015424 73.6875 217.4375 C73.29159668 218.18684814 72.89569336 218.93619629 72.48779297 219.70825195 C71.35112514 221.82108039 70.17929653 223.91073411 69 226 C68.61360352 226.73154297 68.22720703 227.46308594 67.82910156 228.21679688 C65.83421059 231.77437932 64.60419868 233.66916628 60.9609375 235.6640625 C59.77757812 235.98117187 58.59421875 236.29828125 57.375 236.625 C56.36095093 236.90428345 56.36095093 236.90428345 55.32641602 237.18920898 C52.89346904 237.8374814 50.45074171 238.4226424 48 239 C47.00500488 239.23960449 46.01000977 239.47920898 44.98486328 239.72607422 C37.0183233 241.62470404 29.02136523 243.34982332 21 245 C19.56358154 245.30019043 19.56358154 245.30019043 18.09814453 245.60644531 C5.47816948 248.19434467 -7.18038322 249.63156558 -20 250.75 C-20.73476563 250.81520844 -21.46953125 250.88041687 -22.2265625 250.94760132 C-32.17691891 251.81427313 -42.01079743 252.16357864 -52 252 C-52.57331055 250.84290527 -53.14662109 249.68581055 -53.73730469 248.49365234 C-68.829129 217.96441629 -68.829129 217.96441629 -85 188 C-86.06305417 186.09536128 -87.12552979 184.19039957 -88.1875 182.28515625 C-92.51091775 174.56007112 -96.82995236 166.84600464 -101.48828125 159.31640625 C-102.04644531 158.41035645 -102.60460937 157.50430664 -103.1796875 156.57080078 C-104.23906295 154.86230443 -105.31004527 153.16093011 -106.39453125 151.46826172 C-107.10609375 150.32188232 -107.10609375 150.32188232 -107.83203125 149.15234375 C-108.25202393 148.49226318 -108.6720166 147.83218262 -109.10473633 147.15209961 C-110.66488635 143.40169807 -110.45206399 140.22310115 -109.05712891 136.44897461 C-108.39849854 135.18839233 -108.39849854 135.18839233 -107.7265625 133.90234375 C-107.23607422 132.94593994 -106.74558594 131.98953613 -106.24023438 131.00415039 C-105.70720703 129.99215576 -105.17417969 128.98016113 -104.625 127.9375 C-103.52171741 125.78994531 -102.42018768 123.6414893 -101.3203125 121.4921875 C-100.4854834 119.86941895 -100.4854834 119.86941895 -99.63378906 118.21386719 C-97.17131606 113.36987517 -94.82595082 108.47318705 -92.5 103.5625 C-92.10377441 102.73032959 -91.70754883 101.89815918 -91.29931641 101.04077148 C-89.43741274 97.11216271 -87.6250687 93.16897924 -85.87890625 89.1875 C-84.54546933 86.16563739 -83.12412119 83.28193375 -81.4375 80.4375 C-79.49004546 77.01757983 -78.03915247 73.65170536 -76.73828125 69.9453125 C-75.99141773 67.9773864 -75.10312866 66.17523108 -74.125 64.3125 C-71.76386417 59.74401881 -70.02550692 54.96743842 -68.24609375 50.1484375 C-66.99729594 46.99316779 -65.51996639 44.03184786 -64 41 C-63.32365586 39.26156412 -62.67684587 37.51130061 -62.0625 35.75 C-60.49438856 31.35453611 -58.91645719 26.97805864 -57.06616211 22.69213867 C-55.94292422 20.03209189 -55.94292422 20.03209189 -55.32446289 17.26586914 C-54.29698125 13.89658929 -53.26909895 11.71836138 -51 9 C-45.31686217 6.46637203 -39.47874398 5.48614758 -33.375 4.4375 C-31.75565534 4.12351896 -30.13714675 3.8051932 -28.51953125 3.48242188 C-24.69477273 2.7293386 -20.86254268 2.03506168 -17.02282715 1.36297607 C-15.19103143 1.03427868 -13.36506036 0.67351967 -11.54003906 0.30908203 C-10.5703418 0.11556152 -9.60064453 -0.07795898 -8.6015625 -0.27734375 C-7.79283691 -0.44355225 -6.98411133 -0.60976074 -6.15087891 -0.78100586 C-3.8384194 -1.01645151 -2.20170879 -0.70094322 0 0 Z " fill="#FCFCFC" transform="translate(828,548)"/>
<path d="M0 0 C1.83771491 0.4553809 3.67546499 0.91062277 5.51367188 1.36401367 C6.89412223 1.70830378 8.2730226 2.05886185 9.65039062 2.4152832 C15.00258469 3.79595653 20.35392333 4.8810744 25.79614258 5.85498047 C30.17511044 6.64345927 34.52164095 7.52987177 38.86816406 8.48095703 C63.52393849 13.85387384 88.2842721 16.13735492 113.51171875 16.16796875 C114.93014049 16.17205281 116.34856192 16.17624414 117.76698303 16.18054199 C123.55457362 16.19402714 129.34168962 16.20088133 135.12915039 16.15454102 C138.73871964 16.12689764 142.34688488 16.13326206 145.95643044 16.16155434 C147.95887916 16.16780384 149.96133635 16.13727767 151.96354675 16.10575867 C161.99839991 16.21326205 161.99839991 16.21326205 166.20092773 20.40380859 C167.14933815 21.59040303 168.08403809 22.78818217 169 24 C170.76595656 25.50976849 172.5557078 26.99244659 174.375 28.4375 C177.7719655 31.17074361 181.088958 33.93959583 184.3125 36.875 C187.95671762 40.14445765 191.71579407 43.2248375 195.5625 46.25 C196.14451172 46.70826172 196.72652344 47.16652344 197.32617188 47.63867188 C200.64367059 50.22767787 204.00421011 52.73988834 207.421875 55.1953125 C208.1533374 55.72608398 208.8847998 56.25685547 209.63842773 56.80371094 C211.06147871 57.83220685 212.49306373 58.84902137 213.93383789 59.85253906 C218.68010216 63.29211795 218.68010216 63.29211795 220.15625 66.55859375 C219.8236918 71.75481556 215.31750797 75.28934579 212 79 C211.3090625 79.87785156 210.618125 80.75570312 209.90625 81.66015625 C202.55057567 90.24609301 193.60179851 92.43366675 183 95 C182.23026855 95.18755859 181.46053711 95.37511719 180.66748047 95.56835938 C176.92262637 96.46279748 173.16918277 97.29251247 169.3984375 98.0703125 C166.61168544 98.64516367 163.8553219 99.27618214 161.1015625 99.9921875 C120.05232277 110.4635703 72.60383436 110.95203633 31 104 C29.98196289 103.84241211 28.96392578 103.68482422 27.91503906 103.52246094 C22.46857174 102.66160576 17.2946245 101.56255991 12 100 C9.58709886 99.60148918 7.16990146 99.2285247 4.75 98.875 C-14.61832228 95.70942474 -33.66386706 88.87792089 -52 82 C-52.84626953 81.69094727 -53.69253906 81.38189453 -54.56445312 81.06347656 C-73.20028754 74.188459 -73.20028754 74.188459 -79 65 C-79.3623877 64.43829102 -79.72477539 63.87658203 -80.09814453 63.29785156 C-90.59137737 46.92132939 -90.59137737 46.92132939 -93 40 C-92 37 -92 37 -88.87646484 35.421875 C-87.49256156 34.85324221 -86.10362031 34.29677798 -84.7109375 33.75 C-83.97428864 33.45061523 -83.23763977 33.15123047 -82.47866821 32.84277344 C-80.11484734 31.88471996 -77.74520918 30.9421233 -75.375 30 C-73.8003653 29.3656148 -72.22614107 28.73020974 -70.65234375 28.09375 C-68.42006216 27.19136895 -66.18730605 26.29048424 -63.95126343 25.39746094 C-55.40374274 21.98348817 -47.08194558 18.17822984 -38.79589844 14.17675781 C-36.90194635 13.26300055 -35.00574808 12.35403238 -33.109375 11.4453125 C-25.84577278 7.94820646 -18.75104847 4.28559778 -11.74194336 0.29467773 C-7.38780145 -1.76124022 -4.5071211 -1.27886105 0 0 Z " fill="#FCFCFC" transform="translate(519,914)"/>
<path d="M0 0 C2.552396 1.07854592 4.30288406 2.50692956 6.41796875 4.30078125 C10.38023506 7.55735926 14.42257327 10.64748641 18.60546875 13.61328125 C19.19279785 14.02980957 19.78012695 14.44633789 20.38525391 14.87548828 C22.26920386 16.20754877 24.1557261 17.53589049 26.04296875 18.86328125 C28.79337901 20.80019935 31.54333834 22.73775626 34.29296875 24.67578125 C34.99107666 25.16763916 35.68918457 25.65949707 36.40844727 26.16625977 C41.97655677 30.09561148 47.51623014 34.06347652 53.04296875 38.05078125 C53.82704102 38.61579346 54.61111328 39.18080566 55.41894531 39.76293945 C56.14049805 40.28460693 56.86205078 40.80627441 57.60546875 41.34375 C58.24613281 41.80676514 58.88679688 42.26978027 59.546875 42.74682617 C61.04296875 43.86328125 61.04296875 43.86328125 62.04296875 44.86328125 C62.23949861 47.33509619 62.37500822 49.78535109 62.47265625 52.26171875 C62.54466976 53.8553174 62.61694743 55.44890413 62.68945312 57.04248047 C62.72643311 57.88905212 62.76341309 58.73562378 62.80151367 59.60784912 C63.43910677 74.00950005 64.28991896 88.37677186 65.54296875 102.73828125 C65.60272888 103.43379089 65.66248901 104.12930054 65.72406006 104.84588623 C67.05917882 120.27010582 68.89744009 135.60929022 71.22021484 150.9152832 C71.54857295 153.0878614 71.86811336 155.26163373 72.1875 157.43554688 C72.39921095 158.84252756 72.6114309 160.24943178 72.82421875 161.65625 C73.01048828 162.89914795 73.19675781 164.1420459 73.38867188 165.42260742 C74.01535767 168.71808613 74.9107767 171.71054901 76.04296875 174.86328125 C79.2993654 184.99429303 79.2993654 184.99429303 77.28515625 189.59375 C76.59305032 190.91529085 75.89036953 192.23132403 75.1796875 193.54296875 C73.47720941 197.01813022 72.39992239 200.65459499 71.265625 204.34765625 C70.22121414 207.35075456 69.04939714 210.19784476 67.7890625 213.11328125 C64.35225206 221.27483879 61.73179305 229.6838682 59.04296875 238.11328125 C58.53040223 239.70587546 58.01738332 241.29832413 57.50390625 242.890625 C54.29367492 252.86384608 51.15216089 262.85814858 48.04296875 272.86328125 C42.88988361 272.20078567 38.44220168 271.0648624 33.66796875 269.05078125 C33.0138501 268.78160889 32.35973145 268.51243652 31.68579102 268.23510742 C26.76726225 266.19995898 21.85717398 264.13588295 17.04296875 261.86328125 C16.07439941 261.46004639 15.10583008 261.05681152 14.10791016 260.64135742 C10.54205857 258.57268631 9.67313664 257.15954574 7.9765625 253.45703125 C7.48140137 252.38453125 6.98624023 251.31203125 6.47607422 250.20703125 C4.23062845 244.9679128 2.11108475 239.69877816 0.10546875 234.36328125 C-0.32419189 233.22673096 -0.75385254 232.09018066 -1.1965332 230.91918945 C-2.05877137 228.62809946 -2.91717693 226.33556293 -3.77148438 224.04150391 C-4.80443923 221.27235104 -5.8555287 218.51093532 -6.91015625 215.75 C-21.7715601 176.04308314 -27.08376918 132.31813464 -27.14453125 90.17578125 C-27.14580017 89.30964203 -27.14706909 88.44350281 -27.14837646 87.55111694 C-27.14796299 85.06784041 -27.13861455 82.5847988 -27.125 80.1015625 C-27.1237764 79.35887115 -27.1225528 78.61617981 -27.12129211 77.85098267 C-27.08452084 73.74128285 -26.65725552 69.90426258 -25.95703125 65.86328125 C-25.79627705 63.26785656 -25.66268064 60.67927489 -25.55078125 58.08203125 C-25.11925219 49.81804676 -24.17625387 41.70935529 -22.8125 33.54882812 C-22.57360587 32.080023 -22.35118326 30.60845278 -22.14453125 29.13476562 C-20.71007042 18.92319758 -18.45310035 12.39477734 -9.95703125 5.86328125 C-8.51876367 4.65586166 -7.08113429 3.44768086 -5.64453125 2.23828125 C-2.59156853 -0.1810477 -2.59156853 -0.1810477 0 0 Z " fill="#FCFCFC" transform="translate(240.95703125,540.13671875)"/>
<path d="M0 0 C0.66 0 1.32 0 2 0 C2.64100692 57.12859143 2.64100692 57.12859143 -1 78 C-1.13390137 78.84626953 -1.26780273 79.69253906 -1.40576172 80.56445312 C-4.79647368 101.98553284 -10.68286809 123.2274393 -17.25 143.875 C-17.56678711 144.87176758 -17.88357422 145.86853516 -18.20996094 146.89550781 C-19.88285046 152.0124784 -21.76115239 156.93294358 -24.00878906 161.82421875 C-25.01005026 164.02206106 -25.942913 166.23823462 -26.859375 168.47265625 C-30.79931478 178.0572178 -34.95454597 187.44029726 -39.75976562 196.62304688 C-40.65657654 198.34181678 -41.54482859 200.06506163 -42.42773438 201.79101562 C-49.10494395 214.81869553 -56.2429006 227.33831582 -64.375 239.5 C-64.74727722 240.05845612 -65.11955444 240.61691223 -65.50311279 241.19229126 C-69.81947793 247.63963047 -74.33226157 253.84556074 -79.24804688 259.84912109 C-80.92392895 261.90660731 -82.52752825 264.00645862 -84.125 266.125 C-86.38285145 268.77363343 -86.69636076 268.96063936 -90.375 269.4375 C-91.24125 269.293125 -92.1075 269.14875 -93 269 C-93.11930567 262.91188886 -92.66100873 257.0612563 -91.94140625 251.01953125 C-91.7186514 249.04916604 -91.49676331 247.07870269 -91.27563477 245.1081543 C-90.91614942 241.93289245 -90.55625498 238.75768192 -90.19454956 235.58267212 C-88.95662961 224.56606033 -87.7827653 213.65223021 -87.9375 202.5546875 C-87.94803406 201.75715561 -87.95856812 200.95962372 -87.96942139 200.13792419 C-87.99150612 198.5800155 -88.01369997 197.02210835 -88.03601074 195.46420288 C-88.2392172 177.99898207 -84.19605099 166.82026515 -74.78344727 151.99243164 C-72.25493723 147.74986524 -70.25769282 143.31660959 -68.25683594 138.80639648 C-67.22531857 136.50311519 -66.13575385 134.28148861 -64.9375 132.0625 C-62.00428329 126.3060622 -60.11585315 120.08935364 -58 114 C-56.66881403 110.34084629 -55.27953101 106.70688182 -53.84765625 103.0859375 C-47.71309117 87.46051033 -43.04179009 71.17993983 -39.3125 54.8125 C-39.0753125 53.78382813 -38.838125 52.75515625 -38.59375 51.6953125 C-38.11811237 49.536168 -37.70486084 47.36331918 -37.3125 45.1875 C-35.67379777 41.20779459 -33.37134665 39.12516688 -30.26171875 36.2109375 C-27.03886947 33.06044926 -24.31054596 29.57325794 -21.4921875 26.0625 C-18.18433391 21.99767678 -14.75346346 18.04495936 -11.32373047 14.08300781 C-7.81059315 10.00345514 -4.4829569 5.82494103 -1.3046875 1.4765625 C-0.87414062 0.98929688 -0.44359375 0.50203125 0 0 Z " fill="#FAFAFA" transform="translate(991,611)"/>
<path d="M0 0 C13.03850933 9.08255294 20.54142324 19.81176972 25.5234375 34.7578125 C25.80766872 38.44027302 25.80117095 42.12810529 25.8359375 45.8203125 C25.87944336 47.31981445 25.87944336 47.31981445 25.92382812 48.84960938 C25.98419283 55.99586211 24.67322675 61.3603612 21.5234375 67.7578125 C20.99363281 68.84191406 20.46382812 69.92601562 19.91796875 71.04296875 C11.42538431 85.95217254 -0.09739343 94.33747931 -16.56640625 99.03125 C-30.81886635 102.58958232 -46.10380626 101.35539003 -58.9296875 93.859375 C-71.37279773 86.12604014 -80.77860818 75.55327586 -85.6640625 61.609375 C-88.87360378 46.39491492 -87.2186714 31.54223453 -79.3515625 18.1328125 C-70.63932942 5.29567926 -58.95969433 -3.44923046 -43.94921875 -7.58203125 C-29.07544466 -10.40955411 -13.03307647 -7.78853519 0 0 Z " fill="#0D0E0D" transform="translate(924.4765625,552.2421875)"/>
<path d="M0 0 C2.31287919 4.62575838 2.05626676 10.05334684 1 15 C-2.02687053 18.46046147 -5.67736595 20.26602717 -9.75 22.3125 C-11.88229213 23.49077396 -14.01381168 24.6704472 -16.14453125 25.8515625 C-17.16756348 26.3971582 -18.1905957 26.94275391 -19.24462891 27.50488281 C-22.44899955 29.24363577 -25.42865254 31.13124441 -28.4375 33.1875 C-29.77554688 34.10015625 -29.77554688 34.10015625 -31.140625 35.03125 C-32.08421875 35.6809375 -33.0278125 36.330625 -34 37 C-35.22340815 37.82373439 -36.4474082 38.6465901 -37.671875 39.46875 C-47.04088395 45.79210946 -56.0717148 52.48770812 -64.98779297 59.43310547 C-66.88473013 60.91023999 -68.78738963 62.37966612 -70.69140625 63.84765625 C-83.25390527 73.57407858 -95.09130931 83.97927003 -106.65234375 94.87109375 C-109.77107014 97.80264456 -112.97405743 100.61970571 -116.22265625 103.40625 C-119.0532634 105.94446476 -121.69087952 108.66907488 -124.3359375 111.3984375 C-127.15140239 114.10815723 -129.57854116 114.29724621 -133.37109375 114.796875 C-134.48919434 114.94825928 -135.60729492 115.09964355 -136.75927734 115.25561523 C-138.57999756 115.50033569 -138.57999756 115.50033569 -140.4375 115.75 C-159.86600272 118.45069435 -179.122921 121.8931379 -198.20068359 126.47631836 C-199.04066895 126.67620361 -199.8806543 126.87608887 -200.74609375 127.08203125 C-201.47497803 127.25968018 -202.2038623 127.4373291 -202.95483398 127.62036133 C-205 128 -205 128 -209 128 C-207.33964818 124.09439969 -204.74144937 121.05895604 -202 117.875 C-201.22897949 116.97769165 -201.22897949 116.97769165 -200.44238281 116.06225586 C-195.74849086 110.69380489 -190.78872318 105.60642848 -185.75 100.5625 C-184.63431641 99.44560791 -184.63431641 99.44560791 -183.49609375 98.30615234 C-169.24167638 84.19415256 -153.41362999 71.50855975 -137 60 C-136.42137207 59.59362305 -135.84274414 59.18724609 -135.24658203 58.76855469 C-123.89882625 50.8642339 -111.98780542 43.88072601 -100 37 C-99.32501465 36.61070312 -98.6500293 36.22140625 -97.95458984 35.8203125 C-69.63327233 19.63235556 -38.45179629 9.10717491 -7 1 C-6.28038086 0.80341797 -5.56076172 0.60683594 -4.81933594 0.40429688 C-3 0 -3 0 0 0 Z " fill="#F9F9FA" transform="translate(517,249)"/>
<path d="M0 0 C3.35979425 0.92071285 6.6803708 1.94375435 10 3 C10.64259766 3.20399414 11.28519531 3.40798828 11.94726562 3.61816406 C27.53068596 8.6728429 27.53068596 8.6728429 32 16 C33.09964886 17.64437287 34.19961649 19.28853625 35.30297852 20.93041992 C36.1532044 22.20089703 36.99864096 23.4745905 37.83959961 24.7512207 C46.4431152 37.81111948 55.67494241 50.25482932 66 62 C66.61101562 62.71027344 67.22203125 63.42054688 67.8515625 64.15234375 C77.56351267 75.40623861 87.46065556 86.30260596 99.06640625 95.625 C101.96476368 97.97147313 104.79212257 100.38765018 107.625 102.8125 C115.06955534 109.03077968 123.0233013 114.49290835 131 120 C132.255596 120.8731407 133.51082499 121.7468095 134.765625 122.62109375 C140.75844574 126.87293586 140.75844574 126.87293586 147.0625 130.625 C151.27876886 134.03389823 152.7657782 138.06814025 154.8125 143 C155.20630859 143.90234375 155.60011719 144.8046875 156.00585938 145.734375 C157.61220582 149.45955577 159.10953288 153.03280763 160 157 C136.17436184 145.98815043 114.3074365 130.70708345 94.24462891 113.87963867 C92.54145878 112.4534143 90.82840472 111.03898299 89.11083984 109.63012695 C81.2855293 103.16765563 74.00381517 96.28701236 66.86816406 89.07397461 C65.11063484 87.29798395 63.34502854 85.53033191 61.578125 83.76367188 C55.8427682 78.01052074 50.24204523 72.21222292 45 66 C44.14277344 65.02417969 43.28554688 64.04835938 42.40234375 63.04296875 C28.38072989 46.79922908 16.08468929 29.13163517 4.9375 10.8125 C4.55489014 10.18827148 4.17228027 9.56404297 3.77807617 8.92089844 C2.03281094 6.00504315 0.54548306 3.38199496 0 0 Z " fill="#F6F6F6" transform="translate(262,818)"/>
<path d="M0 0 C0.33 0 0.66 0 1 0 C1.33 2.31 1.66 4.62 2 7 C2.33 5.02 2.66 3.04 3 1 C3.33 1 3.66 1 4 1 C4.09796875 1.845625 4.1959375 2.69125 4.296875 3.5625 C5.58542029 13.3376712 7.20161753 20.19309646 14.93530273 26.5925293 C18.57037164 29.07049692 22.46754471 30.07712241 26.6875 31.1875 C27.67556641 31.46231201 28.66363281 31.73712402 29.68164062 32.02026367 C47.28154915 36.8266903 65.03748515 41.09680776 82.75520325 45.44387817 C84.25497134 45.81542797 85.75326923 46.19296206 87.25004578 46.5763855 C96.10504936 48.84228972 104.63913687 49.71488564 113 45.4375 C121.33321166 40.18794376 124.85087864 34.20654893 128 25 C132.3842405 25.71474173 134.73028807 26.91712875 138 30 C138 30.66 138 31.32 138 32 C138.53367187 32.2165625 139.06734375 32.433125 139.6171875 32.65625 C142.86813888 34.4895734 145.42749568 36.9553794 148.125 39.5 C148.98170288 40.29760742 148.98170288 40.29760742 149.85571289 41.11132812 C154.30496723 45.27811968 158.57810574 49.5951808 162.8359375 53.95703125 C164.69940326 55.71622365 166.34706336 56.94328558 168.5625 58.1875 C171 60 171 60 172.12109375 63.140625 C171.98642982 67.43249465 171.69479676 67.85373608 168.84375 70.75390625 C167.41545722 72.04547584 165.96648051 73.31445866 164.5 74.5625 C163.43652344 75.51286133 163.43652344 75.51286133 162.3515625 76.48242188 C159.62571964 78.90622537 156.86216441 81.28013562 154.06225586 83.61791992 C148.60636471 88.1922435 144.3609806 93.37682918 140 99 C139.32839844 99.8559375 138.65679688 100.711875 137.96484375 101.59375 C125.74600412 117.72358999 116.82814862 136.37154531 112 156 C111.72414063 157.05960938 111.44828125 158.11921875 111.1640625 159.2109375 C108.5768329 169.99533018 107.8348254 180.96591631 107 192 C106.01 192 105.02 192 104 192 C102.58171892 157.330907 114.46142122 124.86067892 135.625 97.59765625 C136.04507324 97.05326904 136.46514648 96.50888184 136.89794922 95.94799805 C138.04262443 94.48060004 139.21183787 93.03243557 140.3828125 91.5859375 C142.19702618 88.68494847 142.5621425 87.35081017 142 84 C139.64160708 79.94427884 135.84372971 76.81397303 132.27734375 73.83203125 C129.2986425 71.25737233 126.6683223 68.57872119 124.09765625 65.59765625 C123.43314453 64.85322266 122.76863281 64.10878906 122.08398438 63.34179688 C120.73790928 61.82404843 119.42471467 60.27648322 118.14648438 58.70117188 C114.71746362 54.97141718 112.45536766 53.13215761 107.30322266 52.66430664 C105.16338373 52.693286 103.03533446 52.79278831 100.89839172 52.90631104 C91.883864 53.30791078 83.84050393 50.78795708 75.25 48.3125 C73.56822905 47.84567521 71.88576492 47.38134091 70.20263672 46.91943359 C67.7168288 46.23690964 65.23150959 45.55305939 62.74838257 44.86083984 C56.5722679 43.13941231 50.37215952 41.56905495 44.125 40.125 C43.320625 39.93518555 42.51625 39.74537109 41.6875 39.54980469 C37.96776192 38.67466429 34.2428782 37.83446327 30.5078125 37.02734375 C19.79266158 34.64646713 11.6390744 31.50495302 5.28515625 22.1953125 C0.97135002 14.82643985 -0.65341452 8.53068963 0 0 Z " fill="#0F0F0F" transform="translate(720,296)"/>
<path d="M0 0 C-1.46972191 3.39118893 -3.36371716 5.62114133 -5.96484375 8.23046875 C-6.75938965 9.02904297 -7.55393555 9.82761719 -8.37255859 10.65039062 C-9.21898926 11.48763672 -10.06541992 12.32488281 -10.9375 13.1875 C-12.23421631 14.47624023 -12.23421631 14.47624023 -13.55712891 15.79101562 C-18.65533091 20.81366746 -23.7755286 25.58877263 -29.42578125 29.984375 C-31.83987607 31.87462223 -34.1558087 33.85137801 -36.46679688 35.86547852 C-44.88410738 43.16880897 -53.87482433 49.61651543 -63 56 C-63.61004883 56.43135254 -64.22009766 56.86270508 -64.84863281 57.30712891 C-85.54536052 71.88171056 -108.0455815 83.4616741 -131 94 C-132.33780518 94.6180249 -132.33780518 94.6180249 -133.70263672 95.24853516 C-134.51104004 95.61640137 -135.31944336 95.98426758 -136.15234375 96.36328125 C-137.20216431 96.84148315 -137.20216431 96.84148315 -138.27319336 97.3293457 C-140 98 -140 98 -142 98 C-139.57500011 91.47115415 -137.55824116 87.83865465 -131.171875 84.6875 C-130.30656914 84.25195045 -130.30656914 84.25195045 -129.42378235 83.80760193 C-128.18394241 83.18478183 -126.94109312 82.56792299 -125.69558716 81.95651245 C-122.37916529 80.32605411 -119.08786768 78.64606175 -115.79296875 76.97265625 C-115.1282103 76.63645767 -114.46345184 76.30025909 -113.77854919 75.95387268 C-75.42200964 56.50431297 -38.7291531 31.69287927 -6.26025391 3.48876953 C-2.20818708 0 -2.20818708 0 0 0 Z " fill="#EDEDEE" transform="translate(891,894)"/>
<path d="M0 0 C0.99 0 1.98 0 3 0 C3.33 0.99 3.66 1.98 4 3 C2.7421875 5.35546875 2.7421875 5.35546875 0.875 8.1875 C-9.50782537 25.21533361 -11.33283519 45.28354478 -6.9765625 64.5 C-1.32156521 84.76751029 11.01637118 100.36179703 29 111 C45.88492545 120.03700235 66.20133552 124.62229996 85 119 C85.60134766 118.82807129 86.20269531 118.65614258 86.82226562 118.47900391 C88.92755093 117.87497071 91.02680885 117.25321383 93.125 116.625 C93.79450684 116.42817627 94.46401367 116.23135254 95.15380859 116.02856445 C98.64076639 114.94582663 101.71262987 113.68819974 104.8671875 111.8359375 C108 110 108 110 110 110 C109.97265625 112.2734375 109.97265625 112.2734375 109 115 C106.42507415 116.51466227 104.19983713 117.58176415 101.4375 118.625 C100.66954102 118.92349854 99.90158203 119.22199707 99.11035156 119.52954102 C77.62740331 127.54928339 54.48605309 127.67633921 33.4140625 118.42578125 C13.00294431 108.02629229 0.45132455 93.42383853 -9 73 C-9.35449219 72.24332031 -9.70898438 71.48664063 -10.07421875 70.70703125 C-16.59472049 51.640754 -14.5727706 29.2694973 -5.90625 11.37524414 C-4.32780146 8.21799472 -2.67440422 5.10741836 -1 2 C-0.67 1.34 -0.34 0.68 0 0 Z " fill="#1C1C1D" transform="translate(826,553)"/>
<path d="M0 0 C0.33 0 0.66 0 1 0 C1.33 2.31 1.66 4.62 2 7 C2.33 5.02 2.66 3.04 3 1 C3.33 1 3.66 1 4 1 C4.09796875 1.845625 4.1959375 2.69125 4.296875 3.5625 C5.58542029 13.3376712 7.20161753 20.19309646 14.93530273 26.5925293 C18.57037164 29.07049692 22.46754471 30.07712241 26.6875 31.1875 C27.67556641 31.46231201 28.66363281 31.73712402 29.68164062 32.02026367 C47.28156283 36.82669404 65.03737694 41.09813867 82.75547791 45.44374084 C84.25446095 45.81523331 85.75184831 46.19322334 87.24757385 46.57762146 C95.66004553 48.73602709 104.45959416 49.96826915 112.25 45.4375 C112.93578125 44.96183594 113.6215625 44.48617187 114.328125 43.99609375 C114.87984375 43.66738281 115.4315625 43.33867187 116 43 C116.66 43.33 117.32 43.66 118 44 C115.83312509 46.27521866 113.54379491 48.15794162 111 50 C114.465 53.465 114.465 53.465 118 57 C117.505 57.99 117.505 57.99 117 59 C116.16887695 58.01169189 115.33775391 57.02338379 114.48144531 56.00512695 C111.85100992 53.38550513 111.24375839 53.02815987 107.35449219 52.57885742 C106.00032006 52.67027483 104.64755749 52.78456667 103.296875 52.91796875 C93.34091362 53.39484442 84.74798965 51.04946001 75.25 48.3125 C73.56822905 47.84567521 71.88576492 47.38134091 70.20263672 46.91943359 C67.7168288 46.23690964 65.23150959 45.55305939 62.74838257 44.86083984 C56.5722679 43.13941231 50.37215952 41.56905495 44.125 40.125 C43.320625 39.93518555 42.51625 39.74537109 41.6875 39.54980469 C37.96776192 38.67466429 34.2428782 37.83446327 30.5078125 37.02734375 C19.79266158 34.64646713 11.6390744 31.50495302 5.28515625 22.1953125 C0.97135002 14.82643985 -0.65341452 8.53068963 0 0 Z " fill="#2B2C2C" transform="translate(720,296)"/>
<path d="M0 0 C1.14289613 3.42868839 0.82027535 4.49120814 -0.109375 7.90234375 C-0.36976563 8.87623047 -0.63015625 9.85011719 -0.8984375 10.85351562 C-1.17945313 11.87123047 -1.46046875 12.88894531 -1.75 13.9375 C-2.28711406 15.92560421 -2.82357085 17.91388611 -3.359375 19.90234375 C-3.63152832 20.90942383 -3.90368164 21.91650391 -4.18408203 22.95410156 C-6.11161846 30.14977617 -7.90346644 37.32677363 -9.2890625 44.6484375 C-9.50949219 45.75574219 -9.72992188 46.86304688 -9.95703125 48.00390625 C-10.40595884 50.26954668 -10.8274565 52.54077893 -11.22265625 54.81640625 C-12.46054005 60.78202706 -13.46692016 64.28615157 -18.6484375 67.7890625 C-22.6078574 70 -22.6078574 70 -24 70 C-23.52753195 63.4485568 -22.56412755 57.39927298 -20.625 51.125 C-20.37169922 50.29419922 -20.11839844 49.46339844 -19.85742188 48.60742188 C-17.38997263 40.78532414 -14.4812081 33.13865028 -11.5 25.5 C-11.04963379 24.34387207 -10.59926758 23.18774414 -10.13525391 21.99658203 C-7.13451512 14.45523743 -3.74666652 7.19909222 0 0 Z " fill="#EBEBEC" transform="translate(252,462)"/>
<path d="M0 0 C1.1796875 1.66796875 1.1796875 1.66796875 2 4 C0.9453125 6.48828125 0.9453125 6.48828125 -0.875 9.3125 C-1.53242187 10.37984375 -2.18984375 11.4471875 -2.8671875 12.546875 C-3.2187793 13.11212891 -3.57037109 13.67738281 -3.93261719 14.25976562 C-18.61180053 38.19234085 -24.06127288 63.27068543 -26 91 C-26.99 91 -27.98 91 -29 91 C-30.36105301 57.72981538 -19.50279725 26.77932899 0 0 Z " fill="#181818" transform="translate(853,397)"/>
<path d="M0 0 C0.99 0 1.98 0 3 0 C3.33 0.99 3.66 1.98 4 3 C2.7421875 5.35546875 2.7421875 5.35546875 0.875 8.1875 C-5.16171421 18.0877113 -8.86237517 29.90930784 -9.31640625 41.51953125 C-9.35830078 42.54111328 -9.40019531 43.56269531 -9.44335938 44.61523438 C-9.50233398 46.19788086 -9.50233398 46.19788086 -9.5625 47.8125 C-9.60568359 48.88693359 -9.64886719 49.96136719 -9.69335938 51.06835938 C-9.79910983 53.71212082 -9.90120233 56.3559711 -10 59 C-10.99 59.495 -10.99 59.495 -12 60 C-16.82820095 50.34359811 -13.58108578 31.51883987 -10.41796875 21.515625 C-7.70447257 14.78794851 -4.43857358 8.38142604 -1 2 C-0.67 1.34 -0.34 0.68 0 0 Z " fill="#0E0E0E" transform="translate(826,553)"/>
<path d="M0 0 C0.66 0.33 1.32 0.66 2 1 C-0.16687491 3.27521866 -2.45620509 5.15794162 -5 7 C-2.69 9.31 -0.38 11.62 2 14 C1.67 14.66 1.34 15.32 1 16 C0.16855469 15.01128906 -0.66289063 14.02257812 -1.51953125 13.00390625 C-4.14831314 10.38588231 -4.74938089 10.02826531 -8.63671875 9.58984375 C-9.98867421 9.6839132 -11.33916715 9.80100406 -12.6875 9.9375 C-19.62299769 10.30572925 -25.61922132 9.47028584 -32.3125 7.625 C-33.11840576 7.40320068 -33.92431152 7.18140137 -34.75463867 6.95288086 C-38.37568188 5.90603169 -41.65306467 4.75526507 -45 3 C-45 2.34 -45 1.68 -45 1 C-39.5567653 1.34923408 -34.50312497 2.06564181 -29.25 3.5625 C-20.68140133 5.7790873 -11.68561069 7.0103479 -3.75 2.4375 C-3.06421875 1.96183594 -2.3784375 1.48617188 -1.671875 0.99609375 C-1.12015625 0.66738281 -0.5684375 0.33867187 0 0 Z " fill="#222222" transform="translate(836,339)"/>
<path d="M0 0 C3.62371612 0.63898474 6.03597212 2.19962765 9.0625 4.25 C20.54189518 11.68950179 32.36881087 15.88268942 46 17 C46 17.33 46 17.66 46 18 C29.40968993 20.08512094 17.78182905 15.58013124 3.875 6.375 C0.93010802 3.94226315 0.60516138 3.49812798 0 0 Z " fill="#282828" transform="translate(842,657)"/>
<path d="M0 0 C4.75 0.875 4.75 0.875 7 2 C7 2.66 7 3.32 7 4 C7.80050781 4.32484375 7.80050781 4.32484375 8.6171875 4.65625 C11.86802651 6.48951003 14.42791777 8.95502828 17.125 11.5 C17.69468506 12.03173828 18.26437012 12.56347656 18.85131836 13.11132812 C24.01787766 17.95935637 29.03161071 22.94926171 34 28 C34.73605469 28.70640625 35.47210937 29.4128125 36.23046875 30.140625 C38.1214722 32.12763966 38.61732729 33.32129104 39 36 C35.33709164 34.77903055 33.59051208 32.72059979 31 30 C17.53805189 16.06725953 17.53805189 16.06725953 2.8359375 3.49609375 C1 2 1 2 0 0 Z " fill="#010101" transform="translate(851,324)"/>
<path d="M0 0 C0.33 0 0.66 0 1 0 C1.33 2.31 1.66 4.62 2 7 C2.33 5.02 2.66 3.04 3 1 C3.33 1 3.66 1 4 1 C4.09796875 1.845625 4.1959375 2.69125 4.296875 3.5625 C5.56063799 13.1496675 7.13018895 20.46982387 14.91796875 26.6796875 C18.6859579 29.06914404 22.79361986 30.56119794 27 32 C27 32.66 27 33.32 27 34 C19.86837819 34.10421994 15.3951836 32.70957224 9.97265625 28.0234375 C6.99192541 24.96597497 4.87849668 21.82329324 3 18 C2.68160156 17.36191406 2.36320313 16.72382813 2.03515625 16.06640625 C-0.29297335 10.73423846 -0.31813671 5.75002654 0 0 Z " fill="#1A1A1A" transform="translate(720,296)"/>
<path d="M0 0 C0.99 0 1.98 0 3 0 C3.33 0.99 3.66 1.98 4 3 C2.70703125 5.4609375 2.70703125 5.4609375 0.8125 8.375 C-3.02484109 14.65289003 -5.15844082 20.90828143 -7 28 C-8.5625 26.375 -8.5625 26.375 -10 24 C-9.87820797 18.67159866 -7.41975013 14.36952298 -5 9.75 C-4.44699219 8.67105469 -4.44699219 8.67105469 -3.8828125 7.5703125 C-2.92837002 5.71019467 -1.96480898 3.8547621 -1 2 C-0.67 1.34 -0.34 0.68 0 0 Z " fill="#181919" transform="translate(826,553)"/>
<path d="M0 0 C-1.45745424 3.36335594 -3.31117854 5.54534005 -5.9140625 8.109375 C-6.67460938 8.86347656 -7.43515625 9.61757813 -8.21875 10.39453125 C-9.0128125 11.17183594 -9.806875 11.94914063 -10.625 12.75 C-11.42679688 13.54277344 -12.22859375 14.33554687 -13.0546875 15.15234375 C-15.03202846 17.10614493 -17.01388909 19.05512103 -19 21 C-19.33 20.34 -19.66 19.68 -20 19 C-22.02463255 18.34786708 -22.02463255 18.34786708 -24 18 C-23.5467334 17.63237549 -23.0934668 17.26475098 -22.62646484 16.88598633 C-20.54231043 15.19523399 -18.45865234 13.50387104 -16.375 11.8125 C-15.66214844 11.23435547 -14.94929687 10.65621094 -14.21484375 10.06054688 C-13.51230469 9.49013672 -12.80976562 8.91972656 -12.0859375 8.33203125 C-11.04711426 7.49019287 -11.04711426 7.49019287 -9.98730469 6.63134766 C-8.1681159 5.13800374 -6.3844106 3.61050275 -4.6015625 2.07421875 C-2 0 -2 0 0 0 Z " fill="#E4E4E4" transform="translate(891,894)"/>
<path d="M0 0 C1.1875 1.65234375 1.1875 1.65234375 2 4 C0.875 6.62890625 0.875 6.62890625 -1 9.5625 C-1.65097656 10.61050781 -2.30195312 11.65851563 -2.97265625 12.73828125 C-3.64167969 13.81464844 -4.31070313 14.89101563 -5 16 C-6.16149783 18.07464083 -7.30864334 20.15741919 -8.4375 22.25 C-8.93121094 23.16265625 -9.42492187 24.0753125 -9.93359375 25.015625 C-10.28550781 25.67046875 -10.63742187 26.3253125 -11 27 C-11.33 27 -11.66 27 -12 27 C-12.51089621 20.33613635 -11.32994236 16.77295911 -7.6875 11.25 C-7.08131836 10.28126953 -7.08131836 10.28126953 -6.46289062 9.29296875 C-4.44021756 6.08958084 -2.33224699 2.98889906 0 0 Z " fill="#1E1E1E" transform="translate(853,397)"/>
<path d="M0 0 C11.22 0 22.44 0 34 0 C28.12708453 3.91527698 21.20227597 3.15328982 14.375 3.125 C12.96347656 3.13080078 12.96347656 3.13080078 11.5234375 3.13671875 C10.6159375 3.13542969 9.7084375 3.13414062 8.7734375 3.1328125 C7.95278809 3.13168457 7.13213867 3.13055664 6.28662109 3.12939453 C4.06485631 3.00367007 2.1328994 2.61630694 0 2 C0 1.34 0 0.68 0 0 Z " fill="#1A1A1A" transform="translate(877,675)"/>
<path d="M0 0 C4.69917266 3.41758011 8.32557667 7.54193188 12 12 C12.58523438 12.680625 13.17046875 13.36125 13.7734375 14.0625 C14.17820312 14.701875 14.58296875 15.34125 15 16 C14.67 16.99 14.34 17.98 14 19 C8.30831199 14.40229878 2.67047191 9.42021527 -1 3 C-0.67 2.01 -0.34 1.02 0 0 Z " fill="#1A1B1B" transform="translate(828,641)"/>
<path d="M0 0 C7.59064664 0.48701051 14.67059167 1.99763587 22 4 C21.67 4.66 21.34 5.32 21 6 C21.66 6.66 22.32 7.32 23 8 C15.09191419 7.25395417 7.05218538 5.80620286 0 2 C0 1.34 0 0.68 0 0 Z " fill="#323232" transform="translate(791,340)"/>
<path d="M0 0 C5.26621606 0.59578777 9.94408019 1.81308796 14.9375 3.5625 C15.62134766 3.79646484 16.30519531 4.03042969 17.00976562 4.27148438 C18.67508501 4.84211829 20.33782493 5.42027098 22 6 C22 6.66 22 7.32 22 8 C16.1111566 8.21221057 11.16709687 7.55320433 5.5 6 C4.77296875 5.80921875 4.0459375 5.6184375 3.296875 5.421875 C1.52893469 4.95662755 -0.23588933 4.47956407 -2 4 C1.09720845 3.12159004 2.90645403 3.00564594 6 4 C6 3.34 6 2.68 6 2 C3.03 1.505 3.03 1.505 0 1 C0 0.67 0 0.34 0 0 Z " fill="#191919" transform="translate(741,326)"/>
<path d="M0 0 C0.66 0.33 1.32 0.66 2 1 C1.53625977 1.4532666 1.07251953 1.9065332 0.59472656 2.37353516 C-1.52555173 4.45195888 -3.6377941 6.53837445 -5.75 8.625 C-6.47960937 9.33785156 -7.20921875 10.05070312 -7.9609375 10.78515625 C-11.8690014 14.65769229 -15.04337015 18.37690605 -18 23 C-19.921875 24.8984375 -19.921875 24.8984375 -21.75 26.375 C-22.67039062 27.12910156 -22.67039062 27.12910156 -23.609375 27.8984375 C-24.06828125 28.26195312 -24.5271875 28.62546875 -25 29 C-25.66 28.67 -26.32 28.34 -27 28 C-18.17099984 18.48793316 -9.25466 9.09955397 0 0 Z " fill="#DCDCDE" transform="translate(340,341)"/>
<path d="M0 0 C-0.37330824 2.72574271 -0.79194601 3.80822085 -2.84765625 5.703125 C-3.57855469 6.21359375 -4.30945313 6.7240625 -5.0625 7.25 C-5.79597656 7.77078125 -6.52945313 8.2915625 -7.28515625 8.828125 C-7.85105469 9.21484375 -8.41695312 9.6015625 -9 10 C-9.66 9.34 -10.32 8.68 -11 8 C-13.60280568 8.32041397 -13.60280568 8.32041397 -16 9 C-6.7234252 -1.01870079 -6.7234252 -1.01870079 0 0 Z " fill="#DEDEDF" transform="translate(871,913)"/>
<path d="M0 0 C0.66 0 1.32 0 2 0 C1.67 6.27 1.34 12.54 1 19 C0.01 19 -0.98 19 -2 19 C-2.05411124 16.58303128 -2.09372278 14.16728213 -2.125 11.75 C-2.14175781 11.06808594 -2.15851562 10.38617188 -2.17578125 9.68359375 C-2.21213482 5.9391765 -2.07944349 3.17647273 0 0 Z " fill="#141313" transform="translate(826,469)"/>
<path d="M0 0 C0.66 0.33 1.32 0.66 2 1 C0.89061647 7.30596952 -0.93197901 12.37529486 -4 18 C-4.66 17.67 -5.32 17.34 -6 17 C-5.57664615 10.50857435 -3.08900201 5.66507011 0 0 Z " fill="#141414" transform="translate(840,418)"/>
<path d="M0 0 C3.82990706 0.64743667 6.5283898 2.45311237 9.75 4.5625 C11.22726562 5.52349609 11.22726562 5.52349609 12.734375 6.50390625 C13.85585938 7.24447266 13.85585938 7.24447266 15 8 C14.67 8.66 14.34 9.32 14 10 C8.71500265 9.61329288 4.69959224 7.78112595 1 4 C0.30078125 1.83203125 0.30078125 1.83203125 0 0 Z " fill="#212021" transform="translate(842,657)"/>
<path d="M0 0 C0.33 0 0.66 0 1 0 C1.12117187 0.95261719 1.24234375 1.90523438 1.3671875 2.88671875 C1.53476562 4.14097656 1.70234375 5.39523437 1.875 6.6875 C2.03742187 7.92886719 2.19984375 9.17023438 2.3671875 10.44921875 C2.92478369 13.57795295 3.69008123 16.12148102 5 19 C3.68 19.33 2.36 19.66 1 20 C-1.15305957 16.14243493 -2.39253254 13.44870215 -2 9 C-1.34 9 -0.68 9 0 9 C0 6.03 0 3.06 0 0 Z " fill="#2D2D2E" transform="translate(827,499)"/>
<path d="M0 0 C5 2 10 4 15 6 C15 6.66 15 7.32 15 8 C8.47603393 7.74213573 4.12181749 7.17832479 -1 3 C-0.67 2.01 -0.34 1.02 0 0 Z " fill="#161717" transform="translate(732,322)"/>
<path d="M0 0 C1.29065057 3.8719517 0.22324098 6.44232601 -0.9375 10.1875 C-1.13279297 10.84169922 -1.32808594 11.49589844 -1.52929688 12.16992188 C-2.01182563 13.78227407 -2.50490205 15.39146289 -3 17 C-3.66 17 -4.32 17 -5 17 C-5.33 17.66 -5.66 18.32 -6 19 C-6.66 19 -7.32 19 -8 19 C-6.00386732 12.2813095 -3.2708579 6.19265192 0 0 Z " fill="#D8D8D9" transform="translate(252,462)"/>
<path d="M0 0 C0 3 0 3 -1.19335938 4.53393555 C-1.73798828 5.062854 -2.28261719 5.59177246 -2.84375 6.13671875 C-3.72353516 7.00200195 -3.72353516 7.00200195 -4.62109375 7.88476562 C-5.24113281 8.47966797 -5.86117187 9.07457031 -6.5 9.6875 C-7.12003906 10.29400391 -7.74007812 10.90050781 -8.37890625 11.52539062 C-9.91264707 13.02373743 -11.45548198 14.51276493 -13 16 C-13.99 15.67 -14.98 15.34 -16 15 C-13.71240451 12.68344197 -11.41925113 10.37246517 -9.125 8.0625 C-8.47402344 7.40314453 -7.82304688 6.74378906 -7.15234375 6.06445312 C-6.52714844 5.43603516 -5.90195312 4.80761719 -5.2578125 4.16015625 C-4.6817627 3.57886963 -4.10571289 2.99758301 -3.51220703 2.39868164 C-2 1 -2 1 0 0 Z " fill="#1F1F20" transform="translate(897,387)"/>
<path d="M0 0 C1.50499098 0.14198028 3.00648611 0.32889238 4.5 0.5625 C5.55380859 0.68818359 5.55380859 0.68818359 6.62890625 0.81640625 C8.25839548 1.02379579 9.88065689 1.28686713 11.5 1.5625 C11.5 1.8925 11.5 2.2225 11.5 2.5625 C10.61957031 2.50449219 9.73914063 2.44648437 8.83203125 2.38671875 C1.59155037 1.89203341 1.59155037 1.89203341 -4.6875 4.9375 C-5.285625 5.80375 -5.88375 6.67 -6.5 7.5625 C-7.16 8.2225 -7.82 8.8825 -8.5 9.5625 C-9.49 9.2325 -10.48 8.9025 -11.5 8.5625 C-5.54933531 -0.00951859 -5.54933531 -0.00951859 0 0 Z " fill="#CCCBCC" transform="translate(558.5,679.4375)"/>
<path d="M0 0 C2.08304538 -0.05418326 4.16649768 -0.09287551 6.25 -0.125 C7.99023438 -0.15980469 7.99023438 -0.15980469 9.765625 -0.1953125 C12.82786046 -0.0103949 14.44202751 0.39176977 17 2 C16.34 2 15.68 2 15 2 C15 2.66 15 3.32 15 4 C15.99 4.33 16.98 4.66 18 5 C11.80759538 4.31195504 5.98044406 2.71951285 0 1 C0 0.67 0 0.34 0 0 Z " fill="#363636" transform="translate(776,338)"/>
<path d="M0 0 C0 0.66 0 1.32 0 2 C-0.60328125 2.13277344 -1.2065625 2.26554688 -1.828125 2.40234375 C-3.02695312 2.66724609 -3.02695312 2.66724609 -4.25 2.9375 C-5.03890625 3.11152344 -5.8278125 3.28554688 -6.640625 3.46484375 C-8.13402105 3.80357762 -9.62051238 4.1759662 -11.09375 4.59375 C-13.86459256 5.18425743 -16.25554308 4.56136619 -19 4 C-13.08598549 0.81553065 -6.6951108 -0.34333902 0 0 Z " fill="#262727" transform="translate(796,540)"/>
<path d="M0 0 C0.33 0 0.66 0 1 0 C1.28571429 7.42857143 1.28571429 7.42857143 -1 11 C-1 10.34 -1 9.68 -1 9 C-1.66 9 -2.32 9 -3 9 C-3.33 9.66 -3.66 10.32 -4 11 C-4.66 11 -5.32 11 -6 11 C-4.375 4.25 -4.375 4.25 -1 2 C-0.67 1.34 -0.34 0.68 0 0 Z " fill="#E3E3E3" transform="translate(247,477)"/>
<path d="M0 0 C0.33 0 0.66 0 1 0 C1.33 2.31 1.66 4.62 2 7 C2.33 5.02 2.66 3.04 3 1 C3.33 1 3.66 1 4 1 C4.66 5.95 5.32 10.9 6 16 C2 15 2 15 0.75 13.0625 C-0.31861153 8.69900292 -0.15620933 4.46932259 0 0 Z " fill="#4E4D4E" transform="translate(720,296)"/>
<path d="M0 0 C0.66 0.33 1.32 0.66 2 1 C-13.35674157 12 -13.35674157 12 -18 12 C-14.05834006 8.58389472 -9.78631283 5.99622607 -5.3046875 3.3671875 C-3.5034105 2.29863335 -1.74262537 1.16175024 0 0 Z " fill="#D8D7D8" transform="translate(521,277)"/>
<path d="M0 0 C-0.99 0 -1.98 0 -3 0 C-3 0.66 -3 1.32 -3 2 C-2.34 2.33 -1.68 2.66 -1 3 C-6.57710648 4.06795656 -11.39436958 3.82622671 -17 3 C-17 2.67 -17 2.34 -17 2 C-16.39671875 1.86722656 -15.7934375 1.73445312 -15.171875 1.59765625 C-14.37265625 1.42105469 -13.5734375 1.24445312 -12.75 1.0625 C-11.96109375 0.88847656 -11.1721875 0.71445312 -10.359375 0.53515625 C-8.84627645 0.19195343 -7.33960806 -0.18184705 -5.84375 -0.59375 C-3.608508 -1.08626095 -2.15546527 -0.69282812 0 0 Z " fill="#2C2C2C" transform="translate(919,672)"/>
<path d="M0 0 C0.66 0.33 1.32 0.66 2 1 C1.01 4.96 0.02 8.92 -1 13 C-4 9 -4 9 -3.875 5.9375 C-3.00382455 3.01283955 -2.36089842 1.84765963 0 0 Z " fill="#2A2A2A" transform="translate(820,568)"/>
<path d="M0 0 C0.66 0.99 1.32 1.98 2 3 C-5.11389522 11.81548975 -5.11389522 11.81548975 -10 13 C-7.37288552 8.05484333 -3.73354706 4.12224511 0 0 Z " fill="#DDDCDD" transform="translate(534,702)"/>
<path d="M0 0 C0.66 0.99 1.32 1.98 2 3 C1.38242027 5.34680297 0.7166207 7.68152126 0 10 C0.33 10.66 0.66 11.32 1 12 C-0.11707614 15.72358715 -0.6729664 16.7819776 -4 19 C-3.32036523 14.65825558 -2.44151215 10.40296481 -1.4375 6.125 C-1.16808594 4.97257813 -0.89867187 3.82015625 -0.62109375 2.6328125 C-0.41613281 1.76398437 -0.21117187 0.89515625 0 0 Z " fill="#CFCECF" transform="translate(953,660)"/>
<path d="M0 0 C4.3177458 0.50797009 8.03302114 1.19682779 12 3 C11.01 4.485 11.01 4.485 10 6 C8.56163249 5.88541307 7.12429034 5.75790884 5.6875 5.625 C4.88699219 5.55539062 4.08648438 5.48578125 3.26171875 5.4140625 C1 5 1 5 -2 3 C0.64 3.33 3.28 3.66 6 4 C6 3.34 6 2.68 6 2 C3.03 1.505 3.03 1.505 0 1 C0 0.67 0 0.34 0 0 Z " fill="#5A5A5B" transform="translate(741,326)"/>
<path d="M0 0 C0.66 0.99 1.32 1.98 2 3 C-0.64 5.97 -3.28 8.94 -6 12 C-6.99 11.34 -7.98 10.68 -9 10 C-8.27683594 9.29423828 -8.27683594 9.29423828 -7.5390625 8.57421875 C-6.90742187 7.95160156 -6.27578125 7.32898438 -5.625 6.6875 C-4.68527344 5.76517578 -4.68527344 5.76517578 -3.7265625 4.82421875 C-1.81913393 2.91187472 -1.81913393 2.91187472 0 0 Z " fill="#252626" transform="translate(535,681)"/>
<path d="M0 0 C0.33 0 0.66 0 1 0 C1.36463732 1.74784829 1.7163078 3.49840502 2.0625 5.25 C2.25972656 6.22453125 2.45695313 7.1990625 2.66015625 8.203125 C2.98397535 10.868119 2.85503199 12.48871723 2 15 C2 14.01 2 13.02 2 12 C1.34 12 0.68 12 0 12 C-0.33 12.99 -0.66 13.98 -1 15 C-2.01603857 9.20858017 -1.96263236 5.5415502 0 0 Z " fill="#2E2E2E" transform="translate(816,606)"/>
<path d="M0 0 C0.99 0.33 1.98 0.66 3 1 C2.67 4.63 2.34 8.26 2 12 C-1 9 -1 9 -1.07421875 6.73828125 C-0.94660156 5.93777344 -0.81898438 5.13726563 -0.6875 4.3125 C-0.56761719 3.50425781 -0.44773437 2.69601562 -0.32421875 1.86328125 C-0.21722656 1.24839844 -0.11023438 0.63351562 0 0 Z " fill="#191919" transform="translate(815,577)"/>
<path d="M0 0 C0.33 1.32 0.66 2.64 1 4 C-0.43359375 6.140625 -0.43359375 6.140625 -2.4375 8.25 C-3.09621094 8.95640625 -3.75492188 9.6628125 -4.43359375 10.390625 C-4.95050781 10.92171875 -5.46742188 11.4528125 -6 12 C-6.99 11.67 -7.98 11.34 -9 11 C-6.03 7.37 -3.06 3.74 0 0 Z " fill="#1F2020" transform="translate(716,874)"/>
<path d="M0 0 C0.763125 0.0825 1.52625 0.165 2.3125 0.25 C2.125 2.125 2.125 2.125 1.3125 4.25 C-1.25 5.5 -1.25 5.5 -3.6875 6.25 C-4.3475 5.59 -5.0075 4.93 -5.6875 4.25 C-3.34903846 0.31153846 -3.34903846 0.31153846 0 0 Z " fill="#E9E9E9" transform="translate(868.6875,912.75)"/>
<path d="M0 0 C3.66161578 1.22053859 4.16270474 2.36782304 6.1875 5.5625 C6.71730469 6.38878906 7.24710937 7.21507812 7.79296875 8.06640625 C8.19128906 8.70449219 8.58960938 9.34257813 9 10 C6 10 6 10 4.39453125 8.57421875 C3.61142578 7.64029297 3.61142578 7.64029297 2.8125 6.6875 C2.01779297 5.76517578 2.01779297 5.76517578 1.20703125 4.82421875 C0 3 0 3 0 0 Z " fill="#1E1E1E" transform="translate(319,868)"/>
<path d="M0 0 C0.33 0 0.66 0 1 0 C1.53160457 2.41474617 2.05054766 4.83108107 2.5625 7.25 C2.71396484 7.93191406 2.86542969 8.61382813 3.02148438 9.31640625 C3.75233495 12.81769038 4.32203546 15.60298173 3 19 C3 18.34 3 17.68 3 17 C2.34 17 1.68 17 1 17 C1 13.7 1 10.4 1 7 C0.34 7 -0.32 7 -1 7 C-0.67 4.69 -0.34 2.38 0 0 Z " fill="#444344" transform="translate(325,691)"/>
<path d="M0 0 C1.625 1 1.625 1 3 3 C2.65009645 5.8158905 1.84980278 8.2716858 1 11 C-0.625 10 -0.625 10 -2 8 C-1.65009645 5.1841095 -0.84980278 2.7283142 0 0 Z " fill="#272627" transform="translate(833,433)"/>
<path d="M0 0 C2 2 2 2 2.01171875 3.875 C1.90472656 4.57625 1.79773438 5.2775 1.6875 6 C1.58824219 6.70125 1.48898437 7.4025 1.38671875 8.125 C1 10 1 10 0 12 C-0.99 12 -1.98 12 -3 12 C-2.01 8.04 -1.02 4.08 0 0 Z " fill="#1F1F1F" transform="translate(976,744)"/>
<path d="M0 0 C1.32 0.66 2.64 1.32 4 2 C0.75068473 4.04242674 -2.4125865 5.6426003 -6 7 C-6.99 7.495 -6.99 7.495 -8 8 C-8.66 7.34 -9.32 6.68 -10 6 C-9.36191406 5.65066406 -8.72382812 5.30132813 -8.06640625 4.94140625 C-7.24011719 4.48636719 -6.41382813 4.03132812 -5.5625 3.5625 C-4.73878906 3.11003906 -3.91507813 2.65757812 -3.06640625 2.19140625 C-1.07691202 1.16337603 -1.07691202 1.16337603 0 0 Z " fill="#2B2B2B" transform="translate(530,510)"/>
<path d="M0 0 C0.33 0 0.66 0 1 0 C0.53640488 4.72867022 -0.0799155 8.18142796 -3 12 C-3.99 12.33 -4.98 12.66 -6 13 C-4.58707905 8.1725201 -2.57025846 4.2837641 0 0 Z " fill="#2F3030" transform="translate(765,239)"/>
<path d="M0 0 C0.66 0.33 1.32 0.66 2 1 C2 4 2 4 0 6.1875 C-0.66 6.785625 -1.32 7.38375 -2 8 C-2 7.34 -2 6.68 -2 6 C-3.32 5.67 -4.64 5.34 -6 5 C-4.02 3.35 -2.04 1.7 0 0 Z " fill="#DBDBDB" transform="translate(873,907)"/>
<path d="M0 0 C3.24299151 2.38957269 5.50902342 4.2047869 7 8 C4.125 7.3125 4.125 7.3125 1 6 C-0.375 3.375 -0.375 3.375 -1 1 C-0.67 0.67 -0.34 0.34 0 0 Z " fill="#141415" transform="translate(828,641)"/>
<path d="M0 0 C5.27315333 0.4452885 10.01770224 1.08373163 15 3 C15 3.33 15 3.66 15 4 C9.5814234 4.22577402 5.22512279 3.46670113 0 2 C0 1.34 0 0.68 0 0 Z " fill="#272727" transform="translate(807,319)"/>
<path d="M0 0 C4.95 0.33 9.9 0.66 15 1 C15 1.33 15 1.66 15 2 C10.05 2.33 5.1 2.66 0 3 C0 2.01 0 1.02 0 0 Z " fill="#252526" transform="translate(873,673)"/>
<path d="M0 0 C3.21043882 1.38188453 5.04936365 2.92421903 7.25 5.625 C8.03117188 6.57246094 8.03117188 6.57246094 8.828125 7.5390625 C9.40820312 8.26222656 9.40820312 8.26222656 10 9 C9.01 9 8.02 9 7 9 C6.67 8.01 6.34 7.02 6 6 C5.0409375 5.5359375 5.0409375 5.5359375 4.0625 5.0625 C1.54531085 3.7657662 1.03113052 2.5778263 0 0 Z " fill="#282728" transform="translate(761,533)"/>
<path d="M0 0 C1 3 1 3 -0.0625 5.5625 C-2.44133938 8.55523341 -4.34410148 9.10633592 -8 10 C-7.59007812 9.52949219 -7.18015625 9.05898438 -6.7578125 8.57421875 C-6.21898437 7.95160156 -5.68015625 7.32898438 -5.125 6.6875 C-4.59132813 6.07261719 -4.05765625 5.45773437 -3.5078125 4.82421875 C-1.8359553 2.86501788 -1.8359553 2.86501788 0 0 Z " fill="#232324" transform="translate(506,714)"/>
<path d="M0 0 C0 0.99 0 1.98 0 3 C-3.3 3.66 -6.6 4.32 -10 5 C-9.67 4.01 -9.34 3.02 -9 2 C-3.21052632 0 -3.21052632 0 0 0 Z " fill="#1A1A1B" transform="translate(711,1006)"/>
<path d="M0 0 C0.33 1.32 0.66 2.64 1 4 C-0.9375 6.75 -0.9375 6.75 -3 9 C-3.99 8.67 -4.98 8.34 -6 8 C-4.02 5.36 -2.04 2.72 0 0 Z " fill="#282828" transform="translate(747,832)"/>
<path d="M0 0 C1.05902319 2.7534603 0.97095435 4.12938515 0.3125 7.0625 C-1.07097062 10.15883902 -2.13597554 11.28158532 -5 13 C-4.54554036 11.58208592 -4.08625056 10.16571954 -3.625 8.75 C-3.24214844 7.56664062 -3.24214844 7.56664062 -2.8515625 6.359375 C-2.04826333 4.13372042 -1.10288338 2.09068328 0 0 Z " fill="#D7D7D7" transform="translate(745,631)"/>
<path d="M0 0 C0 4.38968456 -2.12805101 5.76905739 -5 9 C-6.32 8.34 -7.64 7.68 -9 7 C-8.071875 6.401875 -7.14375 5.80375 -6.1875 5.1875 C-3.79745282 3.54727155 -1.91529747 2.1281083 0 0 Z " fill="#232323" transform="translate(952,522)"/>
<path d="M0 0 C2.31 0.33 4.62 0.66 7 1 C6.67 1.66 6.34 2.32 6 3 C6.66 3.66 7.32 4.32 8 5 C5.36 4.67 2.72 4.34 0 4 C0 2.68 0 1.36 0 0 Z " fill="#333334" transform="translate(806,343)"/>
<path d="M0 0 C0.99 0.99 1.98 1.98 3 3 C2.55090939 4.48199902 2.09043436 5.96055236 1.625 7.4375 C1.24214844 8.67306641 1.24214844 8.67306641 0.8515625 9.93359375 C0 12 0 12 -2 13 C-1.48041715 8.62065881 -0.94324258 4.31196609 0 0 Z " fill="#3A3A3A" transform="translate(747,288)"/>
<path d="M0 0 C0.66 0.33 1.32 0.66 2 1 C-1.47328574 3.77862859 -5.0412468 5.98463473 -9 8 C-9.99 7.67 -10.98 7.34 -12 7 C-10.04754815 5.80285445 -8.08785003 4.61751926 -6.125 3.4375 C-5.03445313 2.77621094 -3.94390625 2.11492187 -2.8203125 1.43359375 C-1.88960938 0.96050781 -0.95890625 0.48742187 0 0 Z " fill="#D1D1D1" transform="translate(417,286)"/>
<path d="M0 0 C-1.49097658 3.7952131 -3.75700849 5.61042731 -7 8 C-7.66 7.34 -8.32 6.68 -9 6 C-7.8803014 4.99406757 -6.7540588 3.9954151 -5.625 3 C-4.68527344 2.1646875 -4.68527344 2.1646875 -3.7265625 1.3125 C-2 0 -2 0 0 0 Z " fill="#BBBCBC" transform="translate(891,894)"/>
<path d="M0 0 C-0.33 1.65 -0.66 3.3 -1 5 C-2.32 5.33 -3.64 5.66 -5 6 C-5 5.34 -5 4.68 -5 4 C-5.66 3.67 -6.32 3.34 -7 3 C-2.25 0 -2.25 0 0 0 Z " fill="#262626" transform="translate(936,663)"/>
<path d="M0 0 C0.99 0 1.98 0 3 0 C3.33 0.99 3.66 1.98 4 3 C2.0625 5.6875 2.0625 5.6875 0 8 C-1.125 6.25 -1.125 6.25 -2 4 C-1.125 1.75 -1.125 1.75 0 0 Z " fill="#1F1F1F" transform="translate(826,553)"/>
<path d="M0 0 C1.65 0.33 3.3 0.66 5 1 C3.68 3.64 2.36 6.28 1 9 C0.34 8.67 -0.32 8.34 -1 8 C-0.67 7.01 -0.34 6.02 0 5 C0.03874921 3.33378384 0.0450286 1.66605828 0 0 Z " fill="#D3D3D3" transform="translate(891,356)"/>
<path d="M0 0 C0.66 0.99 1.32 1.98 2 3 C1.34 3 0.68 3 0 3 C-0.0825 3.598125 -0.165 4.19625 -0.25 4.8125 C-1.20455872 7.5966296 -2.57132271 8.43311142 -5 10 C-5.66 9.67 -6.32 9.34 -7 9 C-4.69 6.03 -2.38 3.06 0 0 Z " fill="#232323" transform="translate(947,340)"/>
<path d="M0 0 C0.66 0.99 1.32 1.98 2 3 C-0.31 4.98 -2.62 6.96 -5 9 C-5.66 8.67 -6.32 8.34 -7 8 C-4.69 5.36 -2.38 2.72 0 0 Z " fill="#E2E2E2" transform="translate(370,518)"/>
<path d="M0 0 C0.66 0.99 1.32 1.98 2 3 C0.02 5.64 -1.96 8.28 -4 11 C-4.33 10.34 -4.66 9.68 -5 9 C-4.00390625 6.8359375 -4.00390625 6.8359375 -2.5625 4.375 C-2.08941406 3.55773437 -1.61632812 2.74046875 -1.12890625 1.8984375 C-0.75636719 1.27195312 -0.38382813 0.64546875 0 0 Z " fill="#D5D4D5" transform="translate(949,457)"/>
<path d="M0 0 C2.31 0.33 4.62 0.66 7 1 C6.01 2.485 6.01 2.485 5 4 C2.03 3.67 -0.94 3.34 -4 3 C-2.68 2.67 -1.36 2.34 0 2 C0 1.34 0 0.68 0 0 Z " fill="#393B3A" transform="translate(763,332)"/>
<path d="M0 0 C2.64752004 2.57784846 4.94432065 4.91648098 7 8 C4 8 4 8 1.8125 6.25 C0 4 0 4 0 0 Z " fill="#222222" transform="translate(337,888)"/>
<path d="M0 0 C-0.33 0.99 -0.66 1.98 -1 3 C-3.91482778 3.80967438 -5.46113217 4.21845993 -8.3125 3.0625 C-8.869375 2.711875 -9.42625 2.36125 -10 2 C-3.375 0 -3.375 0 0 0 Z " fill="#2F2F2F" transform="translate(886,784)"/>
<path d="M0 0 C0.66 0.33 1.32 0.66 2 1 C-3.14285714 5.42857143 -3.14285714 5.42857143 -7 6 C-7.33 5.34 -7.66 4.68 -8 4 C-6.71349294 3.30289269 -5.42059335 2.61757124 -4.125 1.9375 C-3.40570312 1.55464844 -2.68640625 1.17179687 -1.9453125 0.77734375 C-1.30335938 0.52082031 -0.66140625 0.26429688 0 0 Z " fill="#EFF0F0" transform="translate(901,351)"/>
<path d="M0 0 C-0.33 0.66 -0.66 1.32 -1 2 C-3.9375 2.75 -3.9375 2.75 -7 3 C-7.66 2.34 -8.32 1.68 -9 1 C-5.64919071 -1.10976881 -3.77897651 -1.0497157 0 0 Z " fill="#1E1F1E" transform="translate(684,305)"/>
<path d="M0 0 C0.33 0.99 0.66 1.98 1 3 C1.66 3 2.32 3 3 3 C3 3.66 3 4.32 3 5 C1.02 5.66 -0.96 6.32 -3 7 C-1.125 2.25 -1.125 2.25 0 0 Z " fill="#C1C1C1" transform="translate(752,985)"/>
<path d="M0 0 C0.66 0.66 1.32 1.32 2 2 C-1.13498292 3.85776765 -3.37471432 4.20140476 -7 4 C-7 3.34 -7 2.68 -7 2 C-4.69 1.34 -2.38 0.68 0 0 Z " fill="#0A0A0A" transform="translate(923,670)"/>
<path d="M0 0 C-0.33 1.98 -0.66 3.96 -1 6 C-2.32 5.67 -3.64 5.34 -5 5 C-4.625 3.0625 -4.625 3.0625 -4 1 C-2 0 -2 0 0 0 Z " fill="#F5F5F5" transform="translate(246,486)"/>
<path d="M0 0 C5.75 -0.125 5.75 -0.125 8 1 C8 1.66 8 2.32 8 3 C5.36 2.67 2.72 2.34 0 2 C0 1.34 0 0.68 0 0 Z " fill="#0D0E0D" transform="translate(791,340)"/>
<path d="M0 0 C2.4375 0.375 2.4375 0.375 5 1 C5.33 1.66 5.66 2.32 6 3 C3.69 3.33 1.38 3.66 -1 4 C-0.67 2.68 -0.34 1.36 0 0 Z " fill="#515051" transform="translate(848,321)"/>
<path d="M0 0 C0.66 0.99 1.32 1.98 2 3 C-0.75 8.875 -0.75 8.875 -3 10 C-2.01 6.7 -1.02 3.4 0 0 Z " fill="#BEBDBE" transform="translate(737,249)"/>
<path d="M0 0 C3.45925163 1.2491742 6.14693203 2.67527795 9 5 C4.545 4.01 4.545 4.01 0 3 C0 2.01 0 1.02 0 0 Z " fill="#1B1B1B" transform="translate(336,727)"/>
<path d="M0 0 C1 4 1 4 1 4 Z M-2 1 C-1.34 2.32 -0.68 3.64 0 5 C-0.99 5.99 -1.98 6.98 -3 8 C-3.66 7.34 -4.32 6.68 -5 6 C-4.01 4.35 -3.02 2.7 -2 1 Z " fill="#2E2E2F" transform="translate(547,667)"/>
<path d="M0 0 C2.35171131 0.59861742 4.6859378 1.26924352 7 2 C7.33 2.66 7.66 3.32 8 4 C6.25 4.75 6.25 4.75 4 5 C1.75 3.125 1.75 3.125 0 1 C0 0.67 0 0.34 0 0 Z " fill="#3B3B3B" transform="translate(482,501)"/>
<path d="M0 0 C3.3 0.33 6.6 0.66 10 1 C9.34 1.66 8.68 2.32 8 3 C4.4375 2.75 4.4375 2.75 1 2 C0.67 1.34 0.34 0.68 0 0 Z " fill="#151516" transform="translate(775,336)"/>
<path d="M0 0 C1.32 1.32 2.64 2.64 4 4 C3.01 4.66 2.02 5.32 1 6 C0.01 4.35 -0.98 2.7 -2 1 C-1.34 0.67 -0.68 0.34 0 0 Z " fill="#252425" transform="translate(729,318)"/>
<path d="M0 0 C0.66 0.33 1.32 0.66 2 1 C0.68 2.65 -0.64 4.3 -2 6 C-3.32 5.67 -4.64 5.34 -6 5 C-4.02 3.35 -2.04 1.7 0 0 Z " fill="#1D1D1D" transform="translate(452,307)"/>
<path d="M0 0 C0.66 0.99 1.32 1.98 2 3 C1.01 4.98 0.02 6.96 -1 9 C-2.0326802 6.21176345 -2.04509293 5.1322726 -1.0625 2.25 C-0.711875 1.5075 -0.36125 0.765 0 0 Z " fill="#313131" transform="translate(292,801)"/>
<path d="M0 0 C0.66 1.32 1.32 2.64 2 4 C0.68 5.32 -0.64 6.64 -2 8 C-2.33 7.34 -2.66 6.68 -3 6 C-2.06553465 3.96855359 -1.06775224 1.96466413 0 0 Z " fill="#2C2C2C" transform="translate(970,763)"/>
<path d="M0 0 C0.86625 0.3403125 0.86625 0.3403125 1.75 0.6875 C0 2.25 0 2.25 -2.25 3.6875 C-4.5 3.375 -4.5 3.375 -6.25 2.6875 C-2.80384615 -0.38942308 -2.80384615 -0.38942308 0 0 Z " fill="#1E1E1F" transform="translate(557.25,494.3125)"/>
<path d="M0 0 C0.66 0.33 1.32 0.66 2 1 C2.33 1.99 2.66 2.98 3 4 C1.68 4.99 0.36 5.98 -1 7 C-1.33 6.34 -1.66 5.68 -2 5 C-1.0625 2.375 -1.0625 2.375 0 0 Z " fill="#151515" transform="translate(855,394)"/>
<path d="M0 0 C0.33 0 0.66 0 1 0 C1.20086443 3.71599191 1.1519437 4.77208445 -1 8 C-1.99 7.67 -2.98 7.34 -4 7 C-2.68 4.69 -1.36 2.38 0 0 Z " fill="#1E1E1E" transform="translate(772,227)"/>
<path d="" fill="#FFFFFF" transform="translate(0,0)"/>
<path d="" fill="#000000" transform="translate(0,0)"/>
<path d="" fill="#000000" transform="translate(0,0)"/>
</svg>
